<?xml version="1.0" encoding="UTF-8" standalone="no"?>
<svg
   viewBox="0 -1000 850.76038 750"
   version="1.1"
   id="tally"
   width="850.76038"
   height="750"
   xmlns="http://www.w3.org/2000/svg"
   xmlns:svg="http://www.w3.org/2000/svg">
  <path
     d="m 200,0 c 13.80712,0 25,-11.192881 25,-25 v -700 c 0,-13.80712 -11.19288,-25 -25,-25 -13.80712,0 -25,11.19288 -25,25 v 700 c 0,13.807119 11.19288,25 25,25 z"
     fill="#ff0000"
     id="one"
     transform="translate(-74.17712,-250)"
     style="fill:#000000;fill-opacity:1" />
  <path
     d="m 200,0 c 13.80712,0 25,-11.192881 25,-25 v -700 c 0,-13.80712 -11.19288,-25 -25,-25 -13.80712,0 -25,11.19288 -25,25 v 700 c 0,13.807119 11.19288,25 25,25 z m 200,0 c 13.80712,0 25,-11.192881 25,-25 v -700 c 0,-13.80712 -11.19288,-25 -25,-25 -13.80712,0 -25,11.19288 -25,25 v 700 c 0,13.807119 11.19288,25 25,25 z"
     fill="#ff0000"
     id="two"
     transform="translate(-74.17712,-250)"
     style="fill:#000000;fill-opacity:1" />
  <path
     d="m 200,0 c 13.80712,0 25,-11.192881 25,-25 v -700 c 0,-13.80712 -11.19288,-25 -25,-25 -13.80712,0 -25,11.19288 -25,25 v 700 c 0,13.807119 11.19288,25 25,25 z m 200,0 c 13.80712,0 25,-11.192881 25,-25 v -700 c 0,-13.80712 -11.19288,-25 -25,-25 -13.80712,0 -25,11.19288 -25,25 v 700 c 0,13.807119 11.19288,25 25,25 z m 200,0 c 13.80712,0 25,-11.192881 25,-25 v -700 c 0,-13.80712 -11.19288,-25 -25,-25 -13.80712,0 -25,11.19288 -25,25 v 700 c 0,13.807119 11.19288,25 25,25 z"
     fill="#ff0000"
     id="three"
     transform="translate(-74.17712,-250)"
     style="fill:#000000;fill-opacity:1" />
  <path
     d="m 200,0 a 25,25 135 0 0 25,-25 v -700 a 25,25 45 0 0 -25,-25 25,25 135 0 0 -25,25 v 700 a 25,25 45 0 0 25,25 z m 600,0 a 25,25 135 0 0 25,-25 v -700 a 25,25 45 0 0 -25,-25 25,25 135 0 0 -25,25 V -25 A 25,25 45 0 0 800,0 Z M 400,0 a 25,25 135 0 0 25,-25 v -700 a 25,25 45 0 0 -25,-25 25,25 135 0 0 -25,25 v 700 a 25,25 45 0 0 25,25 z m 200,0 a 25,25 135 0 0 25,-25 v -700 a 25,25 45 0 0 -25,-25 25,25 135 0 0 -25,25 v 700 a 25,25 45 0 0 25,25 z"
     fill="#ff0000"
     id="four"
     transform="translate(-74.17712,-250)"
     style="fill:#000000;fill-opacity:1" />
  <path
     d="m 921.64976,-617.73641 -0.29952,-0.52718 c -6.82085,-12.00469 -22.02027,-16.0998 -33.9631,-9.17122 -129.9161,75.37021 -577.04334,332.86862 -800.775579,462.86944 -11.937622,6.93642 -15.98579,22.2417 -9.04605,34.17805 6.867491,11.81208 22.130449,15.79546 34.091129,8.89772 266.93394,-153.94117 533.90262,-307.81995 800.69828,-462.00084 11.95446,-6.90847 16.11569,-22.24128 9.29484,-34.24597 z"
     fill="#ff0000"
     id="five"
     transform="translate(-74.17712,-250)"
     style="fill:#000000;fill-opacity:1" />
</svg>
