<?xml version="1.0" encoding="UTF-8" standalone="no"?>
<svg
   version="1.1"
   id="batter"
   width="835.68329"
   height="1513.4845"
   xmlns="http://www.w3.org/2000/svg"
   xmlns:svg="http://www.w3.org/2000/svg">
  <path
     id="batter"
     d="m 129.27408,1486.9302 c 0,0 2.96,10.0267 -2.94667,13.5734 0,0 -3.44,1.72 -6.92,9.1066 -0.08,0.16 -0.13333,0.3467 -0.2,0.52 -0.10667,0.3334 -0.54667,0.9867 -2.32,0.9867 l -0.58667,1.1867 h -7.66666 l -1.18667,-1.1867 c 0,0 -0.58667,-1.76 -18.293334,-1.1733 H 72.634077 l -0.586667,1.1733 h -6.493333 c 0,0 -8.84,-2.9467 -20.64,-2.36 0,0 -10.626666,0 -14.746666,1.7733 h -6.493333 c 0,0 -3.546667,-2.36 -14.1599998,-2.36 v 1.1867 H 3.6074117 l -0.5866667,-1.7733 c 0,0 -4.7199999,-3.5467 -2.35999992,-17.7067 0,0 0,-1.76 1.18666662,-2.9467 0,0 0,-7.6666 1.1733333,-10.6133 0,0 0.5866667,-1.7733 0,-4.1333 0,0 -2.94666657,-9.44 4.1333333,-19.4667 0,0 -1.1866667,-5.9067 0,-10.04 l 5.8933327,-21.2267 c -0.493333,-30.5866 20.653333,-40.72 40.119999,-43.6666 l 10.04,-15.92 c 0,0 3.533333,-31.8667 23,-47.2 l 4.133333,-4.72 5.306666,-11.8 v -5.32 l 1.186667,-1.1734 c 0,0 1.76,-23.6 16.520004,-45.4266 0,0 2.94666,-8.2667 12.38666,-14.7467 0,0 3.53334,-1.7733 6.49334,-8.2667 0,0 10.02666,-20.0533 37.15999,-40.7066 l 13.57334,-10.6134 c 0,0 7.66666,-11.2133 9.44,-15.3466 0,0 3.53333,-10.0267 7.66666,-12.9733 0,0 15.93334,-25.3734 27.73334,-23.0134 0,0 3.53333,-20.0533 11.8,-31.8533 0,0 1.76,-8.8533 5.30666,-11.8 0,0 1.17334,-14.16 8.85334,-20.6533 0,0 2.36,-1.7734 2.94666,-7.6667 0,0 0,-11.8 6.49334,-24.1867 0,0 1.76,-2.96 -1.18667,-8.2666 0,0 -4.52,-7.92 7.46667,-18.77338 1.37333,-1.24 1.89333,-3.21333 1.23999,-4.94667 -0.42666,-1.13333 -1.26666,-2.46666 -2.79999,-4.01333 0,0 -5.32,-5.30667 6.47999,-11.8 0,0 2.96,-15.92 5.90667,-23.6 0,0 1.77333,-5.30666 0.58667,-9.44 0,0 -4.72,-10.02666 -3.53334,-15.92 0,0 0,-5.90666 12.38667,-8.26666 v -9.44 c 0,0 -6.49333,-9.44 3.53333,-21.82667 0,0 -1.17333,-8.85333 5.90667,-12.38667 0,0 -0.6,-1.77333 0.58667,-2.36 l 0.58666,-16.52 c 0,0 0,-5.30666 2.36,-5.89333 0,0 0.6,-11.8 4.72,-15.34667 0,0 -0.58666,-7.66666 5.32,-11.21333 0,0 0.58667,-3.53333 2.94667,-5.30666 0,0 0.58667,-11.21334 3.53333,-14.16 v -1.17334 c 0,0 -4.13333,-1.18666 -4.13333,-7.08 0,0 0,-7.08 1.77333,-10.62666 0,0 -7.08,-12.38667 -1.17333,-21.82667 l 5.89333,-9.44 c 0,0 -2.94666,-5.30667 -0.58666,-8.85333 l 1.17333,-1.76 v -13.57334 c 0,0 -9.42667,-22.42666 -8.84,-35.4 0,0 -1.77333,-15.93333 -1.18667,-25.37333 0,0 -7.08,-21.24 -5.89333,-29.49333 0,0 -2.36,-4.72 -1.77333,-8.26667 0,0 -6.49334,-7.06666 -5.30667,-15.92 0,0 -4.13333,-11.8 -2.36,-17.10666 0,0 -2.94667,-8.26667 -2.94667,-14.16 0,0 -16.52,-59.58667 12.38667,-83.78667 0,0 8.25333,-7.08 13.56,-8.25333 0,0 15.93333,-11.8 23.6,-11.8 0,0 8.26667,-8.26667 20.65333,-13.57333 0,0 12.98667,-6.49334 16.52,-7.08 0,-4.12 -4.72,-11.2 -6.49333,-21.24 0,0 -2.94667,-14.74667 -2.94667,-21.82667 -12.97333,-3.53333 -20.05333,-18.29333 -15.33333,-39.52 0,0 1.76,-11.21333 7.08,-15.93333 v -5.90667 c 0,0 -2.36,-2.94666 -14.76,-2.36 -5.30667,0 -8.82667,0.04 -8.25333,-2.94666 0,0 0.58666,-3.53334 7.08,-2.36 0,0 11.8,-5.89334 26.54666,-8.25334 l 1.77334,-2.96 c 15.30666,-55.06666 49.55999,-56.62666 81.99999,-50.73333 68.44,14.74667 67.26667,64.30667 65.49334,76.69333 0,0 -11.8,56.64 -16.52,61.94667 0,0 -1.77334,2.36 -5.30667,-1.17333 h -6.49333 c 0,0 -2.36,12.97333 -5.90667,18.29333 v 4.72 c 0,0 23.6,4.72 30.68,12.38666 0,0 5.90667,-2.94666 7.68,2.94667 h 5.89333 c 0,0 11.21333,-7.08 20.65333,-0.58667 0,0 4.72,2.36 7.66667,-1.18666 0,0 10.61333,-10.02667 27.73333,-4.12 0,0 1.76,1.17333 3.53334,-1.77334 0,0 2.36,-4.72 4.72,-5.30666 v -1.18667 c 0,0 -6.49334,-1.77333 -12.38667,-10.02667 0,0 -8.26667,3.53334 -11.21333,0 l -2.36,-2.94666 c 0,0 -4.13334,1.17333 -7.08,-2.96 l -1.17334,-1.76 c 0,0 -2.96,-4.13334 3.53334,-8.85333 0,0 -6.49334,-5.90667 -4.72,-10.62667 0,0 -12.38667,-8.84 -7.08,-17.10667 0,0 3.54666,-5.89333 10.02666,-4.12 0,0 0,-4.73333 4.72,-7.68 L 506.86073,272.17027 C 456.1274,192.53027 400.8474,110.50361 362.31407,32.050278 c -5.14667,-10.373333 -2.36,-21.826666 10.04,-27.7333325 23.58667,-10.6133331 28.30667,0.6 33.62666,9.4399995 l 61.94667,117.413335 59.58667,130.97333 61.94666,120.34666 c 0,0 14.74667,0 19.46667,4.13333 0,0 4.13333,-1.77333 12.38666,5.30667 0,0 8.85334,7.68 14.74667,15.93333 0,0 2.37333,1.18667 2.37333,2.94667 v 2.96 l 5.30667,10.61333 c 0,0 2.36,1.18667 4.12,3.54667 0,0 4.72,1.76 7.68,5.30666 l 4.12,4.72 c 0,0 14.16,4.72 45.44,10.02667 0,0 24.77333,1.77333 36.57333,12.38667 l 25.96,20.06666 c 0,0 18.29333,11.2 18.88,29.49334 0,0 0,8.85333 -10.62667,17.10666 0,0 -12.97333,15.34667 -40.12,17.70667 0,0 -11.2,0.58667 -12.38666,8.25333 0,0 -1.77334,21.82667 -18.88,23.6 0,0 -5.30667,0.58667 -7.66667,-2.94667 0,0 -8.25333,-1.77333 -17.69333,-1.18666 0,0 -23.01333,-5.30667 -45.42667,-5.30667 0,0 -12.4,11.8 -21.24,15.93333 0,0 -7.08,13.57334 -11.8,16.52 0,0 -14.16,143.36 -20.65333,178.76 0,0 -2.94667,27.73333 -10.62667,33.04 v 2.36 c 0,0 4.72,4.13333 2.96,7.66667 0,0 -2.96,6.49333 -8.26666,10.02666 v 1.77333 c 0,0 4.72,2.36 5.30666,5.30667 0,0 11.21334,2.36 4.13334,11.21333 v 4.13334 c 0,0 9.44,2.36 5.30666,9.44 l 4.72,8.25333 c 0,0 5.32,0.6 7.08,4.72 0,0 7.68,1.77333 7.68,10.62667 l -3.54666,4.72 c 0,0 6.49333,2.94666 6.49333,11.2 v 5.32 c 0,0 0,2.94666 2.36,4.12 0,0 11.21333,2.36 8.25333,20.65333 l 10.04,13.57333 c 0,0 7.08,5.30667 11.2,17.69333 l 27.73334,52.50665 c 0,0 20.65333,35.9867 23.59999,54.28 0,0 8.85334,17.1067 11.21334,28.9067 0,0 12.38666,7.68 10.02666,28.9067 0,0 15.33334,5.32 20.64,20.0666 l 16.52,54.28 c 0,0 11.21334,56.64 7.68,81.4133 l 0.58667,13.5734 c 0,0 9.44,33.6266 11.8,50.1466 0,0 5.30667,14.7467 0,33.6267 0,0 -3.54667,9.44 -2.94667,20.6533 0,0 0.58667,6.48 7.08,7.08 0,0 30.08,4.12 30.08,21.24 0,0 1.18667,14.1467 -6.48,21.8267 0,0 0.58667,3.5333 8.25334,7.08 0,0 7.07999,2.36 14.74666,17.1067 0,0 2.36,4.1333 13.57333,5.3066 0,0 14.74667,7.6667 5.30667,25.3734 l -0.58667,0.5866 v 1.1867 h -5.30666 v 0.5867 h -7.08 -7.68 v -1.1867 c 0,0 -33.02667,2.36 -53.68,2.36 0,0 -20.65333,0.6 -25.37333,-0.5867 0,0 -3.53334,2.36 -11.21334,1.7734 v 1.1733 h -4.72 -1.17333 v -1.76 h -1.77333 c 0,0 -0.58667,1.76 -4.72,1.76 0,0 -5.89334,0.6 -6.48,-8.84 0,0 -0.6,-4.1333 1.17333,-4.72 0,0 -0.58667,-2.96 1.18667,-3.5467 0,0 -0.6,-1.7733 0.58666,-2.36 0,0 2.94667,-3.5333 -1.77333,-10.0266 v -11.8 l 2.36,-8.2667 c 0,0 -9.44,0.6 -9.44,-4.72 v -3.5333 c 0,0 0,-13.5734 2.36,-19.4667 v -1.7733 c 0,0 -24.77333,5.3066 -24.77333,-16.52 l 1.17333,-24.1867 v -22.4267 c 0,0 -5.30666,-19.4666 -4.13333,-32.44 l -9.44,-38.9466 c 0,0 -15.33333,-34.2134 -16.52,-67.2534 0,0 -10.02667,-12.9733 -4.72,-25.3733 0,0 4.72,-14.1467 -9.42667,-23 0,0 -7.68,-3.5467 -5.90666,-15.3467 0,0 -4.72,-3.5333 -12.38667,-3.5333 0,0 -5.30667,-0.5867 -5.30667,-7.6667 l -7.08,-12.9866 c 0,0 -10.04,-5.8933 -10.04,-15.9333 l -1.76,-2.9467 c 0,0 -9.44,-1.7733 -12.4,-10.6133 0,0 -5.30666,-0.5867 -10.02666,-7.08 0,0 -21.24,-14.16 -32.44,-26.5467 0,0 -39.53333,-31.8667 -41.89333,-36.5867 0,0 -36.57334,-26.5466 -44.84,-38.9333 0,0 -70.2,105.6 -98.52,133.3333 0,0 -9.44,23.0133 -23.6,34.8133 0,0 -20.65333,47.7867 -70.8,73.1467 l -31.86666,38.36 c 0,0 -14.74667,25.9467 -30.08,20.64 0,0 3.53333,4.1333 -13.57334,14.7467 0,0 -4.72,12.4 -10.02666,17.7066 0,0 -1.77334,11.2134 -8.85334,17.1067 l -2.94666,5.3067 c 0,0 -0.58667,4.1333 -3.54667,8.2666 l -3.53333,4.72 c 0,0 -0.58667,1.1734 -2.36,1.1734 l -5.30667,6.4933 c 0,0 0,5.8933 -4.13333,10.0267 l -2.94667,2.9466 -1.77333,1.1867 -5.30667,7.6667 c 0,0 -0.58666,4.1333 -5.30666,9.44 l -4.13334,4.72 c 0,0 -1.18666,1.1866 -2.36,1.1866 l -5.30666,11.8 c 0,0 0,4.12 -3.54667,7.6667 v 4.72 c 0,0 2.94667,1.1733 6.49333,6.48 0,0 4.72,1.7733 8.25334,8.2667 0,0 3.54666,1.1733 7.08,5.8933 0,0 8.26666,2.96 12.98666,15.9333 0,0 13.56,9.44 14.16,18.88 0,0 5.30667,3.5467 0.58667,9.44 0,0 -8.85334,10.0267 -19.46667,-7.08 0,0 -2.94666,-5.3066 -3.54666,-10.6133 0,0 -0.58667,-2.36 -4.72,-3.5467"
     style="fill:#000000;fill-opacity:1;fill-rule:nonzero;stroke:none;stroke-width:0.133333" />
</svg>
