<?xml version="1.0" encoding="UTF-8" standalone="no"?>
<svg
   version="1.1"
   id="pitcher"
   width="784.39484"
   height="1327.5782"
   xmlns="http://www.w3.org/2000/svg"
   xmlns:svg="http://www.w3.org/2000/svg">
  <path
     id="pitcher"
     d="m 261.97112,402.16487 c 6.592,-5.66666 12.23599,-12.41333 16.68933,-19.86666 6.67466,3.12 13.66533,5.53333 20.85866,7.14666 -11.12266,10.88 -21.85733,22.17334 -32.15066,33.84 -2.37333,2.68 -4.70667,5.4 -7.036,8.12 0.67733,-9.73333 1.228,-19.49333 1.63867,-29.24 z m -16.676,-160.95999 c -4.10534,-3.6 -8.55334,-6.76 -12.696,-10.32 -4.22,-3.61334 -7.73867,-7.88 -11.71067,-11.74667 -4.188,-4.06667 -9.072,-7.16 -14.29733,-9.72 0.87333,-2.18666 1.53733,-4.45333 2.16933,-6.72 0.75333,-2.68 1.41733,-5.38666 2,-8.10666 1.12533,-5.24 1.916,-10.57334 2.416,-15.90667 2.97333,-3.28 5.34,-7.18667 7.30667,-11.13333 1.00666,-2.01334 1.80933,-4.10667 2.72666,-6.16 0.412,-0.93334 0.88,-1.85334 1.5,-2.66667 0.50667,-0.65333 1.11867,-1.21333 1.752,-1.74667 0.55067,0.54667 1.15734,1.04 1.74667,1.54667 0.012,0.0133 0.0253,0.0267 0.0373,0.04 4.764,6.14667 10.54667,11.44 16.91067,15.90667 7.028,4.93333 14.708,8.88 22.604,12.24 2.252,0.94666 4.52267,1.86666 6.80666,2.73333 1.12667,0.42667 2.252,0.84 3.37867,1.25333 0.56267,0.2 1.12667,0.4 1.69467,0.61334 0.27866,0.0933 0.564,0.18666 0.84266,0.29333 0.12,0.04 0.24,0.08 0.36667,0.12 0.13867,0.0533 0.36667,0.2 0.316,0.10667 0.70267,0.73333 1.316,1.54666 1.97333,2.30666 0.70267,0.82667 1.412,1.65334 2.13334,2.46667 1.25733,1.41333 2.58666,2.76 4.05466,3.96 -1.74666,4.04 -2.076,8.44 -2.33466,12.81333 -0.13867,2.38667 -0.272,4.81333 -0.72134,7.17333 -0.468,2.48 -1.33466,4.84 -2.34133,7.13334 -1.98,4.56 -4.04267,9.09333 -6.06667,13.64 -1.936,4.33333 -3.82133,8.70666 -5.92133,12.97333 -2.176,4.44 -4.624,8.78667 -7.69333,12.68 -2.01733,-0.42667 -4.05467,-0.76 -6.104,-0.98667 -0.007,-4.6 -1.38533,-9.14666 -3.48,-13.22666 -2.308,-4.52 -5.58,-8.24 -9.36933,-11.56 z M 775.07377,551.0982 c -2.2,-1.10666 -4.6,-1.72 -7.03333,-1.76 -1.48,-1.08 -3.15067,-1.94666 -5.02934,-2.49333 -3.96,-1.14667 -8.00933,-0.45333 -11.63333,1.4 -3.77067,1.94667 -6.93467,4.85333 -10.29333,7.41333 -13.59467,10.30667 -29.73334,17.10667 -46.54934,19.88 -7.68666,1.26667 -15.51866,1.65334 -23.29333,1.18667 -0.684,-0.81333 -1.41066,-1.58667 -2.30933,-2.16 -0.816,-0.52 -1.752,-0.77333 -2.6,-1.22667 -0.968,-0.53333 -1.20133,-1.29333 -1.37333,-2.33333 -0.15867,-0.97333 -0.36667,-1.88 -0.816,-2.76 -0.79067,-1.58667 -2.144,-2.81333 -3.59867,-3.77333 -0.0893,-0.0533 -0.17733,-0.10667 -0.26667,-0.16 -0.49333,-3.93334 -1.24666,-7.82667 -2.54266,-11.57334 -2.404,-6.98666 -6.668,-13.14666 -10.572,-19.36 -3.992,-6.33333 -7.94534,-12.72 -12.00134,-19.02666 -3.43466,-5.34667 -7.03333,-10.61334 -11.19066,-15.42667 -2.34667,-2.72 -4.89067,-5.29333 -7.648,-7.6 -1.25334,-2.13333 -2.556,-4.25333 -3.916,-6.32 -9.04667,-13.8 -20.19334,-26.05333 -31.65734,-37.86666 -11.944,-12.30667 -24.06533,-24.44 -35.81333,-36.96 -11.91866,-12.68 -23.604,-25.57334 -35.048,-38.69334 -5.20666,-5.96 -10.224,-12.12 -15.708,-17.85333 -4.08666,-4.25333 -8.54133,-8.29333 -13.58933,-11.38666 -0.79733,-1.26667 -1.62,-2.52 -2.47333,-3.73334 -2.98,-4.25333 -6.28934,-8.26666 -9.81334,-12.06666 -3.592,-3.88 -7.36933,-7.70667 -11.46266,-11.06667 -2.11334,-1.73333 -4.35867,-3.34667 -6.832,-4.53333 -2.556,-1.24 -5.26934,-1.94667 -8.072,-2.32 -5.77067,-0.77334 -11.72934,-0.56 -17.49334,0.14666 -11.476,1.4 -22.56533,5.10667 -32.79599,10.45334 -6.83867,3.58666 -13.27867,7.89333 -19.32667,12.70666 0.56933,-2.16 1.12667,-4.30666 1.65067,-6.45333 1.05066,-4.33333 1.696,-8.72 1.804,-13.18667 0.11333,-4.4 -0.19734,-8.8 -0.608,-13.17333 -1.68934,-17.96 -4.40934,-35.84 -5.06134,-53.89333 -0.176,-4.94667 -0.24666,-9.90667 0.007,-14.85334 0.0947,-1.94666 0.292,-3.97333 0.79067,-5.88 6.73733,2.18667 14.00133,2.76 20.99733,1.58667 3.71333,-0.64 7.11733,-2.06667 9.98267,-4.53333 1.79066,-1.54667 3.29066,-3.41334 4.51733,-5.44 8.51466,-10.52 8.864,-24.84 6.14933,-37.56 -0.77867,-3.65333 -1.784,-7.25333 -2.88533,-10.82667 -1.056,-3.41333 -2.18134,-6.81333 -3.64933,-10.08 -2.948,-6.6 -7.76267,-11.97333 -12.312,-17.49333 -2.59334,-3.14667 -5.14934,-6.33333 -7.80667,-9.42667 -0.60667,-0.70666 -1.22,-1.41333 -1.85333,-2.09333 1.11333,-0.28 2.07466,-1.05333 2.70133,-2.09333 1.06267,-1.78667 0.924,-3.81334 0.007,-5.62667 -0.98,-1.92 -2.676,-3.37333 -4.19467,-4.86667 -1.74,-1.70666 -3.40267,-3.49333 -5.05467,-5.29333 -6.45866,-7.04 -12.93066,-14.413332 -21.94666,-18.186665 -3.04267,-1.266667 -6.27467,-2.04 -9.53867,-2.146667 -1.70267,-1.6 -3.66933,-2.933333 -5.776,-3.946667 -6.004,-2.893333 -12.75467,-3.133333 -19.21333,-1.866666 -2.36667,0.453333 -4.676,1.12 -6.94667,1.906666 -3.51733,-1.533333 -7.168,-2.759999 -10.92,-3.586666 -4.168,-0.92 -8.40667,-1.186667 -12.62667,-1.773333 -2.088,-0.293334 -4.13066,-0.746667 -6.16133,-1.293334 -1.97467,-0.546666 -3.948,-1.08 -5.98533,-1.306666 -3.6,-0.373334 -7.19333,0.426666 -10.47067,1.88 -1.732,0.773333 -3.37066,1.733333 -4.92133,2.813333 -5.33867,-7.613333 -13.38667,-13.253333 -22.35067,-15.76 -1.06266,-0.293333 -2.13866,-0.52 -3.22,-0.72 -0.184,-9.373333 -0.368,-18.733333 -0.55066,-28.106666 -0.0893,-4.413333 0.11333,-8.919999 -1.60667,-13.066666 -1.44933,-3.48 -3.84,-6.506667 -6.69333,-8.933333 -6.668,-5.68 -15.35467,-7.8533333 -23.64134,-9.9866666 -4.69466,-1.1999999 -9.39466,-2.3866666 -14.12133,-3.4933332 -4.52267,-1.04 -9.07733,-2.07999995 -13.67733,-2.7066666 -4.852,-0.63999998 -9.844,-0.59999998 -14.37334,1.4533333 -1.6,0.7333333 -3.068,1.6666666 -4.45333,2.7333333 -2.84133,-0.04 -5.68133,-0.093333 -8.516,-0.12 -3.852,-0.053333 -7.76267,-0.026667 -11.368,1.4933333 -3.34666,1.4133333 -6.156,3.7733332 -8.85733,6.1466665 -3.01733,2.666667 -5.94,5.413333 -8.75467,8.28 -2.59466,2.64 -5.25733,5.333333 -7.22533,8.48 -1.99867,3.213333 -2.796,6.826666 -3.176,10.546666 -0.84133,8.226666 -1.06267,16.573333 -1.10667,24.839999 -0.0373,7.146667 0.17067,14.306667 0.60667,21.44 -1.04933,-0.373334 -2.144,-0.56 -3.32133,-0.413334 -4.73734,0.586667 -6.53467,5.653334 -6.484,9.8 0.056,4.693333 1.012,9.519999 2.26533,14.013329 1.24533,4.48 2.96667,8.84 5.11067,12.97334 1.48666,2.86666 3.18933,5.61333 5.07466,8.22666 -1,4.4 -2,8.78667 -2.99866,13.17334 -3.86,-0.68 -8.04134,1.24 -9.724004,4.88 -0.892,1.93333 -1.106667,4.13333 -0.582667,6.2 0.525334,2.09333 1.873331,3.69333 3.360001,5.16 -2.57467,3.2 -5.345334,6.22666 -8.288001,9.06666 -6.629333,-1.10666 -13.006666,-4.10666 -19.806666,-4.16 -2.101333,-0.0133 -4.549333,0.0933 -6.276,1.42667 -1.714666,1.33333 -2.562666,3.65333 -3.271999,5.64 -1.542667,4.29333 -2.049334,8.86667 -2.536,13.37333 -0.253334,2.34667 -0.513334,4.70667 -0.898667,7.05334 -0.05733,0.0267 -0.106667,0.08 -0.164,0.13333 -1.917333,2.08 -3.833333,4.14667 -5.757333,6.21333 -1.872,2.01334 -3.814667,4 -5.566667,6.13334 -1.385333,1.68 -2.537333,3.52 -3.422666,5.45333 -7.693333,7.33333 -13.386667,16.44 -17.593333,26.14666 -4.321333,9.98667 -7.218667,20.50667 -9.673333,31.09334 -2.922667,12.57333 -5.485334,25.25333 -7.914667,37.93333 -2.5306664,13.24 -4.845333,26.52 -6.9333329,39.84 -0.9813334,6.22666 -2.0426667,12.48 -2.556,18.77333 -0.3106666,3.78667 -0.3853333,7.62667 -0.013333,11.42667 -2.46666662,15.13333 -2.57999995,30.6 -0.34,45.78666 1.1573333,7.82667 3.1119999,15.42667 5.2439999,23.04 1.0559999,3.8 1.9413333,7.6 2.6439999,11.49334 0.6586661,3.61333 1.3733331,7.25333 2.9666661,10.6 1.12,2.34666 2.657333,4.46666 4.498667,6.28 -0.626667,0.88 -0.968,1.96 -1.057334,3.06666 -0.164,2 0.64,3.90667 1.746667,5.54667 1.290667,1.89333 2.872,3.56 4.112,5.49333 1.209333,1.89333 2.22,3.90667 3.069333,5.98667 1.752,4.28 2.896,8.78666 4.061333,13.25333 1.22,4.66667 2.549334,9.30667 4.016,13.89333 2.968,9.25334 6.478667,18.32 10.496,27.17334 4.042667,8.89333 8.597333,17.54666 13.652,25.92 1.246666,2.05333 2.525333,4.10666 3.828,6.12 1.302666,2.02666 2.574666,4.09333 4.048,6 1.108,1.41333 2.455999,2.54666 4.087999,3.2 -0.121333,5.33333 2.346667,10.4 4.744,15.09333 1.708,3.33333 3.378667,6.72 4.054667,10.44 0.03867,0.21333 0.133333,0.37333 0.253333,0.49333 0.146667,3.02667 0.285334,6.06667 0.430667,9.10667 0.06267,1.46666 0.405333,3.08 -0.5,4.34666 -0.784,1.10667 -1.505333,2.12 -1.98,3.41334 -1.98,5.4 0.221333,11.05333 1.86,16.21333 0.929333,2.92 1.505333,5.85333 1.752,8.90667 0.246667,3.01333 0.316,6.04 0.689333,9.02666 0.373333,2.94667 1.069333,5.76 2.322667,8.45334 1.284,2.74666 2.84,5.37333 4.130666,8.13333 0.582667,1.24 1.196,2.50667 1.872,3.76 -0.125333,0.24 -0.132,0.54667 0.05733,0.85333 6.985333,11.02667 14.221334,21.90667 21.706674,32.6 3.19466,4.56 6.27466,9.46667 10.444,13.21334 2.01866,1.81333 4.296,3.29333 6.84533,4.22666 2.708,0.98667 5.66133,1.30667 8.528,1.17334 1.99333,-0.10667 3.93467,-0.42667 5.832,-0.89334 -0.0947,3.73334 0.23466,7.48 1.84133,10.88 1.18933,2.53333 3.13867,4.49333 5.308,6.21333 2.22667,1.76 4.58667,3.37334 7.14933,4.62667 1.59334,0.78667 3.24534,1.41333 4.94,1.86667 0.53734,1.96 1.48667,3.81333 2.86667,5.42666 2.372,2.74667 5.59867,4.50667 8.932,5.93334 0,1.68 0.272,3.34666 0.82267,4.93333 0.37333,1.08 0.86666,2.12 1.48666,3.09333 0.62667,0.96 1.76534,1.92 1.91734,3.12 0.164,1.30667 -0.47467,2.56 -0.18934,3.90667 0.23334,1.10667 0.88534,2.06667 1.63734,2.89333 0.97466,1.08 2.17066,1.92 3.30933,2.8 0.0627,0.0533 0.12667,0.10667 0.196,0.16 4.21333,16.36 9.36933,32.48 15.448,48.22667 6.112,15.85333 13.13467,31.36 21.04267,46.4 3.34533,6.37333 6.76933,12.85333 11.248,18.50666 -1.54934,3.30667 -2.38534,6.8 -1.25334,10.6 0.74667,2.52 2.10667,4.77334 3.61334,6.90667 -0.032,0.16 -0.0707,0.32 -0.10134,0.48 -0.62,3.69333 -0.0133,7.38667 0.936,10.98667 -1.62,4.48 -2.24533,9.30666 -1.79066,14.05333 -1.36534,2.33333 -2.66934,4.70667 -3.884,7.10667 -4.656,9.28 -7.95867,19.33333 -8.452,29.76 -0.184,3.92 0.0693,7.88 0.784,11.73333 -4.73867,8.30664 -8.72934,17.05334 -12.11467,26.00004 -3.32133,8.7733 -6.32,17.7866 -8.268,26.96 -2.03067,9.5466 -2.892,19.2933 -3.12,29.04 -0.176,7.5066 0.0253,15 0.34933,22.5066 -1.424,4.4667 -2.80266,8.9734 -3.59466,13.6 -1.01734,5.96 -0.86667,12.0134 -0.25867,18.0134 0.608,5.9466 1.48667,11.8666 2.436,17.7733 0.68933,4.3067 1.45467,8.5867 2.284,12.8667 -1.26,2.4133 -2.48,4.8533 -3.62,7.3333 -2.6,5.64 -4.80133,11.52 -5.984,17.64 -1.18267,6.1067 -1.18267,12.2 0.0373,18.2933 0.96134,4.7867 2.48,9.7467 2.47467,14.6667 -0.007,0.013 -0.0133,0.013 -0.0253,0.027 -3.33467,2.72 -7.56667,4.04 -11.33067,6.0133 -3.73867,1.9467 -6.90267,4.7067 -8.79467,8.5467 -1.84,3.7066 -2.416,7.96 -1.47333,12.0133 0.71467,3.1067 2.272,5.9733 4.428,8.28 -1.09467,1.56 -2.32133,3.0133 -3.33333,4.6267 -1.17734,1.8666 -2.10667,4.04 -2.04934,6.2933 0.0373,1.3867 0.46134,2.7067 1.15734,3.8933 -0.63334,4.2267 -1.164,8.48 -1.544,12.7467 -0.17067,1.8533 -0.272,3.7333 -0.17067,5.5867 -2.19467,5.0666 -2.69467,10.6133 -2.81467,16.0933 -0.0573,2.6533 -0.55733,5.8933 1.164,8.1467 1.57467,2.0533 4.23867,3.4133 6.56,4.4266 5.124,2.2534 10.69734,3.0267 16.22,3.5334 6.37734,0.5866 12.78,0.9333 19.188,1.0666 12.912,0.28 25.812,-0.4 38.64134,-1.8533 6.40933,-0.7333 12.86133,-1.5333 19.32133,-1.12 6.44667,0.4133 12.78533,2 19.144,3.04 12.66533,2.0933 25.46266,3.4 38.292,3.9067 1.31066,0.053 2.62,0.093 3.92933,0.1333 0.152,0.1467 0.36133,0.24 0.63867,0.24 10.52133,-0.16 21.048,-0.32 31.568,-0.4667 4.73333,-0.08 9.43333,-0.2666 14.02,-1.5333 3.97866,-1.08 7.80666,-2.8133 11.25466,-5.08 3.51734,-2.2933 6.81334,-5.1733 9.312,-8.5733 1.25867,-1.72 2.296,-3.6934 2.63867,-5.8267 0.35333,-2.1867 -0.0693,-4.3333 -0.97467,-6.3467 -1.696,-3.7466 -4.80133,-6.8933 -8.03466,-9.36 -3.328,-2.5333 -7.116,-4.4133 -11.07067,-5.76 -9.712,-3.2933 -20.47867,-3.3466 -30.30267,-0.48 -2.12666,-0.88 -4.15733,-1.9733 -5.99733,-3.3733 -2.26,-1.72 -4.076,-3.9333 -5.872,-6.12 -1.80933,-2.1867 -3.688,-4.2933 -5.73733,-6.2667 -4.08,-3.92 -8.61067,-7.3466 -13.23467,-10.6 -4.66933,-3.2933 -9.38933,-6.56 -14.22267,-9.6133 -3.916,-2.4667 -7.97733,-4.72 -12.24,-6.52 -0.564,-3.88 -1.25333,-7.7333 -2.012,-11.5733 -0.82266,-4.1467 -1.664,-8.2934 -2.588,-12.4134 -0.81066,-3.6133 -1.74,-7.2133 -3.10666,-10.6666 -0.44934,-1.1467 -0.95467,-2.2667 -1.51067,-3.36 2.57333,-1.44 5.048,-3.0534 7.39467,-4.8667 2.15066,-1.6533 4.35866,-3.4133 6.00933,-5.5867 1.77867,-2.3333 2.20267,-4.96 2.132,-7.84 -0.33467,-12.84 -1.024,-25.6933 -1.556,-38.5466 -0.48667,-11.8667 -0.91067,-23.7334 -1.1,-35.6134 3.068,-9.5466 6.06,-19.12 8.95733,-28.7066 4.068,-13.4934 7.96534,-27.0134 11.67867,-40.6 2.08133,-7.5867 4.09867,-15.1867 6.068,-22.8134 3.44133,-10.5066 6.83733,-21.02664 10.02,-31.62664 3.53067,-11.74667 6.80667,-23.57333 9.616,-35.52 2.80933,-11.94667 5.13733,-24.01333 6.76933,-36.18667 1.62534,-12.13333 2.568,-24.34666 2.588,-36.6 0.0187,-9.67999 -0.55733,-19.35999 -1.79066,-28.97333 2.12533,-9.41333 2.13733,-19.26666 1.13866,-28.90666 -1.55066,-15.01334 -5.06133,-29.78667 -7.88266,-44.58667 -3.04934,-15.98667 -5.92134,-32.01333 -8.41467,-48.10666 -2.48,-16.06667 -4.58,-32.18667 -6.072,-48.36 -1.29867,-14 -2.13867,-28.05334 -2.392,-42.10667 4.188,-3.32 8.28667,-6.76 12.28,-10.32 7.83733,-7 15.284,-14.45333 22.28667,-22.28 6.96533,-7.81333 13.5,-16 19.568,-24.53333 6.092,-8.56 11.69733,-17.46667 16.784,-26.66667 2.78266,-5.02666 5.396,-10.14666 7.85733,-15.33333 0.0627,-0.0933 0.11867,-0.17333 0.18267,-0.25333 1.68933,-2.38667 3.20133,-4.93334 3.96133,-7.74667 0.024,-0.04 0.0493,-0.0667 0.068,-0.12 4.656,-11.77333 9.35733,-23.61333 15.924,-34.46667 1.632,-2.70666 3.37866,-5.33333 5.25733,-7.86666 1.84133,-2.49334 3.77733,-4.98667 6.02933,-7.10667 0.53734,-0.50667 1.09467,-0.97333 1.68267,-1.41333 0.33467,-0.25334 0.58133,-0.41334 0.67733,-0.85334 0.088,-0.42666 0.056,-0.93333 0.0747,-1.37333 0.0893,-1.78666 0.15867,-3.56 0.22267,-5.34666 0.0933,-2.86667 0.14533,-5.72 0.176,-8.57334 0.684,-0.21333 1.37333,-0.34666 2.06933,-0.42666 2.556,2.05333 5.13733,4.30666 6.64267,7.25333 0.86666,1.68 1.06933,3.38667 1.03066,5.25333 -0.0373,1.84 0.11467,3.68 1.532,5.04 0.65067,0.6 1.44134,1.05333 2.19467,1.52 0.86,0.53333 1.664,1.13333 2.41067,1.8 1.48,1.32 2.77066,2.84 3.96,4.42667 2.63733,3.49333 5.10533,7.12 7.70533,10.64 5.34533,7.25333 10.87467,14.37333 16.588,21.33333 5.32667,6.49333 10.66667,13.24 17.372,18.4 4.36533,3.36 9.53333,5.97333 14.94933,6.98667 -0.0947,1.65333 0.72134,3.25333 1.95467,4.38666 1.64533,1.50667 3.84667,2.05334 5.87733,2.82667 3.89067,1.48 6.908,4.50667 9.09734,7.97333 2.13866,3.38667 3.28933,7.25334 5.28266,10.70667 0.98667,1.70667 2.20667,3.28 3.78267,4.49333 1.83467,1.4 4.02266,2.21334 6.07866,3.24 3.132,1.57334 6.1,3.42667 8.88267,5.54667 -0.74533,1.66667 -0.99333,3.45333 -0.012,5.22667 1.42267,2.57333 4.52267,3.45333 6.68,5.22666 1.11467,0.90667 2.06267,1.98667 2.84,3.16 -0.005,0.0667 -0.005,0.14667 0,0.21334 0.20933,1.82666 -0.82133,3.4 -1.46,5.02666 -0.71467,1.8 -0.79733,3.69334 -0.336,5.57334 0.60133,2.46666 2.012,4.66666 3.556,6.74666 -0.55733,1.61333 -0.81067,3.24 -0.14667,4.98667 0.86134,2.24 2.91067,3.56 5.036,4.46666 2.6,1.12 5.28267,2 7.832,3.24 1.74,0.84 3.42934,1.78667 5.07334,2.78667 -0.0627,0.52 -0.10667,1.04 -0.13867,1.56 -0.13333,2.52 0.196,5.05333 1,7.42667 -0.804,0.61333 -1.588,1.25333 -2.328,1.93333 -1.65733,1.52 -3.97333,3.50667 -4.264,5.88 -0.18933,1.49333 0.5,2.89333 1.328,4.08 0.70933,1.01333 1.48667,1.98667 2.316,2.90667 -0.0827,1.96 1.65733,3.2 3.39733,3.6 1.04934,0.24 2.176,0.37333 3.25734,0.33333 1.13333,-0.04 2.18933,-0.36 3.27733,-0.64 0.63333,-0.16 1.272,-0.28 1.91067,-0.33333 2.316,1.57333 3.024,4.89333 3.66266,7.48 0.86667,3.49333 1.94934,7.12 3.612,10.32 0.67067,1.29333 1.664,2.44 3.09467,2.86666 0.88533,0.26667 1.78933,0.17334 2.65067,-0.0933 3.04933,5.58667 7.08533,10.97333 12.424,14.4 -0.35334,2.02667 -0.44934,4.09333 0.0507,6.13333 0.75334,3.08 2.76534,5.62667 4.808,7.97334 1.99334,2.28 4.16267,4.69333 6.98534,5.96 1.296,0.57333 2.69466,0.88 4.124,0.70666 0.76,-0.10666 1.456,-0.44 2.208,-0.56 0.81733,-0.13333 1.404,0.44 1.97466,0.94667 2.72,2.41333 5.84534,4.22667 9.33734,5.26667 0.61333,0.18666 1.176,-0.30667 1.20133,-0.92 0.11467,-2.81334 0.17733,-5.64 0.348,-8.46667 0.0827,-1.25333 0.39333,-2.28 1.27867,-3.18667 0.86666,-0.89333 1.91066,-1.64 2.884,-2.41333 1.108,-0.89333 2.22133,-1.77333 3.33466,-2.65333 0.49334,-0.4 0.98667,-0.8 1.48,-1.18667 0.15867,-0.13333 0.60134,-0.61333 0.82934,-0.6 0.088,0 0.284,0.28 0.328,0.32 0.67066,0.73333 1.24666,1.36 2.26533,1.58667 0.49333,0.10666 1.00533,0.10666 1.5,0.0133 0.34133,0.24 0.828,0.30667 1.24533,-0.0133 8.788,-6.86667 16.99333,-14.46667 24.496,-22.72 3.77733,-4.14667 7.24933,-8.52 10.83733,-12.82667 3.47334,-4.18667 7.256,-7.93333 11.65867,-11.13333 8.136,-5.89334 17.404,-10.38667 24.38133,-17.76 1.55734,-1.65334 3.17067,-3.61334 5.308,-4.50667 1.05067,-0.44 2.10134,-0.46667 3.17067,-0.0933 1.18267,0.38666 2.27733,0.90666 3.56133,0.77333 2.36,-0.24 4.16934,-2.01333 5.56134,-3.8 1.61866,-2.08 3.14266,-4.36 4.23733,-6.76 1.096,-2.42667 1.68933,-5.04 1.12667,-7.68 -0.14,-0.65333 -0.36667,-1.29333 -0.38667,-1.97333 -0.0187,-0.66667 0.24667,-1.25334 0.57733,-1.84 0.644,-1.13334 1.37867,-2.24 2.1,-3.34667 2.84,-4.37333 6.44667,-8.77333 11.73734,-10.08 1.21333,-0.29333 2.44,-0.37333 3.68,-0.25333 0.52,0.04 0.94666,-0.48 0.96,-0.96 0,-2.72 -0.73334,-5.4 -2.13334,-7.73333 2.02667,-3.86667 4.09334,-7.70667 6.08,-11.58667 1.84,-3.62667 3.50667,-7.44 3.82667,-11.54667 0.49333,-6.57333 -3.50667,-12.66666 -9.28,-15.6"
     style="fill:#000000;fill-opacity:1;fill-rule:nonzero;stroke:none;stroke-width:0.133333" />
</svg>
