<?xml version="1.0" encoding="UTF-8" standalone="no"?>
<svg
   version="1.1"
   id="number2"
   width="113"
   height="160"
   xmlns="http://www.w3.org/2000/svg"
   xmlns:svg="http://www.w3.org/2000/svg">
  <path
     d="m 41.537491,28.456317 -13.98601,11.003371 c -0.64035,0.512159 -1.30228,0.996479 -1.98398,1.451623 -1.33267,0.881906 -2.51144,1.454977 -3.53631,1.719214 -0.40064,0.107692 -0.81314,0.164471 -1.22785,0.169005 -1.23378,0.01232 -2.4657,-0.09888 -3.67752,-0.331973 -3.80105,-0.775273 -5.90821,-2.904925 -6.3215,-6.388956 -0.0513,-0.443096 -0.0763,-0.888855 -0.0751,-1.334931 -0.0137,-2.781401 1.1089,-5.446726 3.10566,-7.373807 0.19769,-0.200678 0.40142,-0.395258 0.61091,-0.583467 7.6288,-7.204133 14.24674,-12.410732 19.85383,-15.619797 4.56942,-2.6609098 9.51991,-4.5983704 14.67705,-5.7441253 3.17985,-0.6887187 6.42361,-1.0357208 9.67654,-1.0351498 10.08796,-0.1454468 19.96934,2.8770089 28.26447,8.6453621 2.98107,2.040896 5.64548,4.513134 7.90687,7.336586 3.96018,5.0017 6.073609,11.226687 5.980989,17.61666 0.0164,3.948991 -0.34518,7.89042 -1.079629,11.769925 -0.43649,2.269708 -1.02334,4.507616 -1.75663,6.698797 -1.89084,5.632797 -4.75948,10.774007 -8.60593,15.42363 -1.7209,2.040701 -3.58513,3.954944 -5.57838,5.728031 -4.81857,4.347831 -11.23989,9.020591 -19.26394,14.018282 -2.66315,1.675556 -5.30532,3.384508 -7.92591,5.126456 -7.30431,4.866907 -12.48843,8.792227 -15.55236,11.775957 -0.22995,0.22404 -0.45632,0.45176 -0.67903,0.68306 -7.00659,7.13982 -10.85112,16.81581 -10.66402,26.83945 -1.5e-4,0.1898 8.5e-4,0.3796 0.003,0.56939 l 20.14827,-1.86709 c 3.20855,-0.18302 6.41772,-0.35471 9.62747,-0.51506 7.94993,-0.39569 14.12487,-0.61432 18.52482,-0.6559 0.49373,-0.005 0.98748,-0.008 1.48123,-0.008 4.81119,-0.0264 9.5859,0.83952 14.08416,2.55417 1.25167,0.47864 2.46135,1.06145 3.61643,1.74235 3.457189,2.075 5.185789,4.67076 5.185789,7.78727 0.01,2.5292 -0.93381,4.9684 -2.640969,6.82757 -0.81679,0.95088 -1.82515,1.71686 -2.95845,2.24735 -1.1302,0.50758 -2.35644,0.76325 -3.59439,0.74944 -0.54536,-0.005 -1.08962,-0.0502 -1.62845,-0.1348 -1.10766,-0.1643 -2.41496,-0.48051 -3.92189,-0.94863 -0.4504,-0.14011 -0.89878,-0.28666 -1.34502,-0.43961 -2.96645,-1.01537 -5.23219,-1.52305 -6.79721,-1.52305 -0.93518,0.001 -1.87032,0.0139 -2.80521,0.0372 -2.14322,0.051 -4.72844,0.15395 -7.75566,0.30884 -1.46784,0.0754 -2.93539,0.15658 -4.40261,0.24345 -1.56031,0.0928 -3.121,0.179 -4.68204,0.25852 -3.00919,0.15157 -5.58472,0.25117 -7.72661,0.29878 -0.88418,0.0205 -1.76856,0.0312 -2.65298,0.0322 -0.81246,0.003 -1.62466,0.0295 -2.43566,0.0785 -2.32215,0.13212 -5.27559,0.43358 -8.86031,0.90438 -1.16941,0.15415 -2.34022,0.29734 -3.51228,0.42955 -3.28226,0.36818 -5.87716,0.55227 -7.78469,0.55227 -0.22765,-8.8e-4 -0.45518,-0.011 -0.68203,-0.0302 -0.64763,-0.053 -1.46353,-0.17371 -2.44768,-0.36214 -0.32102,-0.0618 -0.64286,-0.11911 -0.96544,-0.17202 -0.68369,-0.11133 -1.2629,-0.18075 -1.73762,-0.20824 -0.14206,-0.008 -0.28433,-0.0128 -0.42664,-0.0131 -3.83175,0 -6.52814,-1.59145 -8.08915,-4.77436 -0.28358,-0.58328 -0.52197,-1.18765 -0.71307,-1.80774 -0.59355,-1.73967 -0.96211,-4.42295 -1.10566,-8.04983 -0.0472,-1.24583 -0.0699,-2.49248 -0.0681,-3.73921 -0.0411,-5.35363 0.54512,-10.69353 1.74662,-15.90952 1.74963,-7.76741 5.42119,-14.96617 10.67503,-20.93035 1.06972,-1.16869 2.206,-2.274101 3.40312,-3.310668 3.9279,-3.475313 10.13589,-8.229893 18.62398,-14.26374 2.84732,-2.021462 5.70903,-4.022401 8.5849,-6.002662 2.1606,-1.483617 4.2984,-3.000473 6.41263,-4.550032 5.83143,-4.285459 9.92057,-7.779215 12.26743,-10.481268 5.50637,-6.021384 8.51527,-13.927883 8.41164,-22.103315 -0.0214,-2.223898 -0.78089,-4.377051 -2.15824,-6.118348 -1.35137,-1.801369 -3.33802,-3.495098 -5.95996,-5.081188 -1.88515,-1.183187 -3.88589,-2.169487 -5.97097,-2.943486 -2.56472,-0.959678 -5.2772,-1.459856 -8.01404,-1.47778 -5.63153,0.01513 -11.15255,1.571088 -15.96998,4.500738 -0.38608,0.2285 -0.76805,0.463936 -1.14573,0.706196 z"
     vector-effect="non-scaling-stroke"
     id="two"
     style="fill:#000000;stroke:#000000;stroke-width:0.250934mm" />
  <path
     d="m 88.547252,144.37083 a 4181.1895,1891.1484 59.854528 0 1 -18.92305,-26.6791 Q 28.134352,58.953559 10.822212,32.026991 A 50.372714,22.783536 59.854527 0 1 10.044182,30.78586 Q -1.1411384,12.673644 4.2358316,5.121138 a 31.92299,14.438739 59.854526 0 1 1.87418,-1.8686123 Q 10.940842,0.09925099 19.269482,9.3686595 a 42.197528,19.085906 59.854527 0 1 5.75001,7.2908175 708.09512,320.27081 59.854526 0 1 6.71026,9.513319 q 12.06289,17.226392 31.33817,45.515065 25.17829,36.948629 38.049218,55.027219 a 37.709361,17.055915 59.854525 0 1 4.87533,7.62901 q 5.30081,9.52462 4.36045,15.79918 a 29.589731,13.383411 59.854528 0 1 -1.83526,4.62121 33.118862,14.979631 59.854528 0 1 -2.05862,2.01983 q -4.69565,2.92593 -12.372898,-5.4494 a 37.463759,16.944825 59.854528 0 1 -5.53889,-6.96408 z"
     vector-effect="non-scaling-stroke"
     id="slash"
     style="fill:#ff0000;stroke:#000000;stroke-width:4.99991;stroke-dasharray:none" />
</svg>
