<?xml version="1.0" encoding="UTF-8" standalone="no"?>
<svg
   ersion="1.1"
   id="number1"
   width="113"
   height="160"
   xmlns="http://www.w3.org/2000/svg"
   xmlns:svg="http://www.w3.org/2000/svg">
  <path
     d="M 78.456298,155.38238 H 58.993059 l -19.364091,-0.0986 c -1.055831,0.002 -2.111604,-0.0163 -3.166757,-0.0543 -2.909705,-0.11065 -5.049253,-0.38696 -6.418644,-0.82892 -2.696718,-0.95635 -4.299793,-2.77415 -4.809225,-5.4534 -0.12235,-0.66386 -0.182037,-1.33783 -0.178267,-2.01296 0,-6.37587 4.754476,-9.67916 14.263429,-9.90987 0.363814,-0.009 0.727721,-0.0131 1.09164,-0.0131 l 4.694051,0.0986 4.010025,0.19616 c -0.0019,-0.88013 -0.01922,-1.76016 -0.05208,-2.63968 -0.103489,-2.92269 -0.363212,-6.69276 -0.77917,-11.31019 -0.554166,-6.15658 -0.831249,-10.77368 -0.831249,-13.8513 0.0051,-2.35027 0.05188,-4.70027 0.14021,-7.04887 0.281758,-7.859362 0.984815,-18.150167 2.10917,-30.872416 0.32449,-3.761357 0.624614,-7.524795 0.900353,-11.290074 0.771826,-10.598968 1.157739,-19.124954 1.157739,-25.577957 1.13e-4,-0.383616 -0.0012,-0.767232 -0.004,-1.150838 -8.737126,6.811802 -14.311834,10.217703 -16.724124,10.217703 -2.608587,0 -4.874324,-0.982503 -6.797213,-2.94751 -0.829223,-0.829983 -1.51316,-1.794491 -2.023039,-2.85295 -0.576431,-1.227075 -0.871116,-2.56853 -0.862296,-3.92532 0.0269,-1.045944 0.293898,-2.071521 0.780173,-2.996804 1.188452,-2.417697 3.731939,-5.151941 7.630463,-8.202732 0.984703,-0.698873 1.956983,-1.415241 2.916382,-2.148765 3.190793,-2.431781 7.206826,-5.710593 12.048099,-9.836438 5.737286,-5.8292989 11.214181,-8.7439483 16.430684,-8.7439483 0.934497,-0.016962 1.864888,0.1283588 2.750133,0.429552 2.40094,0.8671517 3.664838,3.0467674 3.791695,6.538847 0.0073,0.1987643 0.01096,0.3976453 0.01102,0.5965441 -0.0021,0.4822132 -0.01775,0.9642702 -0.04707,1.4455882 -0.07879,1.380871 -0.258722,3.142 -0.539811,5.283389 -0.09196,0.698336 -0.177425,1.39752 -0.256385,2.09746 -0.164247,1.461349 -0.267402,2.691994 -0.309465,3.691934 -0.0135,0.313349 -0.02052,0.626946 -0.02103,0.940588 6.71e-4,0.610014 0.0077,1.220004 0.02103,1.829871 0.04273,2.026037 0.148893,4.67142 0.318479,7.936149 l 0.003,0.05734 c 0.05349,1.027251 0.103229,2.054694 0.149225,3.082311 0.127525,2.856973 0.191621,5.0946 0.192288,6.712881 l 0.001,0.02917 c -0.0054,2.096586 -0.05449,4.19283 -0.147222,6.287353 -0.201635,4.795154 -0.61125,10.56577 -1.228845,17.311848 -0.301006,3.269652 -0.624834,6.537144 -0.97146,9.802235 -0.368369,3.466653 -0.710893,6.936028 -1.027543,10.407833 -0.604909,6.677671 -1.001839,12.371833 -1.19079,17.082486 -0.08162,1.93679 -0.124694,3.87502 -0.129193,5.81353 0.0028,1.54011 0.03949,3.07997 0.110165,4.61844 0.06076,1.37886 0.147223,2.83786 0.259389,4.37701 0.118986,1.62015 0.256535,3.23888 0.412621,4.85585 0.522117,5.43629 0.815558,9.88975 0.880322,13.36037 l 10.269427,-0.19617 c 1.166809,-0.0119 2.327113,0.17589 3.431155,0.5553 1.269484,0.45011 2.4205,1.18419 3.366057,2.14676 1.745458,1.73447 2.715786,4.10596 2.68904,6.57204 6.77e-4,0.0523 0.001,0.10462 0.001,0.15693 0.01155,1.13046 -0.162373,2.25511 -0.514773,3.32878 -0.44248,1.30684 -1.188091,2.48921 -2.175269,3.44949 -1.792693,1.76851 -4.05843,2.65276 -6.797212,2.65276 z"
     vector-effect="non-scaling-stroke"
     id="one"
     style="fill:#000000;stroke:#000000;stroke-width:0.250934mm" />
  <path
     d="m 88.547252,143.40958 a 4181.1895,1891.1484 59.854528 0 1 -18.92305,-26.6791 Q 28.134352,57.992309 10.822212,31.065741 A 50.372714,22.783536 59.854527 0 1 10.044182,29.82461 Q -1.1411384,11.712394 4.2358316,4.1598879 a 31.92299,14.438739 59.854526 0 1 1.87418,-1.8686123 Q 10.940842,-0.86199913 19.269482,8.4074094 a 42.197528,19.085906 59.854527 0 1 5.75001,7.2908176 708.09512,320.27081 59.854526 0 1 6.71026,9.513319 q 12.06289,17.226392 31.33817,45.515065 25.17829,36.948629 38.049218,55.027219 a 37.709361,17.055915 59.854525 0 1 4.87533,7.62901 q 5.30081,9.52462 4.36045,15.79918 a 29.589731,13.383411 59.854528 0 1 -1.83526,4.62121 33.118862,14.979631 59.854528 0 1 -2.05862,2.01983 q -4.69565,2.92593 -12.372898,-5.4494 a 37.463759,16.944825 59.854528 0 1 -5.53889,-6.96408 z"
     vector-effect="non-scaling-stroke"
     id="slash"
     style="fill:#ff0000;stroke:#000000;stroke-width:4.99991;stroke-dasharray:none" />
</svg>
