<?xml version="1.0" encoding="UTF-8" standalone="no"?>
<svg
   width="800"
   height="160"
   viewBox="0 0 800.00002 160"
   version="1.1"
   id="svg1"
   sodipodi:docname="1 2 3 4 B.svg"
   inkscape:version="1.3.2 (091e20e, 2023-11-25, custom)"
   xmlns:inkscape="http://www.inkscape.org/namespaces/inkscape"
   xmlns:sodipodi="http://sodipodi.sourceforge.net/DTD/sodipodi-0.dtd"
   xmlns="http://www.w3.org/2000/svg"
   xmlns:svg="http://www.w3.org/2000/svg">
  <defs
     id="defs1" />
  <sodipodi:namedview
     id="namedview1"
     pagecolor="#ffffff"
     bordercolor="#000000"
     borderopacity="0.25"
     inkscape:showpageshadow="2"
     inkscape:pageopacity="0.0"
     inkscape:pagecheckerboard="0"
     inkscape:deskcolor="#d1d1d1"
     inkscape:zoom="1.0023498"
     inkscape:cx="388.5869"
     inkscape:cy="70.334727"
     inkscape:window-width="2256"
     inkscape:window-height="1410"
     inkscape:window-x="-11"
     inkscape:window-y="-11"
     inkscape:window-maximized="1"
     inkscape:current-layer="svg1" />
  <path
     d="m 182.59905,28.456317 -13.98601,11.003371 a 28.610982,28.738735 0 0 1 -1.98398,1.451623 q -1.99901,1.322859 -3.53631,1.719214 a 4.9584491,4.9805894 0 0 1 -1.22785,0.169005 18.5719,18.654827 0 0 1 -3.67752,-0.331973 q -5.70157,-1.162909 -6.3215,-6.388956 a 11.240887,11.291079 0 0 1 -0.0751,-1.334931 10.11119,10.156339 0 0 1 3.10566,-7.373807 13.831779,13.893541 0 0 1 0.61091,-0.583467 q 11.4432,-10.806199 19.85383,-15.619797 a 51.392207,51.621682 0 0 1 14.67705,-5.7441253 45.869911,46.074728 0 0 1 9.67654,-1.0351498 48.434764,48.651033 0 0 1 28.26447,8.6453621 36.614006,36.777493 0 0 1 7.90687,7.336586 27.532362,27.655299 0 0 1 5.98099,17.61666 61.357177,61.631148 0 0 1 -1.07963,11.769925 51.711687,51.942588 0 0 1 -1.75663,6.698797 q -2.83626,8.449196 -8.60593,15.42363 a 55.74775,55.996673 0 0 1 -5.57838,5.728031 q -7.22786,6.521746 -19.26394,14.018282 a 376.8231,378.50569 0 0 0 -7.92591,5.126456 q -10.95646,7.300367 -15.55236,11.775957 a 30.082193,30.216515 0 0 0 -0.67903,0.68306 37.072694,37.23823 0 0 0 -10.66402,26.83945 46.438765,46.646122 0 0 0 0.003,0.56939 l 20.14827,-1.86709 a 1370.6982,1376.8186 0 0 1 9.62747,-0.51506 q 11.9249,-0.59353 18.52482,-0.6559 a 157.33136,158.03387 0 0 1 1.48123,-0.008 39.094732,39.269297 0 0 1 14.08416,2.55417 24.053135,24.160537 0 0 1 3.61643,1.74235 q 5.18579,3.1125 5.18579,7.78727 a 9.9689765,10.01349 0 0 1 -2.64097,6.82757 8.8382778,8.8777422 0 0 1 -2.95845,2.24735 8.5728791,8.6111584 0 0 1 -3.59439,0.74944 11.22286,11.272973 0 0 1 -1.62845,-0.1348 q -1.66149,-0.24645 -3.92189,-0.94863 a 49.635568,49.8572 0 0 1 -1.34502,-0.43961 q -4.44968,-1.52305 -6.79721,-1.52305 a 120.39488,120.93246 0 0 0 -2.80521,0.0372 q -3.21483,0.0765 -7.75566,0.30884 a 568.00633,570.54257 0 0 0 -4.40261,0.24345 552.24765,554.71353 0 0 1 -4.68204,0.25852 q -4.51378,0.22736 -7.72661,0.29878 a 121.15501,121.696 0 0 1 -2.65298,0.0322 43.443265,43.637247 0 0 0 -2.43566,0.0785 q -3.48323,0.19818 -8.86031,0.90438 a 189.69198,190.53899 0 0 1 -3.51228,0.42955 q -4.92339,0.55227 -7.78469,0.55227 a 8.4907557,8.5286684 0 0 1 -0.68203,-0.0302 q -0.97145,-0.0795 -2.44768,-0.36214 a 35.836838,35.996856 0 0 0 -0.96544,-0.17202 q -1.02554,-0.167 -1.73762,-0.20824 a 7.5212994,7.5548832 0 0 0 -0.42664,-0.0131 q -5.74763,0 -8.08915,-4.77436 a 12.575893,12.632046 0 0 1 -0.71307,-1.80774 q -0.89033,-2.60951 -1.10566,-8.04983 a 94.384795,94.806239 0 0 1 -0.0681,-3.73921 67.938064,68.241419 0 0 1 1.74662,-15.90952 47.144826,47.355336 0 0 1 10.67503,-20.93035 40.891432,41.074019 0 0 1 3.40312,-3.310668 q 5.89185,-5.21297 18.62398,-14.26374 a 729.75431,733.0128 0 0 1 8.5849,-6.002662 255.64907,256.79058 0 0 0 6.41263,-4.550032 q 8.74714,-6.428189 12.26743,-10.481268 a 31.927965,32.070529 0 0 0 8.41164,-22.103315 9.9459419,9.9903522 0 0 0 -2.15824,-6.118348 q -2.02705,-2.702053 -5.95996,-5.081188 a 32.581948,32.727432 0 0 0 -5.97097,-2.943486 23.394145,23.498604 0 0 0 -8.01404,-1.47778 30.995565,31.133966 0 0 0 -15.96998,4.500738 37.480307,37.647663 0 0 0 -1.14573,0.706196 z m 166.06948,96.078803 4.49877,6.77827 a 20.992537,21.086273 0 0 0 8.21133,6.6656 25.488291,25.602101 0 0 0 1.27591,0.5553 q 5.96597,2.4073 14.27946,2.4073 a 28.384643,28.511384 0 0 0 18.68007,-6.68069 25.070664,25.182608 0 0 0 5.43015,-6.13545 20.713118,20.805605 0 0 0 3.07863,-11.15426 32.374637,32.519195 0 0 0 -1.89686,-11.35446 28.235418,28.361494 0 0 0 -8.95945,-12.322212 39.830838,40.00869 0 0 0 -11.74865,-6.379903 q -6.12921,-2.156813 -13.67955,-2.952541 -10.85632,-1.080419 -10.85632,-8.841527 0,-5.796436 8.50879,-8.841527 l 23.37511,-5.796436 a 30.864368,31.002182 0 0 0 4.59391,-2.083378 q 3.43816,-1.938516 5.57738,-4.548019 a 15.362079,15.430673 0 0 0 3.40811,-8.328479 19.857833,19.946502 0 0 0 0.11317,-1.838925 20.931445,21.024908 0 0 0 0.005,-0.477839 q 0,-8.314396 -6.65599,-13.472037 -7.13973,-5.501685 -20.04912,-5.501685 a 27.744681,27.868566 0 0 0 -12.51881,3.042072 32.301527,32.445759 0 0 0 -0.39159,0.20019 l -11.05161,6.974435 q -3.22785,2.063258 -5.18378,2.063258 a 8.7861996,8.8254315 0 0 1 -6.43567,-2.722173 11.386106,11.436947 0 0 1 -0.2644,-0.273626 10.56988,10.617075 0 0 1 -2.04607,-3.099413 9.4021249,9.444107 0 0 1 -0.74112,-3.729154 9.3400316,9.3817365 0 0 1 1.93291,-5.501686 q 3.44517,-4.835729 13.03158,-9.430023 a 91.167962,91.575043 0 0 1 7.318,-3.229185 q 7.32299,-2.8237759 12.82826,-3.1215449 a 23.666554,23.77223 0 0 1 1.27192,-0.035209 q 15.85281,0 26.75919,5.3045149 a 39.538398,39.714944 0 0 1 6.59191,4.027929 32.443741,32.588607 0 0 1 12.97048,23.807439 47.344126,47.555525 0 0 1 0.23335,4.7804 43.468303,43.662396 0 0 1 -1.39008,11.450024 q -3.63346,13.437833 -16.7732,18.834897 a 36.977552,37.142663 0 0 1 -0.41963,0.17001 41.473306,41.658491 0 0 1 -1.7256,0.665956 q -0.85628,0.309842 -1.81372,0.620688 a 67.408268,67.709258 0 0 1 -0.27441,0.08853 47.344126,47.555525 0 0 1 9.6485,4.803537 34.587962,34.742403 0 0 1 9.81373,9.588969 36.389669,36.552154 0 0 1 5.37908,13.005263 q 1.07562,5.06107 1.07562,10.91585 a 44.240463,44.438004 0 0 1 -13.16577,32.43067 53.02466,53.261423 0 0 1 -0.42865,0.43056 45.324091,45.52647 0 0 1 -32.84935,13.50724 56.69918,56.952351 0 0 1 -0.30546,0.001 q -14.76818,0 -26.50482,-6.18977 a 40.54391,40.724945 0 0 1 -10.41565,-7.91904 34.52687,34.681039 0 0 1 -7.38509,-12.2196 11.511293,11.562693 0 0 1 -0.50376,-2.1719 9.8087358,9.8525335 0 0 1 -0.0821,-1.26652 8.2023225,8.2389472 0 0 1 2.57787,-6.1606 10.201326,10.246876 0 0 1 0.40461,-0.37221 q 2.98348,-2.60347 6.89536,-2.60347 a 7.8227522,7.8576821 0 0 1 5.40813,2.17391 11.756663,11.809158 0 0 1 1.34,1.46068 z m 351.99381,23.28333 v -28.58784 a 300.56755,301.90963 0 0 1 0.11016,-7.77319 q 0.22635,-8.78921 0.92139,-20.764358 a 1203.6783,1209.0529 0 0 1 0.72909,-11.544585 q 1.88284,-27.047689 2.13421,-39.709915 a 221.05309,222.04013 0 0 0 0.017,-0.961714 q -0.0761,-7.082074 0.62795,-19.595415 a 781.33981,784.82863 0 0 1 0.44766,-7.322502 16.577905,16.651928 0 0 1 0.48573,-2.3419141 q 0.8643,-2.9807083 2.74212,-4.1416052 a 89.657694,90.058031 0 0 1 15.63049,-3.2784772 120.73738,121.2765 0 0 1 14.59092,-0.84803811 51.799819,52.031114 0 0 1 25.04963,6.63139671 68.234509,68.539188 0 0 1 8.00803,5.1576419 51.415242,51.64482 0 0 1 10.41264,10.074854 37.373146,37.540024 0 0 1 7.87583,23.425168 51.746739,51.977797 0 0 1 -3.35303,19.072308 q -4.67203,12.005322 -15.85082,20.447477 a 58.316609,58.577003 0 0 1 -0.35654,0.26759 100.04029,100.48699 0 0 1 9.02356,4.379016 q 4.30047,2.381146 7.68154,4.933307 a 42.763243,42.954189 0 0 1 5.2519,4.637553 29.116742,29.246754 0 0 1 4.58087,6.196812 21.582424,21.678793 0 0 1 2.70507,10.50441 23.702608,23.808444 0 0 1 -3.38008,12.00431 q -3.20081,5.58418 -9.43217,10.98325 a 68.112326,68.416459 0 0 1 -10.87835,7.91302 56.96558,57.219941 0 0 1 -7.80171,3.77744 111.24813,111.74487 0 0 1 -19.47626,5.51678 q -9.85281,1.90632 -21.34807,2.65075 a 239.72714,240.79757 0 0 1 -15.41216,0.47783 9.3270121,9.3686587 0 0 1 -4.83926,-1.40233 q -1.60242,-0.9597 -3.13171,-2.57631 -3.01854,-3.18894 -3.61744,-6.53482 a 9.3620647,9.4038679 0 0 1 -0.14822,-1.6679 z m -106.508,-35.4647 v 36.34794 q 0,7.21285 -5.54634,8.73188 a 12.770185,12.827206 0 0 1 -3.35304,0.4054 10.567877,10.615063 0 0 1 -4.89535,-1.06532 q -5.47223,-2.82982 -5.47223,-13.1803 a 42.574961,42.765066 0 0 1 0.012,-0.97581 q 0.025,-1.10154 0.10215,-2.59542 a 166.35591,167.09872 0 0 1 0.0811,-1.43854 232.92192,233.96195 0 0 0 0.0811,-1.40635 q 0.11517,-2.11155 0.11517,-3.01492 l -0.0981,-22.30048 -43.13078,-1.08043 q -12.93544,0 -18.21437,-0.82388 a 26.631008,26.74992 0 0 1 -0.36856,-0.0604 22.708115,22.80951 0 0 1 -3.24888,-0.76455 q -3.82674,-1.23634 -5.0626,-3.64565 a 5.4912495,5.5157689 0 0 1 -0.58889,-2.56424 9.6975688,9.7408701 0 0 1 0.55183,-3.074266 q 1.17177,-3.517899 4.82725,-8.125271 l 8.41164,-10.020533 48.11929,-70.536051 a 24.400657,24.50961 0 0 1 5.13372,-5.3638662 18.677059,18.760455 0 0 1 11.49226,-3.7724117 18.536848,18.619619 0 0 1 4.17126,0.4285459 q 6.88035,1.6015146 6.88035,9.198649 v 81.637002 a 50.138323,50.362199 0 0 1 1.34401,-0.05935 q 1.1988,-0.03823 2.666,-0.03823 11.06663,0 15.32804,3.67785 a 7.5543489,7.5880804 0 0 1 2.668,6.047932 9.9419358,9.9863283 0 0 1 -0.65498,3.74022 q -1.08763,2.72519 -3.98298,4.18486 a 13.540342,13.600802 0 0 1 -2.7952,1.01403 12.454711,12.510323 0 0 1 -1.49125,0.28268 q -3.44217,0.46677 -10.99151,0.27262 a 229.35156,230.37565 0 0 1 -2.09013,-0.0634 z M 54.476573,155.38238 H 35.013334 l -19.364091,-0.0986 a 84.195488,84.571435 0 0 1 -3.166757,-0.0543 Q 8.1179284,155.0635 6.0638426,154.40056 2.0187657,152.96604 1.2546177,148.94716 A 10.680044,10.727733 0 0 1 1.0763499,146.9342 q 0,-9.56381 14.2634291,-9.90987 a 45.199904,45.40173 0 0 1 1.09164,-0.0131 l 4.694051,0.0986 4.010025,0.19616 a 74.283597,74.615286 0 0 0 -0.05208,-2.63968 q -0.155233,-4.38404 -0.77917,-11.31019 -0.831249,-9.23487 -0.831249,-13.8513 a 197.35849,198.23973 0 0 1 0.14021,-7.04887 q 0.422637,-11.789043 2.10917,-30.872416 A 866.59689,870.4664 0 0 0 26.622729,60.29346 q 1.157739,-15.898452 1.157739,-25.577957 a 151.2322,151.90748 0 0 0 -0.004,-1.150838 q -13.105689,10.217703 -16.724124,10.217703 -3.9128795,0 -6.7972126,-2.94751 a 10.411641,10.458131 0 0 1 -2.0230393,-2.85295 9.0195502,9.059824 0 0 1 -0.8622955,-3.92532 6.7651633,6.795371 0 0 1 0.7801722,-2.996804 q 1.7826781,-3.626545 7.6304633,-8.202732 a 101.93213,102.38728 0 0 0 2.9163819,-2.148765 q 4.78619,-3.647671 12.048099,-9.836438 8.605929,-8.7439483 16.430684,-8.7439483 a 8.1151916,8.1514272 0 0 1 2.750133,0.429552 q 3.60141,1.3007276 3.791695,6.538847 a 16.294479,16.367237 0 0 1 0.01102,0.5965441 25.338066,25.451204 0 0 1 -0.04707,1.4455882 q -0.118177,2.071306 -0.539811,5.283389 a 112.64322,113.14619 0 0 0 -0.256385,2.09746 q -0.24637,2.192024 -0.309465,3.691934 a 22.506813,22.607309 0 0 0 -0.02103,0.940588 87.269105,87.658776 0 0 0 0.02103,1.829871 q 0.0641,3.039055 0.318479,7.936149 a 562.09544,564.60529 0 0 0 0.003,0.05734 419.45816,421.3311 0 0 1 0.149225,3.082311 q 0.191287,4.28546 0.192288,6.712881 a 60.412759,60.682512 0 0 1 10e-4,0.02917 149.61977,150.28786 0 0 1 -0.147222,6.287353 q -0.302453,7.192731 -1.228845,17.311848 a 699.27152,702.39388 0 0 1 -0.97146,9.802235 695.36566,698.47058 0 0 0 -1.027543,10.407833 q -0.907364,10.016507 -1.19079,17.082486 a 144.83258,145.47929 0 0 0 -0.129193,5.81353 103.80494,104.26845 0 0 0 0.110165,4.61844 q 0.09114,2.06829 0.259389,4.37701 a 210.74561,211.68662 0 0 0 0.412621,4.85585 q 0.783176,8.15444 0.880322,13.36037 l 10.269427,-0.19617 a 10.27744,10.323331 0 0 1 3.431155,0.5553 8.8823441,8.9220052 0 0 1 3.366057,2.14676 9.0646178,9.1050929 0 0 1 2.68904,6.57204 11.843793,11.896678 0 0 1 10e-4,0.15693 10.248396,10.294157 0 0 1 -0.514773,3.32878 8.664016,8.7027023 0 0 1 -2.175269,3.44949 q -2.689039,2.65276 -6.797212,2.65276 z M 724.1346,21.678047 l -0.19529,17.192138 -1.95593,38.018869 q 13.48725,1.144801 14.79922,1.085448 a 1.2608943,1.2665243 0 0 0 0.0671,-0.005 50.02315,50.246512 0 0 0 11.40514,-2.186993 36.747205,36.911288 0 0 0 12.75216,-7.04787 27.983039,28.107988 0 0 0 10.01203,-20.378065 35.707644,35.867084 0 0 0 0.0611,-2.118587 17.496285,17.574408 0 0 0 -3.07062,-9.796199 q -1.74962,-2.672879 -4.49575,-5.212969 a 40.592983,40.774237 0 0 0 -2.70206,-2.280549 39.992081,40.170652 0 0 0 -9.7166,-5.64554 32.375638,32.520201 0 0 0 -11.99601,-2.312741 q -10.48376,0 -14.81927,0.664951 a 23.478271,23.583106 0 0 0 -0.14522,0.02314 z M 575.18082,92.902187 V 29.241984 a 2822.1467,2834.7481 0 0 1 -12.34153,19.611512 q -11.99002,18.8691 -20.93746,32.148996 a 639.62491,642.48095 0 0 1 -7.50527,10.916856 z m 174.87172,6.778269 -10.36658,-1.669921 a 31.686603,31.828089 0 0 0 -0.71807,0.0091 q -1.18679,0.02716 -3.09966,0.135807 a 188.18672,189.027 0 0 0 -0.0461,0.002 144.9117,145.55876 0 0 1 -1.21883,0.06438 q -1.71457,0.0835 -2.74212,0.0835 a 71.673676,71.993712 0 0 1 -6.86931,-0.345049 87.519481,87.91027 0 0 1 -4.37759,-0.539204 565.24217,567.76607 0 0 0 -0.42163,11.021481 q -0.14422,5.17575 -0.16325,9.7791 a 328.31122,329.77719 0 0 0 -0.002,1.30375 v 20.33479 q 25.6245,-0.88324 41.76175,-7.26917 a 40.360635,40.540851 0 0 0 9.03556,-4.96751 50.066215,50.289769 0 0 0 4.07012,-3.28452 49.402218,49.622807 0 0 0 2.17727,-1.9697 q 3.78869,-3.65773 3.78869,-5.69282 a 4.6660098,4.6868443 0 0 0 -1.01753,-2.72921 q -2.1322,-2.95758 -8.72511,-6.33564 a 77.877997,78.225736 0 0 0 -2.77617,-1.34902 103.88907,104.35295 0 0 0 -11.54534,-4.64358 86.288632,86.673926 0 0 0 -6.74413,-1.938528 z"
     vector-effect="non-scaling-stroke"
     id="path1"
     style="fill:#000000;stroke:#000000;stroke-width:0.250934mm" />
  <path
     d="M 590.15865,144.37083 A 4181.1895,1891.1484 59.854528 0 1 571.2356,117.69173 Q 529.74575,58.953559 512.43361,32.026991 A 50.372714,22.783536 59.854527 0 1 511.65558,30.78586 Q 500.47026,12.673644 505.84723,5.121138 a 31.92299,14.438739 59.854526 0 1 1.87418,-1.8686123 q 4.83083,-3.15327471 13.15947,6.1161338 a 42.197528,19.085906 59.854527 0 1 5.75001,7.2908175 708.09512,320.27081 59.854526 0 1 6.71026,9.513319 q 12.06289,17.226392 31.33817,45.515065 25.17829,36.948629 38.04922,55.027219 a 37.709361,17.055915 59.854525 0 1 4.87533,7.62901 q 5.30081,9.52462 4.36045,15.79918 a 29.589731,13.383411 59.854528 0 1 -1.83526,4.62121 33.118862,14.979631 59.854528 0 1 -2.05862,2.01983 q -4.69565,2.92593 -12.3729,-5.4494 a 37.463759,16.944825 59.854528 0 1 -5.53889,-6.96408 z"
     vector-effect="non-scaling-stroke"
     id="path1-8"
     style="fill:#ff0000;stroke:#000000;stroke-width:4.99991;stroke-dasharray:none"
     inkscape:label="path2" />
</svg>
