<?xml version="1.0" encoding="UTF-8" standalone="no"?>
<!-- Created with Inkscape (http://www.inkscape.org/) -->

<svg
   version="1.1"
   id="svg1"
   width="3998.6667"
   height="4000"
   viewBox="0 0 3998.6667 4000"
   sodipodi:docname="baseball-player-silhouettes.svg"
   inkscape:version="1.3.2 (091e20e, 2023-11-25, custom)"
   xmlns:inkscape="http://www.inkscape.org/namespaces/inkscape"
   xmlns:sodipodi="http://sodipodi.sourceforge.net/DTD/sodipodi-0.dtd"
   xmlns="http://www.w3.org/2000/svg"
   xmlns:svg="http://www.w3.org/2000/svg">
  <defs
     id="defs1" />
  <sodipodi:namedview
     id="namedview1"
     pagecolor="#ffffff"
     bordercolor="#000000"
     borderopacity="0.25"
     inkscape:showpageshadow="2"
     inkscape:pageopacity="0.0"
     inkscape:pagecheckerboard="0"
     inkscape:deskcolor="#d1d1d1"
     inkscape:zoom="0.28284427"
     inkscape:cx="1999.3334"
     inkscape:cy="1999.3334"
     inkscape:window-width="2256"
     inkscape:window-height="1410"
     inkscape:window-x="-11"
     inkscape:window-y="-11"
     inkscape:window-maximized="1"
     inkscape:current-layer="svg1">
    <inkscape:page
       x="0"
       y="0"
       inkscape:label="1"
       id="page1"
       width="3998.6667"
       height="4000"
       margin="0"
       bleed="0" />
  </sodipodi:namedview>
  <path
     id="path3"
     d="m 15216.7,22722.9 -45.9,-37.2 c -15.9,3.9 -39.7,-8 -39.7,-8 -39.7,-19.9 -71.5,-91.4 -71.5,-91.4 l -71.6,-43.7 c -15.9,4 -35.7,0 -35.7,0 -59.7,-15.9 -55.7,-79.5 -55.7,-79.5 -9.6,-4.8 -27.8,-22.5 -40.8,-35.9 -8.8,-9.2 -21.4,-13.8 -34.1,-12.3 -25.4,3 -48.3,0.5 -48.3,0.5 -19.9,23.9 -79.5,23.9 -79.5,23.9 -111.2,59.6 -139.1,19.8 -139.1,19.8 -55.6,-75.5 -135.1,-99.3 -135.1,-99.3 l -115.2,-23.9 -89.2,-3.5 c -6,-0.3 -12,0.9 -17.3,3.6 -51.1,25.6 -291,103.3 -291,103.3 -93.7,45.1 -214.6,53.8 -243.8,55.3 -4.4,0.3 -8.6,1.6 -12.4,3.7 -74.1,41.3 -173,53 -201,55.6 -4.5,0.4 -8.7,2 -12.2,4.8 -31.7,25.7 -164.8,78.5 -205.9,94.4 -7.1,2.8 -12.3,8.9 -13.9,16.3 -10.3,47.5 -57.9,91.8 -57.9,91.8 l 63.6,47.7 c 31.8,19.8 51.7,-4 51.7,-4 11.9,-15.9 83.4,-59.6 83.4,-59.6 39.7,-39.8 91.4,-39.8 91.4,-39.8 l 59.6,-55.6 c 76.4,-7.4 142.8,38.7 183.9,128.8 6.5,14.1 21.8,21.7 37.1,19.1 84.2,-14.2 263.9,11.1 263.9,11.1 75.8,10.3 229.4,2.7 268.8,0.5 5.6,-0.3 11,-1.1 16.5,-2.3 69.9,-15.9 342.6,-38 342.6,-38 95.4,-19.9 584.2,-19.9 584.2,-19.9 h 1 c 13.8,-0.1 19.8,-17.6 9.1,-26.3 z m 2819.5,-5295.1 v 23.9 l -35.7,11.9 -4,51.6 c -11.9,91.4 -159,71.6 -159,71.6 -23.8,19.8 -47.7,7.9 -47.7,7.9 -47.7,75.5 -87.4,67.6 -87.4,67.6 -91.4,-8 -162.9,4 -162.9,4 l -27.9,27.8 c -35.7,43.7 -174.8,19.8 -174.8,19.8 -27.8,47.7 -75.5,35.8 -75.5,35.8 l -15.9,11.9 c -95.4,83.5 -139.1,51.7 -139.1,51.7 -35.8,-15.9 -51.7,4 -51.7,4 -71.5,79.5 -174.9,55.6 -174.9,55.6 -51.6,0 -83.4,31.8 -83.4,31.8 -67.6,75.5 -417.3,210.6 -417.3,210.6 l -63.6,43.8 c -155,190.7 -691.5,290.1 -691.5,290.1 -4,83.4 -99.4,79.5 -99.4,79.5 0,19.8 -15.9,23.8 -15.9,23.8 4,47.7 -67.5,39.7 -67.5,39.7 v 35.8 c 67.5,39.7 75.5,87.4 75.5,87.4 7.9,43.8 -19.9,67.6 -19.9,67.6 15.9,11.9 11.9,31.8 11.9,31.8 v 59.6 c 51.7,43.7 43.8,151 43.8,151 55.6,155 47.6,445.1 47.6,445.1 43.8,12 43.8,47.7 43.8,47.7 3.9,23.9 -23.9,51.7 -23.9,51.7 -4,15.9 11.9,23.8 11.9,23.8 103.4,4 218.6,190.8 218.6,190.8 43.7,11.9 87.5,67.6 87.5,67.6 l 67.5,95.3 c 75.5,95.4 79.5,190.8 79.5,190.8 111.3,131.2 131.1,413.3 131.1,413.3 12,131.2 -23.8,186.8 -23.8,186.8 v 47.7 c 186.8,59.6 206.7,182.8 206.7,182.8 75.5,23.9 59.6,282.2 59.6,282.2 63.6,75.5 131.1,286.1 131.1,286.1 95.4,103.3 190.8,453.1 190.8,453.1 87.4,107.3 135.1,345.7 135.1,345.7 55.6,55.7 83.5,131.2 83.5,131.2 35.7,143.1 -5.5,329.1 -55.7,548.4 -27.8,115.3 -59.6,214.6 -143,321.9 -63.6,83.5 -130.2,159.9 -401.4,143.1 -4,59.6 -23.9,111.3 -23.9,111.3 -159,381.5 -699.4,453 -997.5,306 -115.3,-55.7 -181.5,-160.6 -230.5,-314 -200.9,-22.8 -299.4,-110.6 -310,-254.3 -131.1,3.9 -262.3,-35.8 -262.3,-35.8 -127.2,19.9 -421.3,-23.8 -421.3,-23.8 -39.7,0 -178.8,-8 -178.8,-8 -151,27.8 -226.5,-19.9 -226.5,-19.9 l -31.8,4 c -62.9,6.9 -123.5,9 -166.9,-23.8 -15.9,-4 -47.7,-31.8 -47.7,-31.8 -55.7,11.9 -182.8,-4 -182.8,-4 -35.8,-4 -66.5,-41.5 -111.3,-119.2 l -1347.3,747.1 c -306,170.9 -528.5,357.7 -699.4,441.2 l -751.1,421.2 c -87.5,55.7 -176.1,70.6 -250.4,-35.7 -60.7,-98.2 -55.7,-170.9 19.9,-214.6 l 123.2,-67.6 c 691.5,-389.5 1490.3,-703.4 1490.3,-703.4 l 349.7,-167 759.1,-401.3 270.2,-139.2 -59.6,-67.5 c -12.4,-12.4 -17.2,-28.9 -19.1,-42.1 -0.7,-5.3 -5.1,-8.5 -9.7,-8.5 -2.5,0 -5,0.9 -7,2.9 -15.9,15.9 -39.7,15.9 -39.7,15.9 -62.5,68.6 -124.1,159 -190.8,119.2 -44.4,-32.9 -14.6,-99.7 57,-185.5 7.8,-9.4 6,-23.4 -3.9,-30.5 l -96.8,-70.1 c -19.9,4 -39.7,-8 -39.7,-8 l -119.2,-79.4 c -19.9,-19.9 -23.9,-43.8 -27.9,-71.6 -3.9,-31.8 8.6,-54.8 23.9,-71.5 -15.9,-15.9 -21.1,-57.8 -15.9,-79.5 9.4,-44.9 43.7,-67.6 95.4,-63.6 l 37.6,22 c 5.7,3.3 13,2.1 17.3,-3 45.6,-53.5 92.1,-78.6 92.1,-78.6 51.1,-22 182.8,-47.7 202.7,-27.8 15.9,17.4 43.7,27.8 59.6,19.9 l 385.5,-222.6 c 91.4,-75.5 189.8,-124.8 317.9,-147.1 40.2,-35.4 104,-50.3 178.9,-55.6 88.1,-3.1 156.2,-23.7 180.8,-32.1 6.3,-2.2 11.4,-6.8 14.1,-12.9 l 55.4,-121.9 c 44.9,-80.6 163,-91.4 325.9,-87.4 95.3,-0.9 174.9,-8 159,-47.7 -35.8,-91.4 -15.9,-258.4 -15.9,-258.4 -7.2,-23.8 -10,-60.6 -11.2,-86.2 -0.7,-17 -8.3,-33 -21.4,-43.8 -22.9,-18.9 -36.8,-41.5 -34.3,-71 1.7,-19.7 -6.9,-39 -23.1,-50.3 -78.9,-55.6 -147.2,-119.3 -140.5,-241.4 -23.8,-23.9 -19.9,-91.5 -19.9,-91.5 -23.5,-33.9 -33.3,-86.8 -37.2,-119 -1.9,-15.6 -14.2,-28 -29.7,-29.9 -125.9,-14.6 -111.9,-105.4 -111.9,-105.4 -51.7,-15.9 -107.3,-123.2 -107.3,-123.2 l -691.5,-687.5 c -186.8,-170.9 -345.8,-604.1 -345.8,-604.1 -19.7,-34.6 -31.8,-67.7 -38.1,-87.7 -4.1,-12.9 -12.4,-24 -23.6,-31.5 -37.3,-25.4 -69.9,-53 -73.3,-94 -0.8,-9.3 -3.9,-18.3 -9.6,-25.8 l -89.9,-118.7 c -75.5,-75.5 -123.2,-162.9 -123.2,-162.9 l -39.7,-39.8 c -16,-15.5 -22,-28.6 -19.9,-39.7 l -15.9,-15.9 c -11.6,4.5 -19.8,4 -27.8,-4 l -99.3,-103.3 c -10.8,-10.8 -8.8,-25.1 -6.4,-33.3 1.2,-4.1 -0.2,-8.5 -3.6,-11.2 l -8.1,-6.5 c -3.5,-2.9 -8.2,-3.7 -12.6,-2.4 -21,6.6 -42.4,8.1 -56.8,-6.2 l -55.6,-55.7 c -4.7,-4.7 -9.4,-17.7 -12.4,-27.5 -1.5,-4.8 -5.3,-8.7 -10.1,-9.7 -2.5,-0.6 -5.4,-2.6 -9.3,-6.5 -14.3,-13 -22.9,-29.9 -23.8,-51.7 l -131.2,-131.1 c -17,-20.5 -28.2,-39.5 -26.1,-63.3 0.8,-7.8 -1.5,-15.7 -6.3,-21.9 -12.5,-16.2 -15.3,-30.1 -15.3,-30.1 l -119.2,-111.2 c -19.9,-15.9 -47.7,-19.9 -47.7,-19.9 -19.9,0 -19.9,-15.9 -19.9,-15.9 l -27.8,-23.8 c -59.6,0 -94.7,-22.1 -135.1,-47.7 -19.9,-12 -27.6,-20.9 -15.9,-27.9 15.9,-7.9 7.9,-19.8 7.9,-19.8 -35.7,-27.8 -84.5,-38.1 -79.4,-75.5 4.6,-44.3 66.1,-52.8 169.8,-34.9 9,1.6 16,-8.1 11.4,-16 -11.4,-20 -37.5,-44.2 -53.2,-57.7 -6.9,-5.9 -11.9,-13.8 -13.8,-22.6 -3.6,-16.4 -14.9,-7.9 -14.9,-7.9 -7.9,19.8 -23.8,15.9 -23.8,15.9 -39.2,-16.1 -56.9,-33.6 -65,-45.4 -5.3,-7.7 -14.4,-11.5 -23.6,-9.9 -41,7.3 -66.5,-12.6 -78.4,-25.7 -5.2,-5.8 -12.6,-9.5 -20.5,-9.5 -29,0 -51.8,-15.4 -64.3,-26.2 -7.2,-6.3 -16.6,-9.1 -26.1,-8.5 -39.6,2.4 -78.4,-14.4 -96.7,-23.8 -6.4,-3.2 -13.8,-3.8 -20.6,-1.9 -25.7,6.8 -81.7,3.8 -81.7,3.8 -71.6,-7.9 -87,-53.2 -127.2,-51.6 -95.4,7.9 -131.2,-27.9 -131.2,-27.9 -87.4,-31.8 -119.2,-123.2 -67.5,-194.7 98.7,-126.6 179.5,-168.8 254.3,-182.8 111.3,-11.9 775,-31.8 775,-31.8 159,0 536.5,-39.7 536.5,-39.7 91.4,3.9 71.5,158.9 71.5,158.9 h 8 c 8.7,34.9 -8.1,65.5 -17.7,79.4 -3.5,5.1 -4.4,11.6 -2.3,17.3 27.3,72.4 20,225.2 20,225.2 23.8,15.9 19.9,59.6 19.9,59.6 35.7,23.9 43.7,87.5 43.7,87.5 31.8,19.8 39.7,83.4 39.7,83.4 33.7,36.5 35.7,92.8 33.9,122.8 -0.7,12.5 6.3,24.1 17.7,29.3 l 23.9,10.9 59.6,71.5 2.2,26.3 c 1,11.9 6.7,23 15.9,30.6 20.6,16.7 46.7,48.8 60.2,66.2 5,6.4 12.6,10.1 20.6,9.8 18.7,-0.6 40.2,10.2 40.2,10.2 l 75.5,75.5 v 14 c 0,10.1 7.7,18.5 17.8,19.6 l 22,2.2 c 50.7,19.3 60.4,47.4 60.1,66.5 -0.2,14.5 7.9,27.6 20.6,34.6 l 18.6,10.1 c 119.3,43.8 246.4,242.5 246.4,242.5 l 79.5,103.3 c 103.4,67.6 218.6,333.8 218.6,333.8 39.8,4 39.8,39.8 39.8,39.8 l 35.7,47.7 c 49.7,16.5 57.2,69.5 57.2,100.3 -0.1,12.8 6.5,24.7 17.7,30.8 27.8,15.3 44.3,41.9 53.6,63.2 7.4,16.9 24.2,27.3 42.6,26.9 28.3,-0.6 59.4,5.3 59.4,5.3 43.6,3.3 259.8,131.2 326.3,171 9.5,5.8 21.9,0.7 24.6,-10.1 17.3,-68.2 46.5,-133.1 46.5,-133.1 l 15.9,-202.7 c 43.8,-608 194.8,-786.9 194.8,-786.9 103.3,-139.1 294.1,-170.9 294.1,-170.9 67.5,-43.7 310,-131.1 310,-131.1 39.7,-15.9 139,-71.5 139,-71.5 79.5,-51.7 457.1,-206.7 457.1,-206.7 l 242.4,-103.3 c 135.1,-107.3 528.6,-151 528.6,-151 55.6,-6.4 92.8,2.1 115.3,11.4 17.9,7.3 38.4,2.4 51.1,-12.2 62.4,-72.6 72,-46.9 72,-46.9 27.8,47.7 59.6,19.8 59.6,19.8 l 67.6,-43.7 31.8,-23.8 c 4,-27.8 35.8,-31.8 35.8,-31.8 l 71.5,-55.7 c -15.9,-51.6 27.8,-87.4 27.8,-87.4 -4,-51.7 39.8,-107.3 39.8,-107.3 -4,-23.8 11.9,-59.6 11.9,-59.6 -11.9,-23.9 4,-71.5 4,-71.5 -12,-23.9 -8,-115.3 -8,-115.3 -59.6,-43.7 -50.5,-106.5 4,-131.1 115.2,-47.7 246.4,43.7 246.4,43.7 l 43.7,-31.8 c 35.8,19.8 67.6,59.6 67.6,59.6 l -19.9,47.7 39.7,39.7 39.8,-27.8 c 39.7,15.9 51.6,59.6 51.6,59.6 l -23.8,43.7 c 23.8,19.9 31.8,59.6 31.8,59.6 h 31.8 v 8 l 11.9,15.9 h 23.8 v 35.8 h -11.9 v 11.9 h 15.9 v 27.8 l -27.8,19.9 c 7.9,11.9 7.9,27.8 7.9,27.8 l 47.7,7.9 v 43.8 l -27.8,27.8 c -11.9,55.6 15.9,95.4 15.9,95.4 l 35.8,43.7 v 15.9 l -19.9,15.9 c -4,71.5 27.8,83.4 27.8,83.4 h 55.7 c 43.7,27.8 31.8,63.6 31.8,63.6 l -35.8,31.8 c 27.8,47.7 31.8,107.3 31.8,107.3 l 39.7,15.9"
     style="fill:#000000;fill-opacity:1;fill-rule:nonzero;stroke:none"
     transform="matrix(0.13333333,0,0,-0.13333333,0,4000)" />
  <path
     id="path4"
     d="m 12014.1,4108.3 c 43.3,-101 -80.3,-171.1 -245.2,-142.2 0,0 -33.8,10.1 -49.4,-6.4 -3.8,-4 -9.3,-6 -14.8,-6 h -19.6 c -10.4,0 -19.2,7.4 -21.3,17.6 -5.3,25.3 -20.6,49.9 -47.3,56.6 -35.8,6.5 -48.5,2.7 -66.4,-9.3 -9.8,-6.5 -22.7,-5.5 -31.6,2.2 l -30.6,26.5 c -8.1,7 -9,19.1 -2.3,27.4 17.1,21 25.6,49.5 -17.5,72.7 -17.6,7.1 -38.3,17.2 -72.4,12.1 -11.5,-1.7 -22.9,3.1 -29.3,12.7 l -38.4,57.6 c 0,0 -8.2,12.4 16.5,28.9 16.5,12.3 21.8,27.5 8.2,53.5 l -16.5,33 c -9.8,16.5 -23.7,13.5 -38.3,8.3 -6.6,-2.4 -13.8,0.9 -16.5,7.3 -5.1,12 -12.3,32.5 -14.5,56.5 -0.8,8.8 2.6,17.4 9.2,23.3 l 15.7,13.9 c 7.4,6.6 11.3,16.2 10.8,26 -4.9,96.1 -24.8,186.7 -69.4,268.5 -19.3,38.8 -41.9,85.1 -65.5,141.6 -2.8,6.6 -9.2,10.9 -16.3,10.9 h -20.6 c -5.5,0 -10.7,2.7 -13.9,7.3 l -60.9,87.5 c 0,0 -12.3,20.6 12.4,45.3 l 32.1,28.9 c 5.7,5.1 8.3,12.7 6.9,20.1 -4.6,25.9 -15.2,87.5 -17.8,120.2 -0.6,7.3 -5.9,13.3 -13,14.9 l -51.2,11.3 c -6.2,1.4 -10.6,6.9 -10.6,13.2 v 43.7 c 0,7.1 3.7,13.7 9.7,17.5 l 46,28.7 c 5.9,3.7 9.9,9.8 11.3,16.7 4.5,22 27,73.5 139.1,92.8 l 146.2,26.9 c 6.5,1.2 12.6,4 17.8,8.1 19.2,15.2 72.2,53.1 122.7,52.2 6.6,-0.1 13.1,2.1 18.4,6 10.4,7.6 29,19.3 48.1,21.9 8.1,1.2 15.6,5.1 20.4,11.7 38.8,53.4 139.9,50.7 256.8,33.9 0,0 139.5,-22.1 214.1,-55.7 8.5,-3.9 18.1,-4.8 27.2,-2.9 35.8,7.7 132.4,26.5 236.7,29.7 0,0 177.2,33 218.4,33 l 70.1,16.5 c 0,0 57.7,53.5 136,61.8 0,0 148.3,94.8 424.4,111.2 0,0 210.3,82 415.5,67 27.3,-2 54.6,5 76.8,21 1.5,1.1 2.9,2.1 4.4,3.1 13.7,9.3 22.6,24 24.3,40.5 3.7,34.4 14.7,92.3 47.7,128 0,0 4.1,436.8 119.5,642.9 0,0 -33,45.3 20.6,90.6 0,0 -20.3,101.3 -12.6,139.2 0.1,0.6 0.3,1.3 0.5,1.9 v 0 c 2.1,6.3 -0.1,13.1 -5.4,17.1 -13.7,10.4 -36.7,36.9 -27.8,93.2 l 4.1,28.8 4.1,8.3 v 2.1 c 0,11.2 -6.3,21.1 -15.9,26.8 -11.1,6.7 -23.5,23.5 -21.2,65.9 v 60 c 0,11.3 -4.9,21.8 -13.1,29.6 -15.1,14.2 -40.9,56.8 -64.4,183.4 -3,16.2 -11.2,31 -22.7,42.7 -12.7,12.8 -27.5,33.3 -27.5,59.2 0,0 0,23.9 12.7,42.5 10.3,15.2 16.1,33 16.1,51.4 v 58.6 c 0,0 4.1,169 70.1,247.3 0,0 7.1,9.5 21.3,17.6 11,6.3 19.5,16.1 24.4,27.8 l 32.6,78.2 c 0,0 -4.2,45.3 24.7,78.3 0,0 16.5,24.7 57.7,16.5 l 4.1,20.6 c 0,0 -24.7,12.3 -16.5,65.9 l 4.1,90.6 c 0,0 -37.6,119.8 -22.5,231.4 2.1,15.6 -7.8,30.5 -23.2,33.7 -17,3.5 -34.8,13.5 -32.6,39.9 l 28.2,102.1 c 5.9,21.3 -1.6,44.4 -19.5,57.3 -19.9,14.4 -46.7,20.8 -62.2,46.6 0,0 -11,22 1.5,103.9 1.6,10.3 0,20.9 -4.5,30.3 -22.7,46.7 -92.4,192.7 -112.9,257.2 -2.5,7.7 -6.6,14.8 -12.1,20.7 -13.5,14.6 -37.7,47.3 -28.6,86.5 0,0 -63.2,96.7 -62.5,198.2 0.1,10.2 -3.7,20.1 -10.1,28.1 -16.7,20.8 -45.5,66.9 -30.4,124 0,0 12.3,24.7 -37.1,41.2 0,0 -29.4,9.8 -21.3,58.4 1.8,11.3 -3.5,22.6 -13.1,28.7 -9.4,6 -19.7,15.2 -23.1,27.7 -2.8,10.7 -10.7,19.2 -20.7,23.8 -15.4,7.2 -33.2,21.2 -29.7,46.7 1.4,10.2 -2.1,20.4 -8.8,28.2 -9.2,10.7 -20.8,30.8 -27.6,66.7 0,0 -123.6,379.1 -57.6,614 0,0 79.8,371.2 471.2,441.9 11.4,2 20.3,11.2 21.9,22.7 l 9.6,67 c 0,0 4.1,41.2 -20.6,53.5 -78.5,2.2 -115.4,28.9 -136,74.2 l -177.2,449.2 c -70,201.9 78.2,482.2 296.7,622.2 418.3,246 848.8,173.8 974.8,-216.7 1.2,-3.8 3.1,-7.4 5.6,-10.5 l 5.8,-7.3 c 4.3,-5.4 11,-8.5 18,-8.4 199.5,3.6 397.5,4.5 347.4,-115.6 -46.9,-125 -134.6,-210.9 -234.8,-281.2 -8.6,-6 -9.6,-18.2 -2.3,-25.6 61.1,-61.2 122.5,-129.2 26.9,-171.2 v 0 c -19.7,0 -34.6,-17.8 -31.2,-37.3 l 6.5,-36.9 c 0,0 33,-49.4 -37.1,-74.1 0,0 41.2,-33 16.5,-57.7 0,0 4.1,-37.1 -4.1,-45.4 0,0 25.9,-22.6 23.2,-56.5 -0.6,-6.8 4.7,-12.6 11.5,-12.5 4.7,0.1 9.8,-0.2 14.2,-1.1 5.2,-1.1 10.4,1.6 12.4,6.5 6,14.7 19.3,37.9 39.8,23.4 4.8,-3.3 10.8,-4.4 16.6,-3.3 17.4,3.2 51.6,10.9 63.6,22.9 0,0 15.4,26.9 83.2,39.9 4.8,0.9 9.3,3.5 12.6,7.2 6.8,7.6 19,20.8 27.9,28.2 2.6,2.1 4.6,5 5.8,8.2 6.6,18.9 32.9,84.7 88.9,126.7 0,0 140.1,164.8 181.3,193.7 0,0 25.3,47.3 64.7,72.9 11.7,7.6 20.7,18.7 25,32 l 25.7,80.5 c 0,0 -11.8,66.6 60.3,119.6 3.9,2.9 7.2,6.4 9.9,10.5 16.9,25.3 80.4,118.2 119.4,150.1 l 12.3,24.7 c 0,0 16.5,66 33,107.2 l 65.9,148.3 c 0,0 -12.3,57.7 74.2,123.6 0,0 26.9,80.6 68.5,117.5 7.1,6.4 8.1,17.2 2,24.5 l -433.1,517.4 c -243.2,259.6 -544,548 -844.8,890 l -440.9,548.1 c -49.5,61.8 -22.1,143.7 57.7,214.3 152.4,123.6 222.5,0 296.7,-82.4 l 375,-473.9 c 119.5,-156.6 369.6,-527.2 585.1,-853 l 520.8,-686.3 c 6.6,-8.8 17.1,-13.8 28.1,-13.5 53.8,1.5 214.8,0 232.5,-70.1 2.2,-9 7.9,-16.7 15.8,-21.6 46.6,-29.2 191.3,-130.5 183.1,-258.3 -0.9,-14.6 6.5,-28.3 19.4,-35.2 15.7,-8.4 35.7,-23.4 47,-48.2 0,0 41.2,-28.9 53.5,-70.1 0,0 144.1,-90.5 -3.8,-263.4 -0.2,-0.2 -0.4,-0.4 -0.5,-0.5 v 0 c -4.7,-4.8 -2.2,-12.7 4.4,-13.9 26.3,-4.6 75.2,-21.8 78.2,-84.8 0,0 4.2,-82.4 -103,-115.4 0,0 -41.2,-8.2 -70,-61.8 0,0 -8.3,-16.5 -33,-16.5 0,0 -28.8,-4.1 -37.1,-37.1 0,0 -11.2,-93.7 -148.2,-73.7 -12.1,1.7 -24.2,-1.7 -33.5,-9.6 -3.9,-3.3 -8.7,-6.9 -14.6,-10.5 -1,-0.6 -1.9,-1.3 -2.8,-1.9 l -107.1,-79.4 c -3.8,-2.8 -8.1,-4.8 -12.6,-5.9 v 0 c -13.2,-3.3 -24,-12.9 -28.4,-25.7 -5.2,-15 -15.5,-34.4 -36,-52.9 l -127.8,-185.4 c 0,0 -5.7,-11.4 -17.1,-20 -4.7,-3.5 -8.2,-8.3 -9.8,-13.9 -5.9,-19.9 -26.2,-71.5 -92.6,-147.4 0,0 -43,-56.9 -85.9,-112.5 -37.2,-48.1 -56.4,-108.1 -52.4,-168.9 3.2,-48.3 -7.9,-108.6 -67.7,-151.3 0,0 -37.5,-26.8 -78.4,-46.2 -45,-21.5 -84.4,-53.1 -115.2,-92.3 -33.4,-42.5 -78.6,-95.1 -124,-133.4 -19.4,-16.4 -27.5,-42.6 -20.9,-67.2 30.3,-112 110.1,-428.2 136.6,-736.4 0,0 16.5,-280.2 4.1,-387.4 h 8.3 c 0,0 -7.2,-453.1 -61.9,-603.4 -5.7,-15.6 -1.5,-32.8 10.3,-44.5 12,-11.8 24.7,-29.5 26.8,-52.6 v -98.9 h -8.2 v -32 c 0,-5.9 2.2,-11.6 6.1,-16 l 72.2,-79.7 c 0,0 8.2,-20.6 0,-28.9 0,0 -8.3,-24.7 37.1,-16.4 0,0 16.3,0 31.6,-35.1 3.9,-9 11.2,-16.1 20.2,-20 26.6,-11.3 80,-40.7 80,-93.3 0,0 0,-24.7 41.2,-20.6 0,0 38.1,3.5 50.8,-50 2.6,-10.9 8.8,-20.7 17.5,-27.8 63.1,-52.2 315.2,-269.8 455.1,-527.9 0,0 111.2,-185.5 226.6,-263.8 0,0 57.7,-20.6 45.3,-74.1 0,0 -8.2,-28.9 61.9,-28.9 0,0 26.1,0 49.3,-52.3 5.2,-12 15,-21.3 27,-26.3 29,-11.8 92.3,-54.9 195.6,-209.8 l 37.1,-57.7 c 0,0 53.6,-49.5 78.3,-98.9 0,0 156.6,-82.4 169,-222.6 0,0 123.6,-127.7 201.9,-214.2 0,0 218.4,-222.5 247.2,-272 l 140.1,-148.3 c 0,0 86.6,-53.6 103,-119.5 0,0 189.6,-144.3 267.9,-362.7 0,0 8.2,-53.5 152.4,-98.9 0,0 140.2,-53.5 247.3,-156.6 0,0 65.9,-28.8 140.1,-197.8 0,0 14.9,-11.8 26.9,-38.1 3.8,-8.4 9.6,-15.6 16.8,-21.3 7.3,-5.8 16.4,-16.9 20.3,-37.5 2.7,-14.6 12.5,-26.7 26.3,-32.1 75.6,-29.7 306.2,-119.7 391.8,-147 0,0 57.7,-8.3 70.1,-20.6 0,0 156.6,8.2 185.4,-107.2 0,0 16.5,-74.2 -8.2,-173.1 0,0 -5.6,-16.6 -23.5,-27.1 -8.5,-5 -13.6,-14.2 -13.6,-24.1 v -15.2 c 0,-9.9 -5.2,-19.1 -13.7,-24.2 l -35.1,-21 c -7.3,-4.4 -16.7,-2.3 -21.5,4.8 l -8.4,12.7 c -10.4,15.6 -34.4,11.9 -39.5,-6.2 -0.6,-2 -1,-4.3 -1.3,-6.8 v -20.9 c 0,-5 -2.5,-9.6 -6.6,-12.3 l -13.5,-9 c -3,-2 -6.6,-3.1 -10.2,-3.1 h -85.1 v 8.2 h -190.3 c -4.1,0 -7.5,-3.4 -7.5,-7.5 v 0 c 0,-5 -4,-9 -9,-9 h -81.7 l -12.3,8.3 h -16.5 l -3.9,-4 c -2.8,-2.7 -6.5,-4.3 -10.4,-4.3 h -24.4 c -4.1,0 -8,2.1 -10.3,5.6 l -12.8,19.2 c 0,0 -20,19.9 -185.6,0.9 -5.1,-0.6 -10.2,-1.4 -15.3,-2.5 -32.6,-7.1 -170.5,-35.5 -289.5,-35.5 0,0 -173,-8.3 -210.1,8.2 0,0 -49.5,16.5 -136,4.1 l -28.9,-16.5 h -41.1 c -9.2,0 -16.6,7.5 -16.6,16.6 v 37 c 0,0 -49.4,20.6 -41.2,90.7 l 2.5,24.4 c 0.8,8.2 -6.8,14.7 -14.7,12.7 h -0.1 c 0,0 -26.7,136.7 -26.1,218.1 0.2,14.1 -8.3,26.8 -21.4,32.1 -31.9,12.8 -84.9,46.1 -76.1,124.8 l 9.7,53.7 c 4,21.7 -6,43.5 -25,54.7 -57.2,33.6 -181.6,114.3 -285.6,233.6 l -98.9,90.6 c 0,0 -61.2,23 -150.6,172.4 -6.7,11.2 -16.3,20.4 -27.7,26.8 -99.1,55.2 -597.2,350.4 -1029,929.9 0,0 -140.1,111.3 -247.3,255.5 0,0 -74.1,8.2 -144.2,82.4 l -403.2,218 c -29.4,15.8 -66.1,3.8 -80.3,-26.4 -117.3,-247.8 -598.3,-1246.6 -814.5,-1419.6 0,0 -53.6,-123.6 -247.3,-177.2 l -857.1,-234.8 -511,-111.3 c 0,0 -189.1,-22.7 -433.3,102.2 -13.9,7.2 -30.7,-1.9 -32,-17.4 -2.6,-30 -13.6,-68.3 -53.9,-68.3 0,0 -32.6,-3 -97.8,33.8 -20.5,11.6 -46.5,4.2 -58.4,-16.1 -12.4,-21.4 -29,-44.4 -45.7,-50.7 0,0 -12.7,-7.6 -38.1,1.1 -15.8,5.4 -33.2,1.8 -44.9,-9.9 l -32.4,-32.4 c 0,0 0,-16.5 -16.5,-41.2 l -4.1,-45.3 c 0,0 4.1,-28.9 -4.1,-49.5 v -53.5 c 0,0 8.2,-28.9 -4.1,-41.3 v -12.3 c 0,0 28.8,-65.9 20.6,-103 l 113.3,-212.2"
     style="fill:#000000;fill-opacity:1;fill-rule:nonzero;stroke:none"
     transform="matrix(0.13333333,0,0,-0.13333333,0,4000)" />
  <path
     id="path5"
     d="m 20826.2,16619.3 c 0,0 22.2,-75.2 -22.1,-101.8 0,0 -25.8,-12.9 -51.9,-68.3 -0.6,-1.2 -1,-2.6 -1.5,-3.9 -0.8,-2.5 -4.1,-7.4 -17.4,-7.4 l -4.4,-8.9 h -57.5 l -8.9,8.9 c 0,0 -4.4,13.2 -137.2,8.8 h -123.9 l -4.4,-8.8 h -48.7 c 0,0 -66.3,22.1 -154.8,17.7 0,0 -79.7,0 -110.6,-13.3 h -48.7 c 0,0 -26.6,17.7 -106.2,17.7 v -8.9 h -44.3 l -4.4,13.3 c 0,0 -35.4,26.6 -17.7,132.8 0,0 0,13.2 8.9,22.1 0,0 0,57.5 8.8,79.6 0,0 4.4,13.3 0,31 0,0 -22.1,70.8 31,146 0,0 -8.9,44.3 0,75.3 l 44.2,159.2 c -3.7,229.4 154.9,305.4 300.9,327.5 l 75.3,119.4 c 0,0 26.5,239 172.5,354 l 31,35.4 39.8,88.5 v 39.9 l 8.9,8.8 c 0,0 13.2,177 123.9,340.7 0,0 22.1,62 92.9,110.6 0,0 26.5,13.3 48.7,62 0,0 75.2,150.4 278.7,305.3 l 101.8,79.6 c 0,0 57.5,84.1 70.8,115.1 0,0 26.5,75.2 57.5,97.3 0,0 119.5,190.3 208,172.6 0,0 26.5,150.4 88.5,238.9 0,0 13.2,66.4 39.8,88.5 0,0 8.8,106.2 66.4,154.9 0,0 17.7,13.3 22.1,57.5 0,0 0,88.5 48.7,181.4 0,0 13.2,22.2 -8.9,62 0,0 -33.9,59.4 56,140.8 10.3,9.3 14.2,24.1 9.3,37.1 -3.2,8.5 -9.5,18.5 -21,30.1 0,0 -39.9,39.8 48.6,88.5 0,0 22.2,119.4 44.3,177 0,0 13.3,39.8 4.4,70.8 0,0 -35.4,75.2 -26.5,119.4 0,0 0,44.3 92.9,62 v 70.8 c 0,0 -48.7,70.8 26.5,163.7 0,0 -8.8,66.4 44.3,92.9 0,0 -4.5,13.3 4.4,17.7 l 4.4,123.9 c 0,0 0,39.8 17.7,44.2 0,0 4.5,88.5 35.4,115.1 0,0 -4.4,57.5 39.9,84.1 0,0 4.4,26.5 22.1,39.8 0,0 4.4,84.1 26.5,106.2 v 8.8 c 0,0 -31,8.9 -31,53.1 0,0 0,53.1 13.3,79.7 0,0 -53.1,92.9 -8.8,163.7 l 44.2,70.8 c 0,0 -22.1,39.8 -4.4,66.4 l 8.8,13.2 v 101.8 c 0,0 -70.7,168.2 -66.3,265.5 0,0 -13.3,119.5 -8.9,190.3 0,0 -53.1,159.3 -44.2,221.2 0,0 -17.7,35.4 -13.3,62 0,0 -48.7,53 -39.8,119.4 0,0 -31,88.5 -17.7,128.3 0,0 -22.1,62 -22.1,106.2 0,0 -123.9,446.9 92.9,628.4 0,0 61.9,53.1 101.7,61.9 0,0 119.5,88.5 177,88.5 0,0 62,62 154.9,101.8 0,0 97.4,48.7 123.9,53.1 0,30.9 -35.4,84 -48.7,159.3 0,0 -22.1,110.6 -22.1,163.7 -97.3,26.5 -150.4,137.2 -115,296.4 0,0 13.2,84.1 53.1,119.5 v 44.3 c 0,0 -17.7,22.1 -110.7,17.7 -39.8,0 -66.2,-0.3 -61.9,22.1 0,0 4.4,26.5 53.1,17.7 0,0 88.5,44.2 199.1,61.9 l 13.3,22.2 c 114.8,413 371.7,424.7 615,380.5 513.3,-110.6 504.5,-482.3 491.2,-575.2 0,0 -88.5,-424.8 -123.9,-464.6 0,0 -13.3,-17.7 -39.8,8.8 h -48.7 c 0,0 -17.7,-97.3 -44.3,-137.2 v -35.4 c 0,0 177,-35.4 230.1,-92.9 0,0 44.3,22.1 57.6,-22.1 h 44.2 c 0,0 84.1,53.1 154.9,4.4 0,0 35.4,-17.7 57.5,8.9 0,0 79.6,75.2 208,30.9 0,0 13.2,-8.8 26.5,13.3 0,0 17.7,35.4 35.4,39.8 v 8.9 c 0,0 -48.7,13.3 -92.9,75.2 0,0 -62,-26.5 -84.1,0 l -17.7,22.1 c 0,0 -31,-8.8 -53.1,22.2 l -8.8,13.2 c 0,0 -22.2,31 26.5,66.4 0,0 -48.7,44.3 -35.4,79.7 0,0 -92.9,66.3 -53.1,128.3 0,0 26.6,44.2 75.2,30.9 0,0 0,35.5 35.4,57.6 l -469,823 c -380.5,597.3 -795.1,1212.5 -1084.1,1800.9 -38.6,77.8 -17.7,163.7 75.3,208 176.9,79.6 212.3,-4.5 252.2,-70.8 l 464.6,-880.6 446.9,-982.3 464.6,-902.6 c 0,0 110.6,0 146,-31 0,0 31,13.3 92.9,-39.8 0,0 66.4,-57.6 110.6,-119.5 0,0 17.8,-8.9 17.8,-22.1 v -22.2 l 39.8,-79.6 c 0,0 17.7,-8.9 30.9,-26.6 0,0 35.4,-13.2 57.6,-39.8 l 30.9,-35.4 c 0,0 106.2,-35.4 340.8,-75.2 0,0 185.8,-13.3 274.3,-92.9 l 194.7,-150.5 c 0,0 137.2,-84 141.6,-221.2 0,0 0,-66.4 -79.7,-128.3 0,0 -97.3,-115.1 -300.9,-132.8 0,0 -84,-4.4 -92.9,-61.9 0,0 -13.3,-163.7 -141.6,-177 0,0 -39.8,-4.4 -57.5,22.1 0,0 -61.9,13.3 -132.7,8.9 0,0 -172.6,39.8 -340.7,39.8 0,0 -93,-88.5 -159.3,-119.5 0,0 -53.1,-101.8 -88.5,-123.9 0,0 -106.2,-1075.2 -154.9,-1340.7 0,0 -22.1,-208 -79.7,-247.8 v -17.7 c 0,0 35.4,-31 22.2,-57.5 0,0 -22.2,-48.7 -62,-75.2 v -13.3 c 0,0 35.4,-17.7 39.8,-39.8 0,0 84.1,-17.7 31,-84.1 v -31 c 0,0 70.8,-17.7 39.8,-70.8 l 35.4,-61.9 c 0,0 39.9,-4.5 53.1,-35.4 0,0 57.6,-13.3 57.6,-79.7 l -26.6,-35.4 c 0,0 48.7,-22.1 48.7,-84 v -39.9 c 0,0 0,-22.1 17.7,-30.9 0,0 84.1,-17.7 61.9,-154.9 l 75.3,-101.8 c 0,0 53.1,-39.8 84,-132.7 l 208,-393.8 c 0,0 154.9,-269.9 177,-407.1 0,0 66.4,-128.3 84.1,-216.8 0,0 92.9,-57.6 75.2,-216.8 0,0 115,-39.9 154.8,-150.5 l 123.9,-407.1 c 0,0 84.1,-424.8 57.6,-610.6 l 4.4,-101.8 c 0,0 70.8,-252.2 88.5,-376.1 0,0 39.8,-110.6 0,-252.2 0,0 -26.6,-70.8 -22.1,-154.9 0,0 4.4,-48.6 53.1,-53.1 0,0 225.6,-30.9 225.6,-159.3 0,0 8.9,-106.1 -48.6,-163.7 0,0 4.4,-26.5 61.9,-53.1 0,0 53.1,-17.7 110.6,-128.3 0,0 17.7,-31 101.8,-39.8 0,0 110.6,-57.5 39.8,-190.3 l -4.4,-4.4 v -8.9 h -39.8 v -4.4 h -53.1 -57.6 v 8.9 c 0,0 -247.7,-17.7 -402.6,-17.7 0,0 -154.9,-4.5 -190.3,4.4 0,0 -26.5,-17.7 -84.1,-13.3 v -8.8 h -35.4 -8.8 v 13.2 h -13.3 c 0,0 -4.4,-13.2 -35.4,-13.2 0,0 -44.2,-4.5 -48.6,66.3 0,0 -4.5,31 8.8,35.4 0,0 -4.4,22.2 8.9,26.6 0,0 -4.5,13.3 4.4,17.7 0,0 22.1,26.5 -13.3,75.2 v 88.5 l 17.7,62 c 0,0 -70.8,-4.5 -70.8,35.4 v 26.5 c 0,0 0,101.8 17.7,146 v 13.3 c 0,0 -185.8,-39.8 -185.8,123.9 l 8.8,181.4 v 168.2 c 0,0 -39.8,146 -31,243.3 l -70.8,292.1 c 0,0 -115,256.6 -123.9,504.4 0,0 -75.2,97.3 -35.4,190.3 0,0 35.4,106.1 -70.7,172.5 0,0 -57.6,26.6 -44.3,115.1 0,0 -35.4,26.5 -92.9,26.5 0,0 -39.8,4.4 -39.8,57.5 l -53.1,97.4 c 0,0 -75.3,44.2 -75.3,119.5 l -13.2,22.1 c 0,0 -70.8,13.3 -93,79.6 0,0 -39.8,4.4 -75.2,53.1 0,0 -159.3,106.2 -243.3,199.1 0,0 -296.5,239 -314.2,274.4 0,0 -274.3,199.1 -336.3,292 0,0 -526.5,-792 -738.9,-1000 0,0 -70.8,-172.6 -177,-261.1 0,0 -154.9,-358.4 -531,-548.6 l -239,-287.7 c 0,0 -110.6,-194.6 -225.6,-154.8 0,0 26.5,-31 -101.8,-110.6 0,0 -35.4,-93 -75.2,-132.8 0,0 -13.3,-84.1 -66.4,-128.3 l -22.1,-39.8 c 0,0 -4.4,-31 -26.6,-62 l -26.5,-35.4 c 0,0 -4.4,-8.8 -17.7,-8.8 l -39.8,-48.7 c 0,0 0,-44.2 -31,-75.2 l -22.1,-22.1 -13.3,-8.9 -39.8,-57.5 c 0,0 -4.4,-31 -39.8,-70.8 l -31,-35.4 c 0,0 -8.9,-8.9 -17.7,-8.9 l -39.8,-88.5 c 0,0 0,-30.9 -26.6,-57.5 v -35.4 c 0,0 22.1,-8.8 48.7,-48.6 0,0 35.4,-13.3 61.9,-62 0,0 26.6,-8.8 53.1,-44.2 0,0 62,-22.2 97.4,-119.5 0,0 101.7,-70.8 106.2,-141.6 0,0 39.8,-26.6 4.4,-70.8 0,0 -66.4,-75.2 -146,53.1 0,0 -22.1,39.8 -26.6,79.6 0,0 -4.4,17.7 -35.4,26.6"
     style="fill:#000000;fill-opacity:1;fill-rule:nonzero;stroke:none"
     transform="matrix(0.13333333,0,0,-0.13333333,0,4000)"
     inkscape:label="path5" />
  <path
     id="path6"
     d="m 27431.8,4739.9 c 2.2,9.2 4.6,18.2 2.2,27.7 -2.6,9.8 -8.8,18.5 -14.3,26.9 -5.8,8.8 -11.8,17.4 -18.2,25.8 -4.8,6.3 -9.7,12.4 -14.9,18.3 1.8,1.8 3.4,3.7 4.9,5.6 4.5,5.7 7.7,12.5 7.7,19.9 -0.1,8.3 -4.4,15.3 -9.4,21.7 -10.2,12.8 -22.2,24.1 -34.7,34.6 -26.5,22.1 -55.2,41.2 -81.1,64 -27,24 -52.1,50.1 -77.8,75.4 -48.5,47.7 -100.5,92.2 -157,130.2 -57.3,38.7 -119.5,70.7 -185.4,92 -53.7,17.3 -110,27.6 -166.6,28.6 -74,55.2 -148.8,109.4 -224.3,162.7 -86.2,60.7 -173.1,120.4 -260.5,179.3 -87,58.8 -174.6,116.9 -262.2,174.7 -44,29.1 -88,58.1 -132.1,87 -43,28.4 -86.1,56.9 -132,80.4 -73.7,37.7 -154.6,61 -237,68.6 -37.1,39.4 -81,72.1 -128.8,97.5 -77.2,41.1 -163.4,62.3 -250.3,68.6 -9.4,0.7 -18.9,1.2 -28.3,1.5 -23.7,31.7 -47.5,63.4 -71.2,95.1 -10.5,14 -20.5,29.9 -34.9,40.4 1.5,6.2 -0.3,12.8 -2.3,19.2 -2.6,8.2 -6,16.1 -10.1,23.7 -8.5,15.4 -20.1,29.3 -33.3,41 -4.6,4.1 -9.3,7.8 -14.2,11.3 4.1,28.2 -1.5,57.6 -14.3,83.5 -9.4,19 -22.8,36.3 -39.2,49.7 -14.9,12.3 -32.1,21 -49.8,28.3 7.4,68.9 -23.3,139.8 -50,201.9 -33.4,78.2 -69.6,155.7 -116.4,226.9 -9.1,13.9 -18.6,27.4 -28.6,40.7 1.5,44.3 -4.2,88.9 -16.9,131.4 -10.5,34.8 -26.1,66.9 -44.3,98.2 -9.5,16.5 -18.3,33 -23.1,51.5 -4.9,18.8 -6.7,38.1 -11,56.9 -4.8,21.7 -15.1,44.7 -31.9,59.3 -0.8,42.6 -5.6,85.1 -14.5,126.7 4.1,30.5 5,61.5 4.2,91.9 -1.9,74.6 -13.9,148.7 -33.7,220.6 -20,72.3 -47.8,142.4 -80.7,209.8 -33.3,68.2 -72,133.7 -114,196.8 -20.9,31.4 -42.4,62.3 -65,92.5 -10.6,14.2 -22.8,27.3 -41,30.4 -9.8,1.6 -19.6,1 -29.4,0.4 -10.5,-0.6 -21.1,-1.2 -31.7,-1.8 -2.8,-0.2 -5.6,-0.4 -8.4,-0.5 -30.4,30.1 -62.9,58.1 -97.3,83.7 -50.1,37.1 -103.9,69.2 -160.6,95.2 -9.6,4.5 -19.4,8.6 -29.2,12.7 -48.6,65.6 -96.4,131.7 -143.2,198.6 -3.5,5.1 -7.1,10.2 -10.6,15.3 13.8,12.2 27.6,24.5 39.7,38.4 12.9,14.7 24.2,31.6 28.6,51 4.5,20.1 0.5,40.5 -9.3,58.5 -10.3,18.9 -25.6,34.6 -41.1,49.2 -15.9,14.9 -32.5,28.9 -49.9,42.1 -34.3,26.1 -71.3,48.6 -110.2,67.1 -34.6,16.4 -70.5,29.6 -107.4,39.5 -5.5,38.9 -17,77 -35.2,111.9 -27.3,52.2 -70.5,96 -123.8,121.6 -16.3,7.9 -33.4,13.8 -51.1,17.9 -9.3,28.8 -20.6,56.9 -34.5,83.9 -27,51.9 -64.1,98.6 -111.3,133.4 -14,10.4 -28.9,19.5 -44.5,27.3 -3.3,15.5 -7.4,30.9 -12.4,46 -13.3,39.7 -32.8,76.3 -55.7,111.2 -24.8,37.7 -50.9,74.5 -76.5,111.7 -25.8,37.6 -51.7,75.2 -77.5,112.8 -12.5,18.2 -25.1,36.4 -37.6,54.6 10.3,1.2 19.9,5.3 27.7,14.2 9.5,10.8 12.9,25.1 15,39 2.4,15.7 3,31.7 1.5,47.6 -0.1,2 -0.4,4 -0.6,6 26.7,5.6 47.5,29 63.5,49.8 4.8,6.1 9.3,12.6 13.3,19.3 44.3,-7.9 89.9,-7.9 134.1,-0.1 7,-11.1 16.2,-20.9 25.7,-29.6 18.5,-16.6 39.3,-30.7 59.8,-44.7 22,-15.1 44.5,-29.6 66.9,-44.2 44.3,-28.7 88.8,-57.6 129.7,-91.1 41.3,-33.8 78.3,-72.6 121.3,-104.4 34.4,-25.5 74.5,-46.4 117,-53.2 4.7,-8.4 10.9,-16.1 17.1,-23.9 14.3,-18 28.6,-35.9 43,-53.8 56.8,-71.3 113.7,-142.5 170.5,-213.8 17,-21.2 34,-42.5 50.9,-63.8 0.5,-1.4 0.8,-2.8 1.3,-4.2 13.5,-45 33.8,-87.9 59.9,-126.9 7.4,-11.2 15.5,-22.1 23.9,-32.7 -2.5,-5.3 -4.8,-10.7 -6.8,-16.3 -7.4,-20.4 -10.6,-41.9 -13.2,-63.3 -2.9,-23 -5.9,-45.8 -11.2,-68.4 -10.6,-45.1 -25.6,-89.1 -39.1,-133.3 -13.8,-44.9 -27.7,-89.7 -41.3,-134.6 -14.6,-48.4 -27.5,-98.8 -19.3,-149.6 0.4,-2.5 3.2,-4.1 5.6,-4.2 36.3,-2 71.4,12.7 99.6,34.8 29.7,23.2 51.9,54.4 71.3,86.3 21.2,34.8 40.2,71 56.9,108.2 7.1,15.8 13,32.4 21.8,47.3 7,12.1 17.2,24.1 32,25.5 19.2,1.8 35.1,-14 47,-27 14.5,-15.9 25.8,-34.3 39.6,-50.7 0.3,-0.7 0.6,-1.5 1.2,-2.1 54.1,-67.8 111.5,-133.1 171.9,-195.4 15.2,-15.7 30.6,-31.3 46.2,-46.6 15,-14.8 29.9,-29.8 45.8,-43.8 13.7,-12.1 29.1,-23.7 47.1,-28.4 16.8,-4.5 34.5,-1.7 49.2,7.5 20,12.6 30.8,31.6 35.6,52.7 0.5,-0.5 1,-1 1.6,-1.5 15,-14.2 31.6,-26.8 50.9,-34.4 18.3,-7.1 39.8,-9.6 58.6,-2.9 16,5.7 30.2,17.5 37.3,33.1 7.8,17.3 5,35.6 -3.9,51.9 -1.5,2.8 -3.2,5.5 -4.9,8.1 16,-1 32.3,3.8 45.1,14.3 19.6,16.3 27.2,43.7 20.1,67.9 -4.2,14.2 -12.1,27 -19.9,39.4 -7,11.3 -14.2,22.4 -21.8,33.3 14,6.6 24.7,18.9 31,33.2 8.6,19.5 9,40.7 3.5,61.1 -6.8,25.2 -21.1,47.4 -35,69.2 -15.7,24.8 -31.5,49.5 -47.2,74.2 -31.6,49.5 -63.2,99 -94.7,148.4 -27.8,43.6 -54.5,88.1 -85.3,129.6 -27.7,37.6 -59.6,72.8 -99.1,98.3 -21.9,14.1 -47.1,23 -67.5,39.2 -20.9,16.7 -38.2,38.5 -54.4,59.6 -15.8,20.6 -30.1,42.4 -43.1,64.9 -10.6,18.3 -21.4,37.5 -37.3,51.8 -7.3,6.6 -15.6,11.9 -24.9,15.2 -11.3,4.1 -24.4,2.6 -33.1,12 -8.3,8.8 -12.9,21.6 -18.4,32.2 -6.2,12 -12.5,24 -18.9,35.8 -50.9,93.3 -110.4,181.8 -177.6,264 -7.3,9.1 -14.8,18 -22.4,26.9 1,1.5 1.1,3.5 -0.3,5.5 -32.6,47.3 -65.6,94.4 -100.7,139.9 -34.9,45.1 -72,88.6 -113.1,128.1 -42.7,41.1 -90.8,75.8 -135.1,115.1 -44.4,39.5 -80.9,86.4 -123,128 -30.2,29.8 -64.8,57.3 -104.1,73.8 -6.3,20.4 -33,31.9 -51.9,38.2 -36.6,12.2 -73.4,23.5 -110.6,33.3 -74.2,19.6 -150.3,33.5 -227.2,36.5 -29.3,1.1 -58.5,0.5 -87.6,-1.9 -9.3,8 -19.2,15.3 -29.8,21.1 -23.1,12.6 -48.2,11.8 -72.3,2.6 -24.7,-9.5 -46.8,-24.5 -71.5,-33.8 -13.9,-5.3 -28.3,-9.1 -42.8,-11.4 -20.3,22.3 -51.3,33.9 -81.4,37.7 -26.3,3.4 -53,0.5 -79.2,-1.6 -14.5,-1.2 -29,-2.2 -43.5,-2.1 -14.3,0.1 -28.2,2.4 -42.4,3.9 -16.1,1.8 -29.6,-3.2 -44.5,-8.7 -4.4,-1.6 -8.8,-3.2 -13.1,-4.8 -2.1,1.2 -4.1,2.5 -6.2,3.8 -11,6.5 -22.1,13 -33.8,18.3 -11.8,5.3 -23.8,8.2 -36.7,9.2 -23.7,1.7 -47.8,1.8 -71.5,1.1 -22.7,-0.6 -45.6,-2.6 -67.8,-7.5 -12.5,-2.7 -24.8,-6.5 -36.7,-11.4 -5.4,3.2 -11,6 -16.7,8.4 -36.6,15.2 -77.8,15.5 -116.9,16.5 -36.4,0.9 -74.7,-0.1 -107.8,-17.1 -16,-8.2 -28.8,-20.6 -43,-31.2 -7,-5.3 -14.5,-10.2 -22.7,-13.3 -9.4,-3.6 -19.5,-4.7 -29.3,-6.9 -31,-6.9 -59.1,-24.3 -79.7,-48.3 -71.5,7.2 -143.5,9.6 -215.4,7 -8.8,-0.4 -17.6,-0.8 -26.4,-1.2 -58.3,30.3 -114.5,64.8 -168,103 -11.3,8.1 -22.4,16.3 -33.5,24.7 -0.4,0.3 -0.7,0.6 -1.1,0.9 6.1,27.5 4.5,56.3 -4.4,82.9 11.3,8.4 21.8,17.9 29.4,29.7 5.4,8.2 8.9,17.5 9.8,27.2 1.1,12.4 -2.8,24.4 -8.1,35.4 -11.8,24.5 -27,47.9 -41.3,71.1 -29.5,48 -60.7,95 -92.5,141.5 -28,40.9 -56.3,81.7 -87.2,120.4 -30.5,38.2 -63.7,74.5 -101.6,105.7 -37.8,31.2 -80,56.4 -125.6,74.4 -92.4,36.5 -194.8,43.5 -292.4,28.1 -102.4,-16.1 -199.8,-56.3 -289.1,-108.1 -10.1,-5.9 -20.1,-11.9 -30,-18.1 -0.4,-0.1 -0.7,-0.2 -1.1,-0.4 -52.6,-25.9 -101.1,-59.8 -143.7,-100.1 -42.5,-40.1 -79.1,-86.7 -107.9,-137.7 -32.7,-57.7 -54.8,-120.7 -62.1,-186.8 -7.2,-64.9 -0.6,-130.8 14.1,-194.3 14,-60.2 35.5,-118.6 60.9,-174.9 -40.1,-58.3 -78.8,-117.6 -116.1,-177.8 -14.5,-23.5 -28.8,-47.1 -42.9,-70.9 -1.2,-2.1 -1,-4.1 0,-5.7 -1.2,-2 -1.4,-4.7 0.4,-7 16.1,-20.7 43.9,-28.9 69.3,-27.1 31.8,2.3 60.5,18.4 87.6,33.7 56.5,32.1 110.9,67.9 162.6,107.3 2.2,1.7 4.4,3.4 6.6,5.1 15.7,-11 29.3,-24.9 40.7,-40.7 1.5,-41.4 4,-82.8 7.6,-124.1 1.7,-19.6 3.2,-39.2 6.1,-58.7 2.5,-16.9 7.1,-34.4 17.5,-48.3 8.9,-11.9 22.5,-20.7 37.2,-22.9 14.9,-2.3 28.2,2.9 38.4,13.7 8.6,9.2 16.1,24.3 29.4,26.9 18,3.5 31.6,-15.6 42.5,-26.6 12.4,-12.6 27.6,-20.4 45.6,-19.7 3.9,0.1 7.8,0.7 11.6,1.5 2.2,-13.4 12.2,-23.9 23.9,-30.6 15,-8.6 33,-10.5 47.7,-19.9 7.4,-4.6 13.4,-11 19.1,-17.5 2.5,-2.9 5.3,-5.8 7.5,-9.1 2.9,-4.5 2.6,-7.5 0.1,-12 -7.1,-13.2 -9.9,-27.7 -7.9,-42.6 0.8,-5.8 2.3,-11.4 4.4,-16.8 -28,-18.4 -52,-42.5 -67.6,-72.3 -7.7,-14.8 -12.8,-30.4 -16.2,-46.6 -3.6,-17.3 -5.7,-34.9 -9.9,-52 -4.2,-16.8 -10.9,-32.1 -22.1,-45.5 -10.4,-12.5 -22.6,-23.8 -30.6,-38.2 -9.4,-17 -9,-35.3 -7,-54.1 0.5,-4.3 1.1,-8.8 1.5,-13.3 -4.7,-1.2 -9.2,-3.3 -12.6,-7.4 -6.4,-7.8 -7.8,-19.1 -10,-28.6 -2.6,-11.4 -4.8,-22.9 -5.3,-34.6 -0.6,-11.3 1.2,-22.1 3.5,-33.2 1.9,-9.1 4.2,-19.8 -0.3,-28.5 -2.2,-4.1 -5.8,-7.3 -8.7,-10.9 -3.3,-4.1 -5.5,-8.7 -6.8,-13.7 -3,-11.7 -3,-24.7 -2.9,-36.7 0,-3.9 0.2,-8 0.4,-12 -0.8,-0.5 -1.5,-1 -2.2,-1.6 -9.8,-8.3 -12.7,-24.1 -15.1,-36 -2.8,-14.1 -4,-28.5 -4.6,-42.8 -1.3,-29.3 0.1,-59.1 -5.8,-88 -6,-29.2 -20.4,-55.9 -27.3,-85 -5.6,-23.8 -7.9,-48.2 -9.2,-72.6 -11.3,-16.4 -20,-34.5 -25.1,-53.7 -3.4,-12.7 -5.4,-25.8 -8.2,-38.7 -2.6,-12.3 -6.2,-24.5 -10.6,-36.4 -4.7,-12.9 -10.5,-25.4 -17.3,-37.5 -36.5,32.5 -68.9,69.6 -96,110.2 -0.5,0.7 -0.9,1.4 -1.4,2.1 -0.9,5.3 -1.9,10.5 -3,15.8 -2.7,13.3 -4.9,26.8 -6.2,40.4 -2.4,27 -2.1,54.2 -0.7,81.2 0.8,13.6 1.8,27.1 3,40.6 1.1,12.8 2.4,25.6 0.9,38.4 -2,16.6 -9.8,33.5 -23.2,42.9 1.2,25 -0.8,50.3 -5.4,74.8 -5.9,31.8 -15.9,62.7 -27.5,92.8 -10.1,26.2 -20.8,52.5 -35.4,76.6 -8.3,13.7 -18,26.8 -29.5,38 -3.3,26.6 -8.7,53 -16,78.9 -12.5,43.8 -30,89.4 -62,122.9 -7.1,7.5 -15.1,14.2 -23.7,20 -9,6 -20,12.5 -31,14.1 -12.3,1.6 -20.2,-6.5 -25.8,-16.4 -6.1,-10.8 -11.9,-21.7 -16.3,-33.2 -9.5,-24.5 -8.4,-50.9 0.1,-75.6 8.5,-24.6 23.1,-46.4 38.3,-67.3 4.5,-6.2 9,-12.3 13.5,-18.5 3.7,-5.1 8.2,-10.4 10.6,-16.3 5,-12.6 -6.4,-24.1 -17.6,-27.7 -13.4,-4.2 -28.6,-2.2 -42.3,-0.5 -2.6,0.4 -5.1,0.8 -7.7,1.2 -24.9,30.7 -44.8,65.4 -64.5,99.6 -29.6,51.4 -59.1,102.9 -88.7,154.3 -14.7,25.5 -29.4,50.9 -44,76.4 -12.3,21.5 -24.5,44.6 -43.9,60.7 -31.4,26 -77.1,25.2 -110.3,4 -19.8,15.1 -44.5,22.3 -70,13.3 -20.9,-7.4 -33.6,-23.8 -39.2,-44.9 -3.2,-12.2 -6,-25.3 -6.1,-37.9 -0.1,-5 0.5,-9.9 1.5,-14.7 -28.6,-2.4 -51.2,-27.7 -56.7,-55.3 -7.4,-36.8 8.3,-72.1 26,-103.5 2.6,-4.6 5.2,-9.4 7.9,-14 -6.2,-2 -12.1,-5 -17.4,-9 -20.9,-15.8 -29.5,-43.5 -27.9,-68.8 2,-30.5 16.8,-57.9 32.3,-83.6 7.9,-13.3 16.2,-26.6 22,-41 5,-12.4 7.6,-25.5 9.7,-38.6 4.4,-28.4 7.1,-58.6 27.2,-80.9 1.5,-1.6 3.2,-2 4.8,-1.6 33.4,-20.6 60,-50.4 77,-85.8 9.5,-19.8 16.9,-40.5 28,-59.4 9.7,-16.7 21.5,-32 34.1,-46.6 25.5,-29.8 54.6,-56.3 79.3,-86.7 13,-16 23.8,-33.2 34,-51 10.3,-18.1 20.3,-36.3 33.1,-52.7 11.2,-14.4 26.2,-27.8 43.1,-36.7 0.6,-3.3 1.8,-6.6 3.2,-9.8 3.3,-7.1 6.9,-14 10.3,-20.9 7.3,-14.9 14.7,-29.7 21.9,-44.5 l 10.6,-21.4 c 3.2,-6.4 6,-13.5 10.2,-19.5 3.6,-5.2 8.6,-9.4 15.1,-10.3 4.7,-0.7 9.4,0.4 13.9,1.8 0.3,-0.2 0.5,-0.4 0.7,-0.6 45.3,-35 66.4,-90.7 82.3,-143.7 8.5,-28.4 15.8,-57.2 24.8,-85.5 10.4,-32.6 22.8,-64.6 37.6,-95.5 27.7,-57.9 64.8,-109.6 108.4,-156.6 41,-44.5 86.1,-84.8 129.3,-127.1 42.5,-41.7 83.6,-85.6 115.6,-136 4.1,-6.4 7.9,-12.8 11.7,-19.4 1.2,-2.1 3.1,-2.9 5,-2.7 11.4,-19.2 34.4,-27.4 54.8,-35.2 14.2,-5.4 27.4,-12.1 40.6,-19.7 14.3,-8.1 29,-16 45.2,-19.6 33.8,-7.4 69.3,0.7 101.6,11 30.1,9.6 59.1,22.9 86,39.4 55.6,34.3 100.2,82.1 134.8,137.3 18,28.5 33.3,58.5 47.4,89.1 14.7,31.8 28,64.3 39.1,97.6 15,45.2 25.9,92.4 28.9,140 26.5,18.9 34.3,51 42,80.8 3.9,15.4 8,31 15.2,45.2 8.5,16.6 21.8,29.4 35,42.3 13.7,13.4 27,27.4 35.2,45 8.1,17.4 11.6,36.3 13.2,55.4 3.1,38.5 -0.8,77.3 10,114.9 2.5,8.9 5.7,17.6 9.4,26 17.6,-24.5 36,-48.3 55.4,-71.4 38.2,-45.8 79.6,-88.8 123,-129.7 43.9,-41.5 89.8,-80.8 136.6,-118.8 46.8,-37.9 94.6,-74.6 142.5,-110.9 54.5,-41.2 109,-82.1 163.5,-123.1 5.4,-4.1 10.8,-8.2 16.3,-12.3 0,0 0.1,-0.1 0.2,-0.1 0,-0.1 0.1,-0.2 0.2,-0.2 1.5,-1.2 3.1,-2.4 4.7,-3.5 0.5,-0.4 1,-0.7 1.5,-0.9 45.8,-31.6 88.2,-67.6 130.3,-103.9 43.8,-37.7 87.8,-75.2 134.5,-109.3 47.3,-34.6 96.9,-65.4 147.8,-94.4 25.3,-14.5 50.8,-28.8 75.5,-44.4 24.5,-15.4 47.6,-32.5 70.6,-49.9 41.6,-31.5 88.3,-64.3 141,-70.3 15.9,-19.4 34.8,-36.1 56.8,-48.6 10.9,-6.2 22.6,-11.2 34.6,-14.8 20.6,-18.4 46,-31.4 72.2,-40.5 9.3,-3.3 18.7,-6.1 28.2,-8.6 -70.6,-25.1 -137.8,-59.2 -202.1,-97.7 -41.5,-24.9 -81.9,-51.6 -121.7,-79.1 -37.9,-26.3 -76.2,-52.4 -112.1,-81.4 -30.6,-24.7 -59.4,-52.7 -80.4,-86 -1.4,0.6 -3.1,0.6 -4.9,-0.4 -63.8,-38 -125.5,-79.5 -184.7,-124.3 -59.2,-44.7 -115.9,-92.7 -169.9,-143.6 -54,-51 -105.3,-104.9 -153.4,-161.4 -48.2,-56.5 -93.3,-115.6 -135,-177 -26.1,-38.5 -51,-77.9 -74.4,-118.1 -12.8,-19.8 -25.5,-39.6 -38.2,-59.5 -8.6,-13.6 -16.7,-27.9 -19.8,-43.9 -0.1,-1 -0.1,-1.9 0.1,-2.7 -16.3,-47.7 -31.8,-96 -37.5,-146.3 -5.8,-50.3 0.8,-100.1 22.8,-145.9 21.3,-44.4 53.6,-82.3 87.3,-117.8 18.1,-19 36.6,-37.5 54.6,-56.7 18.1,-19.2 34.8,-39.6 53.5,-58.2 33.5,-33.2 72.4,-60.3 111.8,-86.1 2,-2.1 4.1,-4 6.2,-5.9 0.3,-1 0.7,-1.9 1.6,-2.7 25.2,-24 51.2,-47.2 78.1,-69.2 26.7,-22 53.9,-43.8 83,-62.5 14.3,-9.3 29.2,-17.2 44.9,-23.8 15.9,-6.5 32.4,-11.8 48.6,-17.7 27.8,-10.1 54.9,-22.3 81.1,-36 52.6,-27.5 101.9,-60.8 149.9,-95.6 48.2,-35 95.2,-71.7 143.8,-106.2 48.5,-34.4 98.6,-66.9 152.1,-92.9 5.2,-2.5 10.4,-4.9 15.6,-7.3 78,-53.1 155.9,-106.2 233.9,-159.3 40.4,-27.5 80.8,-55.1 121.2,-82.6 20.3,-13.8 40.7,-27.7 61,-41.5 18.9,-13 38.1,-25.8 54.8,-41.7 33.9,-32.3 55.7,-74.5 76.9,-115.7 -4.1,-29.9 -8.1,-59.9 -12.2,-89.9 -3,-22.4 -6.3,-45.6 2.6,-67.3 6.9,-16.8 19,-30.4 31.6,-43.2 14.2,-14.1 29.4,-27.7 39.8,-45 -3.5,-13.9 -6.3,-27.9 -8.4,-41.8 -2.5,-16.7 -3,-33.8 3,-49.8 0.2,-0.4 0.4,-0.8 0.7,-1.1 -7.9,-29.4 -25.2,-56 -41.8,-81.2 -20.5,-31.1 -41,-62.1 -62.6,-92.4 -43.2,-60.4 -91.5,-118.2 -151.2,-163 -32.5,-24.3 -67.7,-46.2 -93.2,-78.5 -0.4,-0.5 -0.7,-1.1 -0.9,-1.7 -0.7,-0.3 -1.4,-0.8 -2.1,-1.5 -20.3,-23 -29.6,-52.6 -36.3,-82 -3.7,-16.4 -8,-33.1 -8.6,-49.9 -0.5,-17.5 5,-34 11.9,-49.9 13.3,-30.6 29.7,-59.9 48.8,-87.2 9.6,-13.7 19.8,-27 30.6,-39.8 8.7,-10.2 21.6,-21.9 36.1,-20.9 18.6,1.2 24,20.6 29.4,35.1 2.9,7.6 5.7,15.1 8.6,22.6 1,-0.2 2.2,0 3.4,0.7 24.2,12.7 51.3,-4.6 72.9,-14.8 10.7,-5 24.8,-11.9 37,-10.5 11.6,1.4 14.5,12.8 15.4,22.7 1.1,11.5 4,21.3 10.8,30.9 6.5,9.3 15.2,17.1 24.3,23.8 21,15.5 44.9,28 69.3,37.5 5.7,2.2 11.5,4.2 17.3,6.1 19.2,1.1 38.6,-0.8 57.2,-5.9 11.2,-3.1 22,-7.2 32.3,-12.5 10.2,-5.2 19.5,-12.1 30,-16.6 9.9,-4.3 21,-5.8 30.8,-0.2 9.1,5.1 15.1,15 20.6,23.5 12.5,19.3 22.3,40.5 29.1,62.4 1.4,4.4 2.6,8.8 3.7,13.2 49.8,39.5 99.8,78.7 151,116.3 58.5,42.9 118.8,83.6 181.8,119.6 24.3,13.9 49,26.8 73.9,39.5 14.6,3.4 29.4,0.6 43.3,-6.2 8.8,-4.4 17.5,-8.6 27,-11.1 9.4,-2.5 19,-3.8 28.6,-4.6 4.6,-0.4 9.2,-0.7 13.7,-1 4.7,-0.3 9.6,-0.8 14,1.1 8.4,3.8 11.1,14.9 14.2,22.7 7.5,19 13.4,38.5 17.6,58.4 1.5,6.7 2.7,13.5 3.8,20.3 49.8,41.9 102.8,79.5 156.3,116.6 0.5,-0.2 1.1,-0.4 1.8,-0.4 19.1,-0.5 38.2,-0.5 57.3,0 9.4,0.2 18.9,0.3 28.2,1.1 7.7,0.7 13.3,4.4 14.9,12.3 1.8,8.7 2.5,17.6 3.7,26.4 1.2,8.8 2.5,17.6 3.5,26.4 1.2,10.2 1.6,20.5 -0.4,30.4 3,8.7 3.9,18.2 3.8,27.6 0,14.4 -2.3,28.9 -6.4,42.6 -8.2,27.4 -23.7,52.6 -44.6,72.1 -11.9,11.1 -25.5,20.4 -40.2,27.2 -0.2,0.1 -0.3,0.1 -0.4,0.1 -4.8,52.4 -27.9,102.8 -64.3,140.9 -9.9,10.3 -20.9,19.7 -32.6,27.9 5.3,3.5 10.5,7 15.2,11.1 6.6,5.7 12.1,12.9 13.3,21.7 1.3,9.7 -3.3,18.6 -8.4,26.6 -19,29.8 -48.8,52 -82.2,63.1 -6.9,2.3 -13.9,4.1 -21,5.4 -0.2,0.1 -0.4,0.2 -0.6,0.3 -29.6,12.7 -43,45.1 -62.8,68.4 -11.7,13.9 -25.8,23.2 -42.6,30.2 -9.6,4 -19.4,7.4 -28.6,12.1 -9.5,4.9 -18.5,10.7 -27,17.1 -17,12.7 -32.6,27.4 -48.2,41.8 -15.9,14.6 -31.5,29.6 -47,44.7 -31,30.2 -61.1,61.3 -90.7,92.8 -59.7,63.5 -117.4,129 -175.6,193.8 -29,32.2 -58.1,64.3 -87.8,95.9 -29.1,31.1 -58.3,62.5 -89.5,91.5 -30.5,28.3 -64.6,51.5 -105.7,60.9 -36.3,8.3 -73.8,7.2 -110.7,3.4 -21.6,45.7 -45.4,90.3 -71.7,133.5 -27.9,45.8 -58.5,89.9 -91.9,131.9 -33,41.6 -68.8,81 -107.5,117.4 -16.8,15.8 -34.1,31.1 -51.9,45.7 39.1,10.3 77.4,23.6 115.7,36.4 56.4,18.9 112.8,37.9 168.6,58.6 105.6,39.2 209.6,84.4 305.4,144.3 9.5,6 18.9,12.2 28.2,18.5 76.7,-30.3 153.8,-62.2 220.3,-111.7 37.1,-27.6 69.5,-61.2 106,-89.7 18.4,-14.5 38,-27.4 58.3,-39 1.7,-2.1 3.4,-4.2 5.2,-6.2 -0.1,-1.4 0.4,-2.8 1.7,-4 63.9,-59.5 126.7,-120.1 188.4,-181.9 61.6,-61.8 122.1,-124.7 181.4,-188.7 59.3,-64.1 117.4,-129.2 174.3,-195.5 28.4,-33.1 56.5,-66.4 84.3,-100.1 26.9,-32.6 52.9,-66 80.5,-98.1 25.9,-30.1 54.7,-59.1 89.7,-78.6 6.9,-3.8 14.1,-7.3 21.5,-10.3 0.2,-1 0.7,-2 1.7,-2.8 31.8,-27 63.6,-54.1 95.4,-81.1 29.5,-25.2 58.6,-52 91.6,-72.7 52.5,-32.8 114.2,-45.6 175.6,-47.4 27,-23.7 55.6,-45.4 85.4,-65.4 47.6,-32 97.9,-59.7 149.1,-85.2 51.9,-25.9 104.9,-49.8 158,-73.2 57.1,-25.2 114.7,-49.3 174.3,-67.8 21.3,-6.6 43,-12.4 64.8,-17.3 6.9,-4.5 14,-8.7 21.6,-12.4 1,-0.5 1.9,-0.6 2.8,-0.6 61.5,-24.3 123.1,-48.7 183.9,-74.8 61.8,-26.5 122.9,-54.7 182.4,-86.1 58.9,-31.1 116.2,-65.3 170.6,-103.9 27.8,-19.8 54.6,-40.8 80.8,-62.6 26.7,-22.4 53.1,-45.2 80.9,-66.2 32.6,-24.9 68,-47.4 106.1,-62.8 34.1,-62.5 70.9,-123.5 110.9,-182.3 25.3,-37.4 53.5,-73.8 90.3,-100.5 38.9,-28.1 85.4,-40.1 133,-39.6 28.9,0.2 57.5,4.4 85.8,10.5 6.2,-25.4 23.3,-44 46.1,-56.4 5,-2.7 10.2,-5.1 15.4,-7.3 15.8,-73.9 -22.7,-149.4 -79.3,-195.4 -6.7,-5.6 -13.8,-10.7 -21.1,-15.5 -25.6,4.8 -51.8,6.5 -77.8,4.8 -16.5,-1 -33.1,-3.4 -49.3,-7.2 -15.9,-3.7 -32.6,-8.1 -47,-16 -31.8,-17.5 -35.2,-57.4 -39.2,-89.8 -5.6,-44.7 -5,-89.7 1,-134.3 0.4,-3.1 4.4,-4.7 7.1,-4 0.2,0 0.2,0.1 0.4,0.2 91.3,-17.3 184.6,-18.4 277.2,-15.1 46.3,1.6 92.7,3.8 138.9,6.9 44.1,3.1 88.7,8.3 130.8,22.4 18.6,6.3 36.8,14.2 53.8,24.1 0.7,-0.9 1.6,-1.6 2.9,-2 40.6,-13.6 82.9,-21.5 125.6,-23.9 2.3,-0.1 5.1,1.9 5.5,4.3 4.5,26.1 5.1,52.5 1.8,78.7 51.6,43.3 95.2,94.8 136.9,147.4 22.4,28.2 44.4,56.5 66.6,84.8 11.4,14.6 22.9,29.2 34.3,43.8 11,14 21.6,28.6 33.2,42.1 11.9,14 26.3,22.6 44.8,24 17.7,1.2 35.2,-2.4 52.3,-6.2 3.4,-0.8 7.6,1.6 7.3,5.5 -5.3,66.8 -9.1,145.9 48.3,192.8 12.8,10.5 27.9,18.4 43.8,23 7.5,2.2 16.6,2.7 22.3,8.7 5.7,6 6.1,15 6.1,22.7 0.2,19.9 -4,39.4 -4.8,59.3 -0.4,9.8 0.2,19.4 2.5,28.9"
     style="fill:#000000;fill-opacity:1;fill-rule:nonzero;stroke:none"
     transform="matrix(0.13333333,0,0,-0.13333333,0,4000)" />
  <path
     id="path7"
     d="m 6200.03,10894.7 c 49.44,42.5 91.77,93.1 125.17,149 50.06,-23.4 102.49,-41.5 156.44,-53.6 -83.42,-81.6 -163.93,-166.3 -241.13,-253.8 -17.8,-20.1 -35.3,-40.5 -52.77,-60.9 5.08,73 9.21,146.2 12.29,219.3 z m -125.07,1207.2 c -30.79,27 -64.15,50.7 -95.22,77.4 -31.65,27.1 -58.04,59.1 -87.83,88.1 -31.41,30.5 -68.04,53.7 -107.23,72.9 6.55,16.4 11.53,33.4 16.27,50.4 5.65,20.1 10.63,40.4 15,60.8 8.44,39.3 14.37,79.3 18.12,119.3 22.3,24.6 40.05,53.9 54.8,83.5 7.55,15.1 13.57,30.8 20.45,46.2 3.09,7 6.6,13.9 11.25,20 3.8,4.9 8.39,9.1 13.14,13.1 4.13,-4.1 8.68,-7.8 13.1,-11.6 0.09,-0.1 0.19,-0.2 0.28,-0.3 35.73,-46.1 79.1,-85.8 126.83,-119.3 52.71,-37 110.31,-66.6 169.53,-91.8 16.89,-7.1 33.92,-14 51.05,-20.5 8.45,-3.2 16.89,-6.3 25.34,-9.4 4.22,-1.5 8.45,-3 12.71,-4.6 2.09,-0.7 4.23,-1.4 6.32,-2.2 0.9,-0.3 1.8,-0.6 2.75,-0.9 1.04,-0.4 2.75,-1.5 2.37,-0.8 5.27,-5.5 9.87,-11.6 14.8,-17.3 5.27,-6.2 10.59,-12.4 16,-18.5 9.43,-10.6 19.4,-20.7 30.41,-29.7 -13.1,-30.3 -15.57,-63.3 -17.51,-96.1 -1.04,-17.9 -2.04,-36.1 -5.41,-53.8 -3.51,-18.6 -10.01,-36.3 -17.56,-53.5 -14.85,-34.2 -30.32,-68.2 -45.5,-102.3 -14.52,-32.5 -28.66,-65.3 -44.41,-97.3 -16.32,-33.3 -34.68,-65.9 -57.7,-95.1 -15.13,3.2 -30.41,5.7 -45.78,7.4 -0.05,34.5 -10.39,68.6 -26.1,99.2 -17.31,33.9 -41.85,61.8 -70.27,86.7 z M 10048.3,9777.7 c -16.5,8.3 -34.5,12.9 -52.75,13.2 -11.1,8.1 -23.63,14.6 -37.72,18.7 -29.7,8.6 -60.07,3.4 -87.25,-10.5 -28.28,-14.6 -52.01,-36.4 -77.2,-55.6 -101.96,-77.3 -223,-128.3 -349.12,-149.1 -57.65,-9.5 -116.39,-12.4 -174.7,-8.9 -5.13,6.1 -10.58,11.9 -17.32,16.2 -6.12,3.9 -13.14,5.8 -19.5,9.2 -7.26,4 -9.01,9.7 -10.3,17.5 -1.19,7.3 -2.75,14.1 -6.12,20.7 -5.93,11.9 -16.08,21.1 -26.99,28.3 -0.67,0.4 -1.33,0.8 -2,1.2 -3.7,29.5 -9.35,58.7 -19.07,86.8 -18.03,52.4 -50.01,98.6 -79.29,145.2 -29.94,47.5 -59.59,95.4 -90.01,142.7 -25.76,40.1 -52.75,79.6 -83.93,115.7 -17.6,20.4 -36.68,39.7 -57.36,57 -9.4,16 -19.17,31.9 -29.37,47.4 -67.85,103.5 -151.45,195.4 -237.43,284 -89.58,92.3 -180.49,183.3 -268.6,277.2 -89.39,95.1 -177.03,191.8 -262.86,290.2 -39.05,44.7 -76.68,90.9 -117.81,133.9 -30.65,31.9 -64.06,62.2 -101.92,85.4 -5.98,9.5 -12.15,18.9 -18.55,28 -22.35,31.9 -47.17,62 -73.6,90.5 -26.94,29.1 -55.27,57.8 -85.97,83 -15.85,13 -32.69,25.1 -51.24,34 -19.17,9.3 -39.52,14.6 -60.54,17.4 -43.28,5.8 -87.97,4.2 -131.2,-1.1 -86.07,-10.5 -169.24,-38.3 -245.97,-78.4 -51.29,-26.9 -99.59,-59.2 -144.95,-95.3 4.27,16.2 8.45,32.3 12.38,48.4 7.88,32.5 12.72,65.4 13.53,98.9 0.85,33 -1.48,66 -4.56,98.8 -12.67,134.7 -33.07,268.8 -37.96,404.2 -1.32,37.1 -1.85,74.3 0.05,111.4 0.71,14.6 2.19,29.8 5.93,44.1 50.53,-16.4 105.01,-20.7 157.48,-11.9 27.85,4.8 53.38,15.5 74.87,34 13.43,11.6 24.68,25.6 33.88,40.8 63.86,78.9 66.48,186.3 46.12,281.7 -5.84,27.4 -13.38,54.4 -21.64,81.2 -7.92,25.6 -16.36,51.1 -27.37,75.6 -22.11,49.5 -58.22,89.8 -92.34,131.2 -19.45,23.6 -38.62,47.5 -58.55,70.7 -4.55,5.3 -9.15,10.6 -13.9,15.7 8.35,2.1 15.56,7.9 20.26,15.7 7.97,13.4 6.93,28.6 0.05,42.2 -7.35,14.4 -20.07,25.3 -31.46,36.5 -13.05,12.8 -25.52,26.2 -37.91,39.7 -48.44,52.8 -96.98,108.1 -164.6,136.4 -22.82,9.5 -47.06,15.3 -71.54,16.1 -12.77,12 -27.52,22 -43.32,29.6 -45.03,21.7 -95.66,23.5 -144.1,14 -17.75,-3.4 -35.07,-8.4 -52.1,-14.3 -26.38,11.5 -53.76,20.7 -81.9,26.9 -31.26,6.9 -63.05,8.9 -94.7,13.3 -15.66,2.2 -30.98,5.6 -46.21,9.7 -14.81,4.1 -29.61,8.1 -44.89,9.8 -27,2.8 -53.95,-3.2 -78.53,-14.1 -12.99,-5.8 -25.28,-13 -36.91,-21.1 -40.04,57.1 -100.4,99.4 -167.63,118.2 -7.97,2.2 -16.04,3.9 -24.15,5.4 -1.38,70.3 -2.76,140.5 -4.13,210.8 -0.67,33.1 0.85,66.9 -12.05,98 -10.87,26.1 -28.8,48.8 -50.2,67 -50.01,42.6 -115.16,58.9 -177.31,74.9 -35.21,9 -70.46,17.9 -105.91,26.2 -33.92,7.8 -68.08,15.6 -102.58,20.3 -36.39,4.8 -73.83,4.5 -107.8,-10.9 -12,-5.5 -23.01,-12.5 -33.4,-20.5 -21.31,0.3 -42.61,0.7 -63.87,0.9 -28.89,0.4 -58.22,0.2 -85.26,-11.2 -25.1,-10.6 -46.17,-28.3 -66.43,-46.1 -22.63,-20 -44.55,-40.6 -65.66,-62.1 -19.46,-19.8 -39.43,-40 -54.19,-63.6 -14.99,-24.1 -20.97,-51.2 -23.82,-79.1 -6.31,-61.7 -7.97,-124.3 -8.3,-186.3 -0.28,-53.6 1.28,-107.3 4.55,-160.8 -7.87,2.8 -16.08,4.2 -24.91,3.1 -35.53,-4.4 -49.01,-42.4 -48.63,-73.5 0.42,-35.2 7.59,-71.4 16.99,-105.1 9.34,-33.6 22.25,-66.3 38.33,-97.3 11.15,-21.5 23.92,-42.1 38.06,-61.7 -7.5,-33 -15,-65.9 -22.49,-98.8 -28.95,5.1 -60.31,-9.3 -72.93,-36.6 -6.69,-14.5 -8.3,-31 -4.37,-46.5 3.94,-15.7 14.05,-27.7 25.2,-38.7 -19.31,-24 -40.09,-46.7 -62.16,-68 -49.72,8.3 -97.55,30.8 -148.55,31.2 -15.76,0.1 -34.12,-0.7 -47.07,-10.7 -12.86,-10 -19.22,-27.4 -24.54,-42.3 -11.57,-32.2 -15.37,-66.5 -19.02,-100.3 -1.9,-17.6 -3.85,-35.3 -6.74,-52.9 -0.43,-0.2 -0.8,-0.6 -1.23,-1 -14.38,-15.6 -28.75,-31.1 -43.18,-46.6 -14.04,-15.1 -28.61,-30 -41.75,-46 -10.39,-12.6 -19.03,-26.4 -25.67,-40.9 -57.7,-55 -100.4,-123.3 -131.95,-196.1 -32.41,-74.9 -54.14,-153.8 -72.55,-233.2 -21.92,-94.3 -41.14,-189.4 -59.36,-284.5 -18.98,-99.3 -36.34,-198.9 -52,-298.8 -7.36,-46.7 -15.32,-93.6 -19.17,-140.8 -2.33,-28.4 -2.89,-57.2 -0.1,-85.7 -18.5,-113.5 -19.35,-229.5 -2.55,-343.4 8.68,-58.7 23.34,-115.7 39.33,-172.8 7.92,-28.5 14.56,-57 19.83,-86.2 4.94,-27.1 10.3,-54.4 22.25,-79.5 8.4,-17.6 19.93,-33.5 33.74,-47.1 -4.7,-6.6 -7.26,-14.7 -7.93,-23 -1.23,-15 4.8,-29.3 13.1,-41.6 9.68,-14.2 21.54,-26.7 30.84,-41.2 9.07,-14.2 16.65,-29.3 23.02,-44.9 13.14,-32.1 21.72,-65.9 30.46,-99.4 9.15,-35 19.12,-69.8 30.12,-104.2 22.26,-69.4 48.59,-137.4 78.72,-203.8 30.32,-66.7 64.48,-131.6 102.39,-194.4 9.35,-15.4 18.94,-30.8 28.71,-45.9 9.77,-15.2 19.31,-30.7 30.36,-45 8.31,-10.6 18.42,-19.1 30.66,-24 -0.91,-40 17.6,-78 35.58,-113.2 12.81,-25 25.34,-50.4 30.41,-78.3 0.29,-1.6 1,-2.8 1.9,-3.7 1.1,-22.7 2.14,-45.5 3.23,-68.3 0.47,-11 3.04,-23.1 -3.75,-32.6 -5.88,-8.3 -11.29,-15.9 -14.85,-25.6 -14.85,-40.5 1.66,-82.9 13.95,-121.6 6.97,-21.9 11.29,-43.9 13.14,-66.8 1.85,-22.6 2.37,-45.3 5.17,-67.7 2.8,-22.1 8.02,-43.2 17.42,-63.4 9.63,-20.6 21.3,-40.3 30.98,-61 4.37,-9.3 8.97,-18.8 14.04,-28.2 -0.94,-1.8 -0.99,-4.1 0.43,-6.4 52.39,-82.7 106.66,-164.3 162.8,-244.5 23.96,-34.2 47.06,-71 78.33,-99.1 15.14,-13.6 32.22,-24.7 51.34,-31.7 20.31,-7.4 42.46,-9.8 63.96,-8.8 14.95,0.8 29.51,3.2 43.74,6.7 -0.71,-28 1.76,-56.1 13.81,-81.6 8.92,-19 23.54,-33.7 39.81,-46.6 16.7,-13.2 34.4,-25.3 53.62,-34.7 11.95,-5.9 24.34,-10.6 37.05,-14 4.03,-14.7 11.15,-28.6 21.5,-40.7 17.79,-20.6 41.99,-33.8 66.99,-44.5 0,-12.6 2.04,-25.1 6.17,-37 2.8,-8.1 6.5,-15.9 11.15,-23.2 4.7,-7.2 13.24,-14.4 14.38,-23.4 1.23,-9.8 -3.56,-19.2 -1.42,-29.3 1.75,-8.3 6.64,-15.5 12.28,-21.7 7.31,-8.1 16.28,-14.4 24.82,-21 0.47,-0.4 0.95,-0.8 1.47,-1.2 31.6,-122.7 70.27,-243.6 115.86,-361.7 45.84,-118.9 98.51,-235.2 157.82,-348 25.09,-47.8 50.77,-96.4 84.36,-138.8 -11.62,-24.8 -17.89,-51 -9.4,-79.5 5.6,-18.9 15.8,-35.8 27.1,-51.8 -0.24,-1.2 -0.53,-2.4 -0.76,-3.6 -4.65,-27.7 -0.1,-55.4 7.02,-82.4 -12.15,-33.6 -16.84,-69.8 -13.43,-105.4 -10.24,-17.5 -20.02,-35.3 -29.13,-53.3 -34.92,-69.6 -59.69,-145 -63.39,-223.2 -1.38,-29.4 0.52,-59.1 5.88,-88 -35.54,-62.3 -65.47,-127.9 -90.86,-195 -24.91,-65.8 -47.4,-133.4 -62.01,-202.2 -15.23,-71.6 -21.69,-144.7 -23.4,-217.8 -1.32,-56.3 0.19,-112.5 2.62,-168.8 -10.68,-33.5 -21.02,-67.3 -26.96,-102 -7.63,-44.7 -6.5,-90.1 -1.94,-135.1 4.56,-44.6 11.15,-89 18.27,-133.3 5.17,-32.3 10.91,-64.4 17.13,-96.5 -9.45,-18.1 -18.6,-36.4 -27.15,-55 -19.5,-42.3 -36.01,-86.4 -44.88,-132.3 -8.87,-45.8 -8.87,-91.5 0.28,-137.2 7.21,-35.9 18.6,-73.1 18.56,-110 -0.05,-0.1 -0.1,-0.1 -0.19,-0.2 -25.01,-20.4 -56.75,-30.3 -84.98,-45.1 -28.04,-14.6 -51.77,-35.3 -65.96,-64.1 -13.8,-27.8 -18.12,-59.7 -11.05,-90.1 5.36,-23.3 17.04,-44.8 33.21,-62.1 -8.21,-11.7 -17.41,-22.6 -25,-34.7 -8.83,-14 -15.8,-30.3 -15.37,-47.2 0.28,-10.4 3.46,-20.3 8.68,-29.2 -4.75,-31.7 -8.73,-63.6 -11.58,-95.6 -1.28,-13.9 -2.04,-28 -1.28,-41.9 -16.46,-38 -20.21,-79.6 -21.11,-120.7 -0.43,-19.9 -4.18,-44.2 8.73,-61.1 11.81,-15.4 31.79,-25.6 49.2,-33.2 38.43,-16.9 80.23,-22.7 121.65,-26.5 47.83,-4.4 95.85,-7 143.91,-8 96.84,-2.1 193.59,3 289.81,13.9 48.07,5.5 96.46,11.5 144.91,8.4 48.35,-3.1 95.89,-15 143.58,-22.8 94.99,-15.7 190.97,-25.5 287.19,-29.3 9.83,-0.4 19.65,-0.7 29.47,-1 1.14,-1.1 2.71,-1.8 4.79,-1.8 78.91,1.2 157.86,2.4 236.76,3.5 35.5,0.6 70.75,2 105.15,11.5 29.84,8.1 58.55,21.1 84.41,38.1 26.38,17.2 51.1,38.8 69.84,64.3 9.44,12.9 17.22,27.7 19.79,43.7 2.65,16.4 -0.52,32.5 -7.31,47.6 -12.72,28.1 -36.01,51.7 -60.26,70.2 -24.96,19 -53.37,33.1 -83.03,43.2 -72.84,24.7 -153.59,25.1 -227.27,3.6 -15.95,6.6 -31.18,14.8 -44.98,25.3 -16.95,12.9 -30.57,29.5 -44.04,45.9 -13.57,16.4 -27.66,32.2 -43.03,47 -30.6,29.4 -64.58,55.1 -99.26,79.5 -35.02,24.7 -70.42,49.2 -106.67,72.1 -29.37,18.5 -59.83,35.4 -91.8,48.9 -4.23,29.1 -9.4,58 -15.09,86.8 -6.17,31.1 -12.48,62.2 -19.41,93.1 -6.08,27.1 -13.05,54.1 -23.3,80 -3.37,8.6 -7.16,17 -11.33,25.2 19.3,10.8 37.86,22.9 55.46,36.5 16.13,12.4 32.69,25.6 45.07,41.9 13.34,17.5 16.52,37.2 15.99,58.8 -2.51,96.3 -7.68,192.7 -11.67,289.1 -3.65,89 -6.83,178 -8.25,267.1 23.01,71.6 45.45,143.4 67.18,215.3 30.51,101.2 59.74,202.6 87.59,304.5 15.61,56.9 30.74,113.9 45.51,171.1 25.81,78.8 51.28,157.7 75.15,237.2 26.48,88.1 51.05,176.8 72.12,266.4 21.07,89.6 38.53,180.1 50.77,271.4 12.19,91 19.26,182.6 19.41,274.5 0.14,72.6 -4.18,145.2 -13.43,217.3 15.94,70.6 16.03,144.5 8.54,216.8 -11.63,112.6 -37.96,223.4 -59.12,334.4 -22.87,119.9 -44.41,240.1 -63.11,360.8 -18.6,120.5 -34.35,241.4 -45.54,362.7 -9.74,105 -16.04,210.4 -17.94,315.8 31.41,24.9 62.15,50.7 92.1,77.4 58.78,52.5 114.63,108.4 167.15,167.1 52.24,58.6 101.25,120 146.76,184 45.69,64.2 87.73,131 125.88,200 20.87,37.7 40.47,76.1 58.93,115 0.47,0.7 0.89,1.3 1.37,1.9 12.67,17.9 24.01,37 29.71,58.1 0.18,0.3 0.37,0.5 0.51,0.9 34.92,88.3 70.18,177.1 119.43,258.5 12.24,20.3 25.34,40 39.43,59 13.81,18.7 28.33,37.4 45.22,53.3 4.03,3.8 8.21,7.3 12.62,10.6 2.51,1.9 4.36,3.1 5.08,6.4 0.66,3.2 0.42,7 0.56,10.3 0.67,13.4 1.19,26.7 1.67,40.1 0.7,21.5 1.09,42.9 1.32,64.3 5.13,1.6 10.3,2.6 15.52,3.2 19.17,-15.4 38.53,-32.3 49.82,-54.4 6.5,-12.6 8.02,-25.4 7.73,-39.4 -0.28,-13.8 0.86,-27.6 11.49,-37.8 4.88,-4.5 10.81,-7.9 16.46,-11.4 6.45,-4 12.48,-8.5 18.08,-13.5 11.1,-9.9 20.78,-21.3 29.7,-33.2 19.78,-26.2 38.29,-53.4 57.79,-79.8 40.09,-54.4 81.56,-107.8 124.41,-160 39.95,-48.7 80,-99.3 130.29,-138 32.74,-25.2 71.5,-44.8 112.12,-52.4 -0.71,-12.4 5.41,-24.4 14.66,-32.9 12.34,-11.3 28.85,-15.4 44.08,-21.2 29.18,-11.1 51.81,-33.8 68.23,-59.8 16.04,-25.4 24.67,-54.4 39.62,-80.3 7.4,-12.8 16.55,-24.6 28.37,-33.7 13.76,-10.5 30.17,-16.6 45.59,-24.3 23.49,-11.8 45.75,-25.7 66.62,-41.6 -5.59,-12.5 -7.45,-25.9 -0.09,-39.2 10.67,-19.3 33.92,-25.9 50.1,-39.2 8.36,-6.8 15.47,-14.9 21.3,-23.7 -0.04,-0.5 -0.04,-1.1 0,-1.6 1.57,-13.7 -6.16,-25.5 -10.95,-37.7 -5.36,-13.5 -5.98,-27.7 -2.52,-41.8 4.51,-18.5 15.09,-35 26.67,-50.6 -4.18,-12.1 -6.08,-24.3 -1.1,-37.4 6.46,-16.8 21.83,-26.7 37.77,-33.5 19.5,-8.4 39.62,-15 58.74,-24.3 13.05,-6.3 25.72,-13.4 38.05,-20.9 -0.47,-3.9 -0.8,-7.8 -1.04,-11.7 -1,-18.9 1.47,-37.9 7.5,-55.7 -6.03,-4.6 -11.91,-9.4 -17.46,-14.5 -12.43,-11.4 -29.8,-26.3 -31.98,-44.1 -1.42,-11.2 3.75,-21.7 9.96,-30.6 5.32,-7.6 11.15,-14.9 17.37,-21.8 -0.62,-14.7 12.43,-24 25.48,-27 7.87,-1.8 16.32,-2.8 24.43,-2.5 8.5,0.3 16.42,2.7 24.58,4.8 4.75,1.2 9.54,2.1 14.33,2.5 17.37,-11.8 22.68,-36.7 27.47,-56.1 6.5,-26.2 14.62,-53.4 27.09,-77.4 5.03,-9.7 12.48,-18.3 23.21,-21.5 6.64,-2 13.42,-1.3 19.88,0.7 22.87,-41.9 53.14,-82.3 93.18,-108 -2.65,-15.2 -3.37,-30.7 0.38,-46 5.65,-23.1 20.74,-42.2 36.06,-59.8 14.95,-17.1 31.22,-35.2 52.39,-44.7 9.72,-4.3 20.21,-6.6 30.93,-5.3 5.7,0.8 10.92,3.3 16.56,4.2 6.13,1 10.53,-3.3 14.81,-7.1 20.4,-18.1 43.84,-31.7 70.03,-39.5 4.6,-1.4 8.82,2.3 9.01,6.9 0.86,21.1 1.33,42.3 2.61,63.5 0.62,9.4 2.95,17.1 9.59,23.9 6.5,6.7 14.33,12.3 21.63,18.1 8.31,6.7 16.66,13.3 25.01,19.9 3.7,3 7.4,6 11.1,8.9 1.19,1 4.51,4.6 6.22,4.5 0.66,0 2.13,-2.1 2.46,-2.4 5.03,-5.5 9.35,-10.2 16.99,-11.9 3.7,-0.8 7.54,-0.8 11.25,-0.1 2.56,-1.8 6.21,-2.3 9.34,0.1 65.91,51.5 127.45,108.5 183.72,170.4 28.33,31.1 54.37,63.9 81.28,96.2 26.05,31.4 54.42,59.5 87.44,83.5 61.02,44.2 130.53,77.9 182.86,133.2 11.68,12.4 23.78,27.1 39.81,33.8 7.88,3.3 15.76,3.5 23.78,0.7 8.87,-2.9 17.08,-6.8 26.71,-5.8 17.7,1.8 31.27,15.1 41.71,28.5 12.14,15.6 23.57,32.7 31.78,50.7 8.22,18.2 12.67,37.8 8.45,57.6 -1.05,4.9 -2.75,9.7 -2.9,14.8 -0.14,5 1.85,9.4 4.33,13.8 4.83,8.5 10.34,16.8 15.75,25.1 21.3,32.8 48.35,65.8 88.03,75.6 9.1,2.2 18.3,2.8 27.6,1.9 3.9,-0.3 7.1,3.6 7.2,7.2 0,20.4 -5.5,40.5 -16,58 15.2,29 30.7,57.8 45.6,86.9 13.8,27.2 26.3,55.8 28.7,86.6 3.7,49.3 -26.3,95 -69.6,117"
     style="fill:#000000;fill-opacity:1;fill-rule:nonzero;stroke:none"
     transform="matrix(0.13333333,0,0,-0.13333333,0,4000)" />
  <path
     id="path8"
     d="m 10400.2,21375.2 c -2.6,17 -9.8,33 -19.2,47.2 -22.9,34.7 -57.7,58.9 -84.1,90.6 -1,1.2 -2.1,1.7 -3.2,1.7 -20.4,19.7 -51.5,21.9 -78.6,21.2 -17.7,-0.5 -36.4,-0.8 -53.3,-6.3 -17.3,-5.6 -31.3,-17.2 -44.5,-29.2 -24.2,-22.1 -45.9,-46.8 -71.6,-67.3 -12.2,-9.7 -25.5,-18.4 -39.9,-24.6 -15.68,-6.7 -32.98,-7.8 -48.71,-14.3 -17.98,-7.4 -28.33,-23.4 -37.2,-39.9 -6.2,-11.4 -12.34,-22.9 -18.47,-34.4 -15.69,-5.4 -32.04,-9.6 -46.7,-16.8 -26.79,-13.1 -42.72,-37.5 -58.79,-61.6 -2.19,-3.3 -4.39,-6.5 -6.65,-9.8 -6.81,-1.7 -13.64,-3.3 -20.49,-4.8 -12.47,-2.6 -25.04,-4.7 -37.69,-6.3 -11.16,-1.4 -22.54,-2.7 -32.3,-8.8 -8.57,-5.4 -15.08,-13.3 -20.77,-21.5 -6.78,-9.8 -12.84,-20.1 -19.18,-30.2 -13.88,-22.2 -27.76,-44.4 -41.63,-66.6 -7.84,-12.5 -15.69,-25.1 -23.54,-37.6 -0.78,-1.3 -1.61,-2.6 -2.43,-3.9 -9.49,-4.3 -19.39,-7.8 -29.16,-11.4 -22.54,-8.1 -45.46,-16.7 -63.49,-33.1 -19.73,-17.9 -32.58,-42.1 -53,-59.4 -11.2,-9.5 -23.81,-17.2 -36.07,-25.2 -13.64,-8.8 -27.24,-17.6 -40.84,-26.4 -13.91,-9.1 -27.69,-18.4 -41.84,-27 -41.49,4.9 -83.02,9.8 -124.1,17.5 -20.62,3.9 -41.01,8.7 -61.29,14 -18.95,5.1 -38.31,9.8 -58.04,9.3 -0.82,0.8 -1.92,1.4 -3.36,1.5 -107.96,8.1 -215.23,24.4 -320.68,48.9 -25.98,6 -52.12,11.9 -77.57,19.9 -23.65,7.3 -45.03,18.2 -65.58,31.9 -19.33,12.9 -37.76,27.1 -57.77,39 -9.7,5.8 -19.73,10.9 -30.22,15.1 -5.65,2.2 -11.47,4 -17.54,4.4 -6.1,0.4 -11.61,-1.6 -17.47,-2.8 -12.95,-2.6 -22.1,9.5 -27.89,19.4 -5.58,9.7 -8.74,20.6 -10.17,31.7 -1.48,11.2 -1.38,22.5 -0.42,33.8 7.88,11.3 15.42,22.9 22.31,34.8 12.4,21.5 22.78,44.4 29.91,68.2 7.81,26 11.89,53 14.52,80 2.68,27.6 4.94,55.7 4.76,83.4 -0.13,25.5 -3.76,50.7 -12.57,74.7 -16.07,43.9 -45.7,81.9 -81.3,111.8 -39.03,32.8 -84.49,56.7 -130.95,77 -49.23,21.6 -99.97,40 -152.05,53.3 -97.99,25.1 -202.22,32.2 -300.82,6.5 -64.52,-16.9 -126.63,-47.2 -177.27,-90.9 5.89,12.9 12.06,25.7 18.53,38.3 1,1.9 0.72,3.7 -0.2,5.1 39.47,83.8 83.97,164.9 131.97,244.2 25.26,41.7 50.09,87.6 47.15,138 -1.3,22 -8.36,43.1 -20.6,61.4 -11.06,16.5 -25.45,30.5 -41.07,42.7 -18.16,14.2 -37.86,26.2 -57.77,37.7 -18.02,10.4 -36.08,20.8 -54.13,31.2 5.17,42.6 9.86,85.3 14.01,128.1 15.42,1 30.8,2.4 46.15,4.3 19.25,2.4 38.44,5.5 57.53,9.2 15.93,3.2 31.79,7.4 42.21,20.8 10.17,13.2 15.14,30.8 17.64,47 2.68,17.4 2.4,34.9 0.07,52.4 -4.9,36.4 -17.99,71 -32.03,104.8 -16.72,40.3 -35.71,79.5 -54.72,118.8 -0.48,1 -1.13,1.7 -1.85,2.1 -0.03,0 -0.07,0.1 -0.1,0.2 -9.97,18.5 -20.73,36.6 -32.38,54.2 -11.51,17.3 -23.6,34.4 -37.82,49.7 -13.47,14.3 -28.88,26.7 -44.27,38.9 -15.18,12 -30.6,23.8 -46.29,35.1 -31.28,22.5 -63.86,43.3 -98.36,60.5 -35.39,17.6 -72.37,30.8 -110.94,39.4 -11.69,2.6 -23.44,5.1 -35.23,7.4 -11.61,2.3 -23.57,4.2 -35.42,3.3 -15.15,-1.2 -28.95,-7 -42.04,-14.2 -55.13,33.4 -110.26,66.7 -165.38,100 -13.44,8.2 -26.97,16.4 -38.75,26.8 -10.62,9.4 -18.64,20.8 -27.75,31.5 -8.54,10.1 -18.64,19.2 -31.59,23 -14.39,4.2 -30.33,1.9 -44.99,0.4 -22.44,-2.4 -46.36,-7.2 -63.86,-21.5 -9.39,1.2 -18.81,1.9 -28.27,2.2 -11.72,0.4 -25.35,1.5 -36.38,-3.2 -5.42,-2.3 -9.26,-6.1 -12.17,-10.6 -41.42,7.9 -83.9,10.2 -126.05,8.3 -29.29,-1.2 -58.45,-4.5 -87.4,-9 -26.04,-4 -52.66,-8.2 -77.94,-15.8 -12.85,-4 -25.84,-9.4 -36.73,-17.4 -50.4,-8.7 -99.53,-23.8 -146.34,-44.4 -47.31,-20.8 -92.12,-47.4 -133.2,-78.8 -41.08,-31.4 -78.53,-67.5 -111.05,-107.7 -34.67,-42.9 -64,-90.3 -85.65,-141.1 -22.34,-52.4 -36.63,-108.7 -37.76,-165.8 -2.67,0.1 -5.38,0.2 -8.05,0.5 -2.54,0.4 -5.45,-2.6 -5.14,-5.1 4.66,-39.1 9.32,-78.2 13.98,-117.3 2.26,-18.9 4.28,-37.9 6.85,-56.8 2.23,-16.3 5.69,-33.4 15.56,-47 6.13,-8.3 14.52,-15.5 24.19,-19.2 1.23,-17.1 4.24,-34 8.97,-50.5 -61.26,-48.6 -120.87,-99.6 -177.41,-153.6 -19.22,-18.4 -37.78,-37.4 -54.85,-57.8 -1.33,-1.6 -1.5,-3.5 -0.99,-5.1 -6.3,-15.8 2.7,-33.4 17.99,-40.2 18.77,-8.4 38.88,-2 56.42,6.3 26.35,12.4 52.05,26.5 77.02,41.6 31.43,4.2 63.05,6.9 94.74,5 11.27,-0.8 22.78,-1.7 33.78,-4.4 9.18,-2.2 18.43,-6 24.26,-13.7 6.51,-8.7 4.04,-18.3 3.7,-28.2 -0.34,-10 0.14,-19.7 -3.5,-29.2 -6.23,-16.4 -20.72,-28.9 -36.21,-36.4 -19.09,-9.2 -40.67,-12.1 -61.47,-14.9 -22.47,-2.9 -44.95,-6.3 -67.53,-8.6 -22.71,-2.3 -45.43,-1.4 -68.21,-1.9 -23.51,-0.4 -46.7,-3.5 -68.76,-11.9 -4.12,-1.6 -8.12,-3.4 -12.1,-5.2 -20.93,4.4 -42.31,7.1 -63.55,9 -47.39,4.5 -95.22,7 -142.77,3.7 -46.5,-3.2 -92.85,-12 -135.99,-30.1 -42.69,-17.9 -80.86,-44.6 -115.7,-74.8 -9.8,-8.5 -19.32,-17.3 -28.68,-26.2 -9.28,-8.9 -18.6,-17.9 -26.17,-28.4 -9.97,-13.7 -15.15,-29.4 -18.54,-45.8 -36.87,-5.6 -73.25,-14.7 -108.51,-26.9 -62.59,-21.7 -121.8,-53.3 -174.52,-93.5 -15.25,-11.6 -29.98,-23.9 -44.07,-37 -49.33,-2.1 -96.96,-19.9 -140.37,-43 -47.48,-25.2 -91.92,-56.5 -132.28,-91.9 -40.36,-35.5 -76.65,-75.4 -108.06,-119 -32.93,-45.6 -60.55,-95.5 -78.22,-149.1 -16.72,-50.5 -24.05,-104.3 -18.84,-157.4 -32.28,-34.5 -57.43,-75.8 -80.73,-116.8 -18.43,-32.5 -36.21,-65.3 -57.11,-96.3 -21.42,-31.6 -47.52,-59.4 -71.06,-89.4 -17.03,-21.6 -32.69,-45.1 -42.62,-70.9 -24.53,-28.7 -49.27,-57.3 -73.05,-86.8 -23.33,-28.8 -45.63,-58.7 -64.24,-90.8 -19.08,-33 -33.3,-68.1 -42.04,-105.2 -9.73,-41.4 -17.99,-83.2 -26.76,-124.8 -4.86,-23.1 -9.22,-46.3 -10.96,-69.8 -0.41,-5.5 -0.69,-11 -0.82,-16.5 -8.12,-11.9 -14.97,-24.9 -21.31,-37.7 -16.48,-33.4 -31.56,-67.6 -45.16,-102.2 -6.79,-17.3 -12.75,-34.8 -15.97,-53.1 -3.25,-18.3 -4.45,-36.8 -5.38,-55.4 -1.88,-37.9 -3.42,-75.8 -4.86,-113.7 -0.69,-18.6 -2.43,-39.7 1.13,-59.1 -34.88,-40.1 -57.56,-89.2 -72.09,-140.1 -17.02,-59.6 -23.98,-121.8 -31.31,-183.3 -7.3,-61 -12.58,-122.9 -4.42,-184.1 3.97,-29.8 11.54,-58.8 21.62,-87.1 10.07,-28.2 22.13,-55.7 33.64,-83.4 20.94,-50.4 40.71,-103.6 41.22,-158.8 -35.12,-29 -67.63,-61 -99.15,-93.9 -40.3,-42 -79.59,-85.1 -119.27,-127.7 -42.76,-46 -85.48,-91.9 -128.24,-137.9 -42.72,-46 -85.45,-91.9 -128.21,-137.9 -4.59,-4.9 -9.18,-9.8 -13.77,-14.8 -0.99,-0.1 -2.02,-0.6 -2.95,-1.6 -35.87,-40.9 -71.78,-81.8 -108.44,-122.1 -36.8,-40.4 -74.34,-80.1 -113.37,-118.4 -19.29,-19 -38.95,-37.6 -59.03,-55.7 -19.67,-17.8 -39.99,-34.9 -59.2,-53.1 -9.53,-9.1 -18.78,-18.4 -27.45,-28.3 -8.33,-9.4 -16.55,-19.3 -22.72,-30.4 -5.79,-10.3 -9.8,-22 -9.07,-34 0.75,-12.1 5.82,-23.4 12.33,-33.4 23.26,-36 63.08,-68.5 67.22,-113 -48.89,-31.6 -96.72,-64.7 -143.35,-99.5 -14.67,-11 -29.33,-21.9 -43.58,-33.4 -13.57,-10.8 -26.38,-22.7 -36.15,-37.2 -17.91,-26.7 -25.01,-60.3 -21.82,-92 3.05,-30.3 14.73,-58.8 31.62,-83.9 -30.18,-33.7 -60.47,-67.4 -89.94,-101.8 -32.34,-37.8 -63.45,-77.5 -85.21,-122.5 -6.47,-13.3 -11.99,-27.1 -16.47,-41.1 -0.48,-0.1 -0.96,-0.3 -1.45,-0.5 -20.38,-9.3 -39.98,-20.2 -58.65,-32.7 -16.69,-11.1 -32.76,-23.5 -46.29,-38.4 -26.82,-29.5 -42.86,-70.4 -30.49,-109.9 5.72,-18.3 15.9,-34.7 24.84,-51.5 4.49,-8.5 8.7,-17 11.75,-26.1 3.46,-10.3 5.04,-21 5.55,-31.8 0.52,-11.4 0.14,-22.7 0.41,-34.1 0.28,-10 0.21,-21.5 4.49,-30.7 8.43,-18.2 31.72,-17 48.52,-16.5 25.31,0.7 50.98,3.4 76.5,4 0.52,-0.3 1.07,-0.6 1.78,-0.8 75.55,-17.3 123.14,-91.8 200.26,-105.8 24.4,-4.4 49.38,-3.5 74.08,-3.3 25.52,0.2 51.08,0.3 76.61,0.6 51.63,0.3 103.3,0.7 154.93,1.1 28.67,0.2 62.94,-1.8 91.61,8 14.02,2.7 28.06,5.4 42.35,6.1 13.61,0.6 27.03,-0.9 40.29,-3.8 26.59,-6 51.67,-16.9 77.4,-25.6 41.53,-13.9 93.64,-21.5 130.16,8.6 6.68,5.5 12.27,12.1 17.92,18.6 0.38,0 0.79,0 1.23,0.1 45.61,10 93.2,11.4 139.28,3.8 43.79,-7.2 86.41,-22.5 131.12,-23.4 39.36,-0.8 79.14,10.3 105.7,40.8 13.43,15.5 23.36,33.8 31.14,52.7 8.5,20.5 12.74,42 10.07,64.2 -3.05,25.4 -11.65,49.7 -15.66,74.8 -1.91,12 -3.08,24.1 -3.59,36.3 15.55,16.8 27.65,36.4 31.21,59.8 2.98,19.4 -0.86,37.3 -10.41,54.3 -4.94,8.7 -9.94,17.4 -13.91,26.6 -3.95,9.3 -7.3,18.8 -10.8,28.2 -6.2,16.8 -13.12,33.1 -23.06,48 -8.6,12.8 -18.81,24.5 -30.25,34.7 -23.19,20.8 -50.98,36 -80.41,46 -17.99,6.1 -36.7,10.1 -55.64,12.4 -32.24,32.7 -61.16,68.8 -88.43,105.7 -2.06,2.7 -4.08,5.5 -6.14,8.3 56.67,65.5 113.75,130.6 172.07,194.6 30.77,33.7 62.32,66.9 96.48,97.3 17.4,15.4 35.46,30.2 54.34,43.8 19.73,14.3 40.12,27.6 59.85,41.8 38.48,27.8 73.25,60.1 108.17,92.1 36.9,33.8 73.8,67.6 110.73,101.5 70.55,64.6 141.43,129 210.44,195.3 58.38,56.1 115.36,113.8 169.08,174.4 0.48,-0.1 0.96,-0.2 1.54,-0.2 61.16,0.3 119.33,41.3 140.2,98.8 0.34,0.9 0.65,1.9 0.96,2.8 0.38,0 0.79,-0.1 1.23,-0.1 24.67,0.3 49.41,0.5 74.07,-1.4 24.54,-1.9 48.42,-6.7 71.99,-13.7 45.91,-13.7 91,-29.8 137.39,-41.8 46.01,-12 93.19,-21 140.78,-22.8 23.95,-0.9 48.14,0.4 71.54,5.6 20.45,4.6 40.09,12.6 58.25,23.1 26.48,15.2 49.74,35.1 70.78,57.2 36.52,-6 73.18,-11.3 110.12,-13.4 46.6,-2.6 93.12,1.7 139.54,5.1 47.08,3.5 94.15,7.4 140.99,13.6 45.91,6.1 91.65,14.9 138.08,15.9 29.22,0.6 59,-2.1 87.02,-10.4 -14.83,-23.9 -29.67,-47.8 -44.54,-71.7 -17.34,-28 -35.32,-55.7 -50.33,-85.1 -13.09,-25.6 -23.47,-52.5 -30.7,-80.3 -14.05,-54.2 -16.61,-111 -8.22,-166.3 4.25,-27.8 11.34,-55.2 21.31,-81.6 9.63,-25.5 21.45,-51.6 37.65,-73.7 7.95,-10.9 17.62,-20.9 30.02,-26.5 14.11,-6.4 29.77,-6.6 44.95,-8 18.77,-1.7 37.45,-4.3 55.98,-7.8 -24.74,-35.8 -51.39,-70.3 -79.86,-103.2 -9.46,-11 -19.19,-21.7 -28.95,-32.3 -8.74,-9.6 -17.55,-19.5 -23.26,-31.3 -12.92,-26.5 -4.6,-54.7 7.36,-80 8.26,-17.4 19.5,-36.1 24.19,-55.5 -10.14,-15.2 -22.1,-29 -34.5,-42.5 -15.21,-16.5 -30.8,-32.9 -43.24,-51.7 -11.04,-16.7 -18.74,-35.9 -21.38,-55.7 -0.38,-3 -0.65,-6 -0.75,-9 -0.76,-0.2 -1.51,-0.7 -2.2,-1.3 -55.88,-56.3 -67.49,-149 -26.86,-217.1 45.57,-76.3 133.42,-108.8 206.77,-151.1 21.96,-12.6 43.37,-26.5 62.53,-43.2 20.49,-17.8 37.14,-39.5 57.29,-57.6 2.53,-2.3 6.2,-1.9 8.05,1 15.96,24.7 34.87,53.6 64.96,62 18.84,5.2 39.43,1.4 58.48,-0.9 19.97,-2.3 39.95,-4.9 59.89,-7.5 39.85,-5.3 79.73,-10.7 119.75,-14.6 38.3,-3.6 77.22,-6.4 115.7,-4.7 18.29,0.9 37.41,3.4 54.85,9.6 72.53,-20.2 146.61,-35.5 221.64,-42.4 37.51,-3.4 75.24,-4.7 112.89,-3.3 38.61,1.5 76.65,6.9 114.99,11.5 38.95,4.7 77.53,5.5 116.69,3.2 38.75,-2.3 77.36,-5.3 116.18,-5.5 39.16,-0.2 78.29,1.5 117.28,5.2 32.79,3 65.82,7 97.58,16.1 29.7,8.4 58.38,21.7 81.4,42.7 14.29,12.9 25.63,28.4 35.33,45 27.13,2.3 54.1,7.7 79.83,15.1 17.23,5 34.77,10.4 50.91,18.4 14.02,7 28.17,16.8 35.7,30.9 9.32,17.5 5.04,36.3 -3.42,53.1 -8.57,17.1 -19.09,33.3 -30.29,48.7 -22.34,30.8 -48.72,58.5 -78.46,82.2 -31.86,25.2 -67.01,45 -104.3,61.1 -40.42,17.4 -82.12,31.7 -123.1,47.7 -42.04,16.4 -83.7,33.8 -124.4,53.3 -38.92,18.7 -76.75,39.7 -116.76,56 -30.91,12.6 -63.84,22.5 -97.31,24.1 -13.23,8.7 -26.69,17.1 -39.61,26.3 -13.73,9.8 -25.62,21.3 -37.99,32.7 -3.19,2.9 -6.48,5.9 -9.87,8.6 16.96,25.5 36.97,49.1 57.7,71.5 21.62,23.4 44.23,45.8 66.36,68.8 23.57,24.5 46.77,49.3 69.59,74.5 45.77,50.6 89.9,102.7 132.35,156.1 42.39,53.4 83.12,108.1 122.04,164.1 32.69,47 64.04,94.9 94.15,143.5 11.86,3.2 23.57,6.9 35.02,11.4 38.54,15.2 71.09,40 99.46,69.9 28.54,30.1 53.38,63.8 78.53,96.7 26.21,34.3 51.8,69.1 74.76,105.7 15.21,24.3 29.15,49.4 41.25,75.3 9.87,2.7 19.63,5.6 29.29,8.7 25.63,8.3 51.12,17.5 75.89,28 22.99,9.8 44.65,21.9 63.93,37.9 34.96,28.8 60.65,67.3 82.24,106.7 11.2,20.3 21.41,41.2 31.55,62.1 11.41,23.6 22.75,47.3 30.32,72.4 9.8,32.5 12.47,69.4 0.79,101.5 6.78,16.2 11.82,33.2 14.46,51.1 5.72,38.8 1.47,78 -4.01,116.6 -5,35.2 -11.75,71.6 -30.46,102.5 -9.73,16 -22.75,30.2 -38.24,40.5 -4.41,29.1 -11.61,57.8 -21.41,85.6 10.41,13 20.86,26.2 31.28,39.3 6.55,8.2 13.09,16.4 19.63,24.6 5.96,7.5 12.3,14.8 17.51,22.9 9.77,15.2 11.17,31.8 3.6,48.2 -7.33,15.8 -20.56,28.6 -33.07,40.3 -12.54,11.9 -25.86,22.9 -39.74,33.2 -27.82,20.5 -58.07,37.6 -89.93,51 -29.47,12.4 -60.14,21.3 -91.55,27 -26.04,25.5 -54.99,47.8 -89.19,61.8 -28.19,11.5 -59.44,17.1 -89.83,13.1 -29.84,-4 -56.5,-17.9 -78.56,-38.1 -1.54,-1.4 -2.98,-2.9 -4.46,-4.4 -16.55,14.2 -33.91,27.3 -52.11,39.2 -42.82,28.2 -89.87,50.2 -138.97,65 -50.91,15.3 -105.55,24 -158.8,21.4 -26.83,-1.4 -52.96,-6.8 -77.63,-17.5 -21.62,-9.5 -41.46,-22.7 -59.17,-38.2 -6.76,-5.9 -13.16,-12.1 -19.29,-18.6 -61.85,32.3 -131.91,48.6 -201.36,56.1 -53.62,5.8 -107.68,6.9 -161.61,7.7 -55.81,0.8 -111.63,0.7 -167.44,-0.3 -38.89,-0.7 -77.77,-1.9 -116.63,-3.5 12.41,91.8 70.38,169.9 132.63,235.6 33.81,35.8 69.21,70.2 104.81,104.2 35.39,33.8 71.98,66.6 111.66,95.4 10.68,7.7 21.62,15.2 32.75,22.3 11.62,7.3 23.85,13.7 35.42,21.1 0.42,0.3 0.83,0.6 1.24,0.9 1.26,-0.1 2.64,0.3 3.77,1.7 1.02,1.2 2.09,2.3 3.15,3.5 4.14,3.5 7.88,7.4 11.27,11.7 51.74,50 123.65,72.9 185.94,106.9 37.62,20.6 71.13,46.6 100.66,77.6 14.5,15.2 27.99,31.3 40.91,47.8 0.17,0 0.28,-0.1 0.41,-0.1 74.49,-12.1 148.56,-26.6 222.12,-43.4 73.25,-16.7 146.02,-35.7 218.08,-57 34.06,-10.1 68.52,-19.2 97.37,-40.8 25.56,-19.2 46.05,-44.2 67.33,-67.8 10.27,-11.4 21.61,-24.4 37.1,-28.4 14.87,-3.8 26.76,4.1 34.81,16.1 3.8,5.5 6.85,11.8 11.17,17 4.66,5.7 10.52,10 16.93,13.4 12.84,6.9 27.33,10.3 41.18,14.5 16.51,5.2 32.27,12.3 47.04,21.2 34.19,-9.6 69.34,-15.7 104.26,-21.9 51.97,-9.2 104.08,-20.9 157.09,-21 5.62,0 11.3,-0.1 16.71,-1.8 6.27,-1.8 11.42,-6.1 16.86,-9.5 9.42,-5.8 19.91,-8.3 30.84,-9.4 11.51,-1.1 23.23,-0.5 34.64,-2.5 12.2,-2.1 22.99,-7.7 33.64,-13.8 43.17,-24.7 89.05,-46.5 137.36,-59.1 26.03,-6.8 53.65,-10 80.14,-3.8 0.88,0.3 1.78,0.6 2.7,0.8 36.52,-4.8 68.83,-27 101.9,-41.8 38.37,-17.2 78.83,-29.2 120.05,-37.1 40.7,-7.8 82.23,-12.2 123.65,-13.4 37.35,-1.1 75.07,0.8 111.73,8.4 27.37,5.7 53.89,14.9 78.29,28.1 9.83,-11.2 16.31,-25 27.37,-35.2 12.78,-11.7 28.72,-19.9 42.96,-29.7 14.3,-9.9 28.06,-20.4 41.46,-31.4 54.17,-44.6 101.83,-96.3 152.64,-144.5 15.35,-14.6 31.01,-28.8 47.18,-42.4 20.69,-34.2 47,-65 78.08,-90.5 18.67,-15.3 39.13,-30.1 62.8,-36.5 23.26,-6.3 48.18,-4.3 71.03,2.7 48.21,14.6 85.79,50.6 121.98,83.9 18.2,16.7 36.1,33.9 51.2,53.5 15.4,20 26.6,42.1 34.1,66.1 8.1,25.9 12.8,52.8 16.7,79.6 4,26.9 6.6,53.9 8.1,81.1 3,55.3 1.3,110.7 -3.2,165.8 -4.2,51.4 -10.2,103.2 -24.1,153.1 -12.8,45.7 -32.7,89.5 -62.8,126.5 -27.1,33.3 -62.15,60.7 -102.75,75.2 -0.82,0.3 -1.65,0.6 -2.47,0.9 2.33,57.3 36.9,111.1 74.22,153.8 25,28.6 51.5,57.1 80.8,81.3 29.1,23.9 63.4,41.1 90.2,67.9 5.4,5.3 10.5,11.1 15.2,17.1 0.2,0.1 0.4,0.2 0.7,0.4 52.4,50.7 101.5,105.5 140.9,167.1 19.9,31 39.7,64.5 49.8,100.2 5,17.9 7,36.5 4.2,54.8"
     style="fill:#000000;fill-opacity:1;fill-rule:nonzero;stroke:none"
     transform="matrix(0.13333333,0,0,-0.13333333,0,4000)" />
</svg>
