<?xml version="1.0" encoding="UTF-8" standalone="no"?>
<!-- Generator: Adobe Illustrator 25.0.1, SVG Export Plug-In . SVG Version: 6.00 Build 0)  -->

<svg
   version="1.1"
   x="0px"
   y="0px"
   width="512"
   height="512"
   viewBox="0 0 512 512"
   xml:space="preserve"
   id="svg76"
   sodipodi:docname="Baseball-Bases.svg"
   inkscape:version="1.3.2 (091e20e, 2023-11-25, custom)"
   xmlns:inkscape="http://www.inkscape.org/namespaces/inkscape"
   xmlns:sodipodi="http://sodipodi.sourceforge.net/DTD/sodipodi-0.dtd"
   xmlns="http://www.w3.org/2000/svg"
   xmlns:svg="http://www.w3.org/2000/svg"><defs
   id="defs76" /><sodipodi:namedview
   id="namedview76"
   pagecolor="#ffffff"
   bordercolor="#000000"
   borderopacity="0.25"
   inkscape:showpageshadow="2"
   inkscape:pageopacity="0.0"
   inkscape:pagecheckerboard="0"
   inkscape:deskcolor="#d1d1d1"
   inkscape:zoom="1.686"
   inkscape:cx="350.53381"
   inkscape:cy="270.75919"
   inkscape:window-width="2256"
   inkscape:window-height="1410"
   inkscape:window-x="-11"
   inkscape:window-y="-11"
   inkscape:window-maximized="1"
   inkscape:current-layer="svg76" />
<style
   type="text/css"
   id="style1">
	.st0{fill:#FFFFFF;}
	.st1{display:none;}
	.st2{display:inline;}
	.st3{fill:#E74C3C;}
	.st4{fill:none;stroke:#E74C3C;stroke-width:2;stroke-linecap:round;stroke-linejoin:round;stroke-miterlimit:10;}
	.st5{opacity:0.98;}
	.st6{fill:none;stroke:#E74C3C;stroke-width:2;stroke-linecap:round;stroke-linejoin:round;}
	.st7{fill:none;stroke:#E74C3C;stroke-width:2;stroke-linecap:round;stroke-linejoin:round;stroke-dasharray:3.0616,5.1027;}
	.st8{fill:none;stroke:#E74C3C;stroke-width:2;stroke-linecap:round;stroke-linejoin:round;stroke-dasharray:3.1718,5.2864;}
	.st9{fill:none;stroke:#E74C3C;stroke-width:2;stroke-linecap:round;stroke-linejoin:round;stroke-dasharray:2.9868,4.978;}
	.st10{fill:none;stroke:#E74C3C;stroke-width:2;stroke-linecap:round;stroke-linejoin:round;stroke-dasharray:3.2723,5.4538;}
	.st11{fill:none;stroke:#E74C3C;stroke-width:2;stroke-linecap:round;stroke-linejoin:round;stroke-dasharray:2.954,4.9234;}
	.st12{fill:none;stroke:#E74C3C;stroke-width:2;stroke-linecap:round;stroke-linejoin:round;stroke-dasharray:2.9913,4.9856;}
	
		.st13{fill:none;stroke:#E74C3C;stroke-width:2;stroke-linecap:round;stroke-linejoin:round;stroke-miterlimit:10;stroke-dasharray:3,5;}
	.st14{fill:none;stroke:#E74C3C;stroke-width:2;stroke-linecap:round;stroke-linejoin:round;stroke-dasharray:3.091,5.1516;}
	.st15{fill:none;stroke:#E74C3C;stroke-width:2;stroke-linecap:round;stroke-linejoin:round;stroke-dasharray:3.1842,5.307;}
	.st16{fill:none;stroke:#E74C3C;stroke-width:2;stroke-linecap:round;stroke-linejoin:round;stroke-dasharray:3.0243,5.0405;}
	.st17{fill:none;stroke:#E74C3C;stroke-width:2;stroke-linecap:round;stroke-linejoin:round;stroke-dasharray:2.6908,4.4847;}
	.st18{fill:none;stroke:#E74C3C;stroke-width:2;stroke-linecap:round;stroke-linejoin:round;stroke-dasharray:2.9841,4.9735;}
	.st19{fill:none;stroke:#E74C3C;stroke-width:2;stroke-linecap:round;stroke-linejoin:round;stroke-dasharray:3.7813,6.3021;}
	.st20{fill:none;stroke:#E74C3C;stroke-width:3.25;stroke-linecap:round;stroke-linejoin:round;}
	.st21{fill:none;stroke:#E74C3C;stroke-width:3.25;stroke-linecap:round;stroke-linejoin:round;stroke-dasharray:4.1142,7.1999;}
	.st22{fill:none;stroke:#E74C3C;stroke-width:3.25;stroke-linecap:round;stroke-linejoin:round;stroke-dasharray:3.9318,6.8806;}
	.st23{fill:none;stroke:#E74C3C;stroke-width:3.25;stroke-linecap:round;stroke-linejoin:round;stroke-dasharray:4.0084,7.0147;}
	.st24{fill:none;stroke:#E74C3C;stroke-width:3.25;stroke-linecap:round;stroke-linejoin:round;stroke-dasharray:3.9308,6.879;}
	.st25{fill:none;stroke:#E74C3C;stroke-width:3.25;stroke-linecap:round;stroke-linejoin:round;stroke-dasharray:4.0271,7.0475;}
	.st26{fill:none;stroke:#E74C3C;stroke-width:3.25;stroke-linecap:round;stroke-linejoin:round;stroke-dasharray:4.0043,7.0076;}
	.st27{fill:none;stroke:#E74C3C;stroke-width:3.25;stroke-linecap:round;stroke-linejoin:round;stroke-dasharray:4.025,7.0438;}
	.st28{fill:none;stroke:#E74C3C;stroke-width:3.25;stroke-linecap:round;stroke-linejoin:round;stroke-dasharray:4.0001,7.0001;}
	.st29{fill:none;stroke:#E74C3C;stroke-width:3.25;stroke-linecap:round;stroke-linejoin:round;stroke-dasharray:3.9932,6.9881;}
	.st30{fill:none;stroke:#E74C3C;stroke-width:3.25;stroke-linecap:round;stroke-linejoin:round;stroke-dasharray:4.2116,7.3704;}
	.st31{fill:none;stroke:#E74C3C;stroke-width:2.5;stroke-linecap:round;stroke-linejoin:round;}
	.st32{fill:none;stroke:#E74C3C;stroke-width:2.5;stroke-linecap:round;stroke-linejoin:round;stroke-dasharray:2.9654,4.9423;}
	.st33{fill:none;stroke:#E74C3C;stroke-width:2.5;stroke-linecap:round;stroke-linejoin:round;stroke-dasharray:2.9882,4.9803;}
	.st34{fill:none;stroke:#E74C3C;stroke-width:2.5;stroke-linecap:round;stroke-linejoin:round;stroke-dasharray:3.001,5.0016;}
	.st35{fill:none;stroke:#E74C3C;stroke-width:2.5;stroke-linecap:round;stroke-linejoin:round;stroke-dasharray:3.0205,5.0342;}
	.st36{fill:none;stroke:#E74C3C;stroke-width:2.5;stroke-linecap:round;stroke-linejoin:round;stroke-dasharray:2.9969,4.9949;}
	.st37{fill:none;stroke:#E74C3C;stroke-width:2.5;stroke-linecap:round;stroke-linejoin:round;stroke-dasharray:2.9702,4.9503;}
	.st38{fill:none;stroke:#E74C3C;stroke-width:2.5;stroke-linecap:round;stroke-linejoin:round;stroke-dasharray:3.0195,5.0325;}
	.st39{fill:none;stroke:#E74C3C;stroke-width:2.5;stroke-linecap:round;stroke-linejoin:round;stroke-dasharray:2.9833,4.9721;}
	.st40{fill:none;stroke:#E74C3C;stroke-width:2.5;stroke-linecap:round;stroke-linejoin:round;stroke-dasharray:2.9674,4.9457;}
	.st41{fill:none;stroke:#E74C3C;stroke-width:2.5;stroke-linecap:round;stroke-linejoin:round;stroke-dasharray:3.0041,5.0069;}
	.st42{fill:none;stroke:#E74C3C;stroke-width:2.75;stroke-linecap:round;stroke-linejoin:round;stroke-miterlimit:10;}
	.st43{fill:none;stroke:#E74C3C;stroke-width:2.5;stroke-linecap:round;stroke-linejoin:round;stroke-miterlimit:10;}
	.st44{fill:none;stroke:#E74C3C;stroke-width:3.5;stroke-linecap:round;stroke-linejoin:round;stroke-miterlimit:10;}
	.st45{fill:none;stroke:#E74C3C;stroke-width:3.25;stroke-linecap:round;stroke-linejoin:round;stroke-miterlimit:10;}
</style>








<path
   class="st44"
   d="m 273.41244,499.73164 c -0.97221,0.96906 -1.86617,1.69879 -2.52352,2.20162 -0.46207,0.34192 -0.69738,0.51003 -0.69738,0.51003 -0.47924,0.32904 -0.72246,0.49068 -0.72246,0.49068 -0.49567,0.31544 -0.74746,0.46993 -0.74746,0.46993 -0.51214,0.30042 -0.77179,0.44706 -0.77179,0.44706 -0.52717,0.28396 -0.79468,0.42271 -0.79468,0.42271 -0.54219,0.26752 -0.81685,0.39627 -0.81685,0.39627 -0.55649,0.24892 -0.83833,0.36908 -0.83833,0.36908 -0.56935,0.23033 -0.85762,0.33975 -0.85762,0.33975 -0.58152,0.20958 -0.8755,0.309 -0.8755,0.309 -0.5937,0.18883 -0.89197,0.27824 -0.89197,0.27824 -0.60298,0.16666 -0.90698,0.24462 -0.90698,0.24462 -0.61228,0.14448 -0.92057,0.211 -0.92057,0.211 -0.61944,0.1216 -0.93131,0.17596 -0.93131,0.17596 -0.62586,0.098 -0.94059,0.1409 -0.94059,0.1409 -0.63089,0.0744 -0.94705,0.10442 -0.94705,0.10442 -0.63446,0.0494 -0.95204,0.068 -0.95204,0.068 -0.63661,0.0243 -0.95493,0.0308 -0.95493,0.0308 -0.63802,0 -0.95633,-0.007 -0.95633,-0.007 -0.63659,-0.0243 -0.95418,-0.0429 -0.95418,-0.0429 -0.63447,-0.0494 -0.95132,-0.0801 -0.95132,-0.0801 -0.63091,-0.0744 -0.94491,-0.11659 -0.94491,-0.11659 -0.62588,-0.098 -0.93775,-0.15236 -0.93775,-0.15236 -0.61944,-0.1216 -0.92774,-0.18813 -0.92774,-0.18813 -0.61229,-0.14449 -0.91629,-0.22246 -0.91629,-0.22246 -0.60298,-0.16667 -0.90268,-0.25607 -0.90268,-0.25607 -0.59368,-0.18885 -0.88695,-0.289 -0.88695,-0.289 -0.58154,-0.20957 -0.86907,-0.31971 -0.86907,-0.31971 -0.56938,-0.23034 -0.8512,-0.34907 -0.8512,-0.34907 -0.5565,-0.24893 -0.83117,-0.37769 -0.83117,-0.37769 -0.54219,-0.26752 -0.80971,-0.40485 -0.80971,-0.40485 -0.52718,-0.28396 -0.78682,-0.43062 -0.78682,-0.43062 -0.51215,-0.30041 -0.76392,-0.45491 -0.76392,-0.45491 -0.49571,-0.31544 -0.73963,-0.47638 -0.73963,-0.47638 -0.47923,-0.32904 -0.71457,-0.49715 -0.71457,-0.49715 -1.07365,-0.77897 -2.02141,-1.61084 -2.59435,-2.16089 -1.38194,-1.39339 -226.455109,-226.40935 -227.285562,-227.29702 -0.374099,-0.40843 -0.558644,-0.6173 -0.558644,-0.6173 -0.364085,-0.42702 -0.544338,-0.64446 -0.544338,-0.64446 -0.35407,-0.4442 -0.527887,-0.67095 -0.527887,-0.67095 C 9.7244776,270.42403 9.5563838,270.1887 9.5563838,270.1887 9.2273484,269.70966 9.0656916,269.46646 9.0656916,269.46646 8.7502468,268.97077 8.5957437,268.71899 8.5957437,268.71899 8.2953185,268.20681 8.1486835,267.94718 8.1486835,267.94718 7.8647095,267.42 7.7259433,267.15248 7.7259433,267.15248 7.4584214,266.6103 7.3296686,266.33563 7.3296686,266.33563 7.080745,265.77914 6.9605747,265.49732 6.9605747,265.49732 6.7302478,264.92795 6.620807,264.63969 6.620807,264.63969 6.4112244,264.05817 6.3117971,263.76418 6.3117971,263.76418 6.1236732,263.17117 6.0335442,262.87219 6.0335442,262.87219 5.8668779,262.2692 5.7889101,261.96521 5.7889101,261.96521 c -0.1444927,-0.61228 -0.2110167,-0.92057 -0.2110167,-0.92057 -0.1216027,-0.61944 -0.1759679,-0.9313 -0.1759679,-0.9313 -0.097998,-0.62588 -0.1409174,-0.9406 -0.1409174,-0.9406 -0.074394,-0.63088 -0.1044379,-0.94707 -0.1044379,-0.94707 -0.049363,-0.63445 -0.067959,-0.95204 -0.067959,-0.95204 -0.024321,-0.6366 -0.030762,-0.9549 -0.030762,-0.9549 -4.4e-6,-0.63803 0.00645,-0.95633 0.00645,-0.95633 0.024314,-0.6366 0.04291,-0.95419 0.04291,-0.95419 0.049348,-0.63445 0.080106,-0.95135 0.080106,-0.95135 0.074385,-0.63088 0.1165849,-0.94489 0.1165849,-0.94489 0.09799,-0.62588 0.1523502,-0.93775 0.1523502,-0.93775 0.1215939,-0.61943 0.1881142,-0.92771 0.1881142,-0.92771 0.144483,-0.61228 0.222447,-0.91628 0.222447,-0.91628 0.1666583,-0.60299 0.2560678,-0.90268 0.2560678,-0.90268 0.1888314,-0.59372 0.2889696,-0.88699 0.2889696,-0.88699 0.209575,-0.58152 0.3197274,-0.86906 0.3197274,-0.86906 0.2303188,-0.56937 0.3490543,-0.85118 0.3490543,-0.85118 0.2489162,-0.5565 0.377664,-0.83116 0.377664,-0.83116 0.2675152,-0.54219 0.4048481,-0.8097 0.4048481,-0.8097 0.2839658,-0.52716 0.4305986,-0.78681 0.4305986,-0.78681 0.3004164,-0.51217 0.4549172,-0.76395 0.4549172,-0.76395 0.3154389,-0.49568 0.476376,-0.73959 0.476376,-0.73959 0.3290288,-0.47925 0.4971204,-0.71457 0.4971204,-0.71457 0.7789401,-1.07364 1.6108121,-2.02138 2.1615791,-2.59503 1.39337,-1.38195 226.406226,-226.452029 227.293896,-227.282473 0.40842,-0.37409 0.61728,-0.558633 0.61728,-0.558633 0.42703,-0.364082 0.64448,-0.54433 0.64448,-0.54433 0.44419,-0.354065 0.67094,-0.527877 0.67094,-0.527877 0.46206,-0.3419046 0.6974,-0.5099992 0.6974,-0.5099992 0.47923,-0.3290273 0.72243,-0.4906803 0.72243,-0.4906803 0.4957,-0.3154374 0.74747,-0.4699353 0.74747,-0.4699353 0.51214,-0.3004133 0.77181,-0.4470543 0.77181,-0.4470543 0.52714,-0.2839628 0.79467,-0.4227246 0.79467,-0.4227246 0.54217,-0.2675086 0.81686,-0.3962679 0.81686,-0.3962679 0.55649,-0.248914 0.8383,-0.3690806 0.8383,-0.3690806 0.56938,-0.2303226 0.85763,-0.3397574 0.85763,-0.3397574 0.58154,-0.2095737 0.87552,-0.3089966 0.87552,-0.3089966 0.59368,-0.1888345 0.89194,-0.2782439 0.89194,-0.2782439 0.603,-0.1666591 0.90699,-0.2446128 0.90699,-0.2446128 0.61227,-0.1444866 0.92057,-0.21101 0.92057,-0.21101 0.61944,-0.1215945 0.93131,-0.1759521 0.93131,-0.1759521 0.62588,-0.097995 0.94059,-0.1409088 0.94059,-0.1409088 0.6309,-0.074387 0.94706,-0.1044245 0.94706,-0.1044245 0.63445,-0.049349 0.95204,-0.067942 0.95204,-0.067942 0.63661,-0.024322 0.95492,-0.030755 0.95492,-0.030755 0.63802,9.6e-6 0.95633,0.00645 0.95633,0.00645 0.63659,0.02433 0.95418,0.042924 0.95418,0.042924 0.63449,0.049356 0.95135,0.080115 0.95135,0.080115 0.63088,0.074398 0.9449,0.1165997 0.9449,0.1165997 0.62587,0.097997 0.93773,0.1523644 0.93773,0.1523644 0.61944,0.1216041 0.92774,0.1881238 0.92774,0.1881238 0.61229,0.144497 0.91629,0.2224632 0.91629,0.2224632 0.60297,0.166671 0.90268,0.2560796 0.90268,0.2560796 0.59298,0.1881246 0.88696,0.2889882 0.88696,0.2889882 0.58153,0.2095752 0.86909,0.3197296 0.86909,0.3197296 0.56935,0.2303322 0.85119,0.34907 0.85119,0.34907 0.55648,0.2489303 0.83114,0.3776881 0.83114,0.3776881 0.54221,0.2675123 0.80972,0.4048519 0.80972,0.4048519 0.52717,0.2839703 0.78681,0.4306127 0.78681,0.4306127 0.51216,0.3004237 0.76395,0.4549209 0.76395,0.4549209 0.49568,0.3154485 0.7396,0.4763901 0.7396,0.4763901 0.47926,0.3290318 0.71458,0.497133 0.71458,0.497133 1.07365,0.7789491 2.02141,1.6108351 2.59507,2.1616101 1.38197,1.39338 226.45511,226.409324 227.28556,227.296994 0.37409,0.40846 0.55863,0.61732 0.55863,0.61732 0.36407,0.42704 0.54431,0.6445 0.54431,0.6445 0.35407,0.4442 0.52788,0.67095 0.52788,0.67095 0.34192,0.46207 0.51002,0.69739 0.51002,0.69739 0.32903,0.47925 0.4907,0.72245 0.4907,0.72245 0.31543,0.49568 0.46992,0.74747 0.46992,0.74747 0.30042,0.51217 0.44708,0.77182 0.44708,0.77182 0.28396,0.52717 0.42274,0.79468 0.42274,0.79468 0.2675,0.54219 0.39626,0.81686 0.39626,0.81686 0.24893,0.55649 0.3691,0.83832 0.3691,0.83832 0.23033,0.56936 0.33978,0.85762 0.33978,0.85762 0.20958,0.58153 0.30902,0.8755 0.30902,0.8755 0.18883,0.59373 0.27824,0.892 0.27824,0.892 0.16666,0.60299 0.24463,0.90698 0.24463,0.90698 0.14449,0.61227 0.21101,0.92057 0.21101,0.92057 0.12161,0.61943 0.17598,0.93129 0.17598,0.93129 0.098,0.62588 0.14091,0.9406 0.14091,0.9406 0.0744,0.63089 0.10444,0.94707 0.10444,0.94707 0.0494,0.63446 0.068,0.95205 0.068,0.95205 0.0243,0.63659 0.0308,0.9549 0.0308,0.9549 0,0.63803 -0.007,0.95633 -0.007,0.95633 -0.0243,0.63661 -0.0429,0.95419 -0.0429,0.95419 -0.0494,0.63446 -0.0801,0.95136 -0.0801,0.95136 -0.0744,0.63087 -0.11658,0.94488 -0.11658,0.94488 -0.098,0.62589 -0.15235,0.93774 -0.15235,0.93774 -0.1216,0.61944 -0.18812,0.92773 -0.18812,0.92773 -0.14449,0.61228 -0.22244,0.91626 -0.22244,0.91626 -0.16666,0.60299 -0.25607,0.90269 -0.25607,0.90269 -0.18882,0.59372 -0.28896,0.88698 -0.28896,0.88698 -0.20959,0.58152 -0.31972,0.86907 -0.31972,0.86907 -0.23034,0.56936 -0.34907,0.85118 -0.34907,0.85118 -0.24892,0.55649 -0.37767,0.83116 -0.37767,0.83116 -0.2675,0.54218 -0.40484,0.80969 -0.40484,0.80969 -0.28397,0.52718 -0.43061,0.78682 -0.43061,0.78682 -0.30042,0.51217 -0.4549,0.76395 -0.4549,0.76395 -0.31545,0.49568 -0.47638,0.7396 -0.47638,0.7396 -0.32903,0.47924 -0.49712,0.71456 -0.49712,0.71456 -0.80684,1.11013 -1.58936,1.9942 -2.16087,2.59432 -0.3833,0.39063 -226.70441,226.71176 -226.70441,226.71176 z"
   id="path76"
   style="stroke:#000000;stroke-width:10.1157;stroke-dasharray:none;stroke-opacity:1" />
</svg>
