<?xml version="1.0" encoding="UTF-8" standalone="no"?>
<svg
   version="1.1"
   id="cricket-points"
   width="750"
   height="750"
   xmlns="http://www.w3.org/2000/svg"
   xmlns:svg="http://www.w3.org/2000/svg">
  <path
     d="m 0,375 a 25,25 0 0 0 25,25 h 700 a 25,25 0 0 0 25,-25 25,25 0 0 0 -25,-25 H 25 A 25,25 0 0 0 0,375 Z"
     fill="#ff0000"
     id="three"
     style="fill:#000000;fill-opacity:1" />
  <path
     d="m 250,750 a 25,25 0 0 0 25,-25 V 25 A 25,25 0 0 0 250,0 25,25 0 0 0 225,25 v 700 a 25,25 0 0 0 25,25 z m 250,0 a 25,25 0 0 0 25,-25 V 25 A 25,25 0 0 0 500,0 25,25 0 0 0 475,25 v 700 a 25,25 0 0 0 25,25 z"
     fill="#ff0000"
     id="two"
     style="fill:#000000;fill-opacity:1" />
  <path
     d="m 250,750 a 25,25 0 0 0 25,-25 V 25 A 25,25 0 0 0 250,0 25,25 0 0 0 225,25 v 700 a 25,25 0 0 0 25,25 z"
     fill="#ff0000"
     id="one"
     style="fill:#000000;fill-opacity:1" />
</svg>
