<?xml version="1.0" encoding="UTF-8" standalone="no"?>
<!-- Created with Inkscape (http://www.inkscape.org/) -->

<svg
   width="358.60001"
   height="343.43024"
   id="svg1"
   sodipodi:version="0.32"
   inkscape:version="1.3.2 (091e20e, 2023-11-25, custom)"
   sodipodi:docname="Baseball_diamond-mod.svg"
   version="1.0"
   xmlns:inkscape="http://www.inkscape.org/namespaces/inkscape"
   xmlns:sodipodi="http://sodipodi.sourceforge.net/DTD/sodipodi-0.dtd"
   xmlns="http://www.w3.org/2000/svg"
   xmlns:svg="http://www.w3.org/2000/svg"
   xmlns:rdf="http://www.w3.org/1999/02/22-rdf-syntax-ns#"
   xmlns:cc="http://creativecommons.org/ns#"
   xmlns:dc="http://purl.org/dc/elements/1.1/">
  <defs
     id="defs4">
    <marker
       inkscape:stockid="StopM"
       orient="auto"
       refY="0"
       refX="0"
       id="StopM"
       style="overflow:visible">
      <path
         id="path2905"
         d="M 0,5.65 V -5.65"
         style="fill:none;fill-opacity:0.75;fill-rule:evenodd;stroke:#000000;stroke-width:1pt"
         transform="scale(0.4)" />
    </marker>
    <marker
       inkscape:stockid="StopL"
       orient="auto"
       refY="0"
       refX="0"
       id="StopL"
       style="overflow:visible">
      <path
         id="path2908"
         d="M 0,5.65 V -5.65"
         style="fill:none;fill-opacity:0.75;fill-rule:evenodd;stroke:#000000;stroke-width:1pt"
         transform="scale(0.8)" />
    </marker>
  </defs>
  <sodipodi:namedview
     id="base"
     pagecolor="#ffffff"
     bordercolor="#666666"
     borderopacity="1.0"
     gridtolerance="10000"
     guidetolerance="10"
     objecttolerance="10"
     inkscape:pageopacity="0.0"
     inkscape:pageshadow="2"
     inkscape:zoom="2"
     inkscape:cx="131"
     inkscape:cy="154.75"
     inkscape:document-units="px"
     inkscape:current-layer="layer3"
     showgrid="true"
     inkscape:grid-points="true"
     inkscape:object-paths="false"
     inkscape:object-bbox="true"
     showguides="true"
     inkscape:window-width="2256"
     inkscape:window-height="1410"
     inkscape:window-x="-11"
     inkscape:window-y="-11"
     inkscape:object-nodes="true"
     inkscape:object-points="true"
     width="650px"
     height="500px"
     inkscape:showpageshadow="2"
     inkscape:pagecheckerboard="0"
     inkscape:deskcolor="#d1d1d1"
     inkscape:window-maximized="1" />
  <metadata
     id="metadata7">
    <rdf:RDF>
      <cc:Work
         rdf:about="">
        <dc:format>image/svg+xml</dc:format>
        <dc:type
           rdf:resource="http://purl.org/dc/dcmitype/StillImage" />
      </cc:Work>
    </rdf:RDF>
  </metadata>
  <path
     style="display:inline;fill:#008a31;fill-opacity:1;fill-rule:evenodd;stroke:none;stroke-width:0.615577px;stroke-linecap:butt;stroke-linejoin:miter;stroke-opacity:1"
     d="M 82.75384,343.43025 H 0 V 0 h 358.6 v 343.43025 h -78.3403 z"
     id="background"
     sodipodi:nodetypes="ccccccc" />
  <g
     inkscape:label="Main"
     inkscape:groupmode="layer"
     id="layer1"
     transform="translate(-149.215,-129.48352)">
    <g
       inkscape:groupmode="layer"
       id="layer7"
       inkscape:label="Infield"
       style="display:inline">
      <path
         id="path54"
         style="display:inline;opacity:1;fill:#a48e28;fill-opacity:1;stroke:#85881b;stroke-width:2.06455;stroke-linecap:butt;stroke-linejoin:bevel;stroke-miterlimit:4;stroke-dasharray:none;stroke-opacity:1"
         inkscape:label="infielddirt"
         d="M 150.24727,260.31454 V 318.4482 H 506.78272 V 259.28718 A 187.87696,187.93219 0 0 0 328.50043,130.51579 187.87696,187.93219 0 0 0 150.24727,260.31454 Z" />
      <path
         id="path45"
         style="display:inline;fill:#008a31;fill-opacity:1;fill-rule:evenodd;stroke:none;stroke-width:1px;stroke-linecap:butt;stroke-linejoin:miter;stroke-opacity:1"
         inkscape:label="greentriangle3rdbase"
         d="M 149.21484,260.19727 V 439.48242 H 328.5 Z" />
      <path
         id="path43"
         style="display:inline;fill:#008a31;fill-opacity:1;fill-rule:evenodd;stroke:none;stroke-width:1px;stroke-linecap:butt;stroke-linejoin:miter;stroke-opacity:1"
         inkscape:label="greentriangle1stbase"
         d="M 507.81445,260.16797 328.5,439.48242 h 179.31445 z" />
      <rect
         style="display:inline;opacity:1;fill:#008a31;fill-opacity:1;stroke:#85881b;stroke-width:5;stroke-linecap:butt;stroke-linejoin:miter;stroke-miterlimit:4;stroke-dasharray:none;stroke-opacity:1"
         id="rect2765"
         width="168.31494"
         height="168.31494"
         x="-77.781464"
         y="374.03622"
         transform="rotate(-45)"
         inkscape:label="infieldlines" />
      <circle
         style="display:inline;opacity:1;fill:#85881b;fill-opacity:1;stroke:none;stroke-width:1;stroke-linecap:butt;stroke-linejoin:miter;stroke-miterlimit:4;stroke-dasharray:none;stroke-opacity:1"
         id="path2816"
         inkscape:label="homeplatecircle"
         cx="328"
         cy="430"
         r="43" />
      <circle
         style="display:inline;opacity:1;fill:#b56700;fill-opacity:1;stroke:#85881b;stroke-width:2;stroke-linecap:round;stroke-linejoin:round;stroke-miterlimit:4;stroke-dasharray:none;stroke-opacity:1"
         id="path1876"
         transform="translate(28.5,-432.8794)"
         inkscape:label="pitchersmound"
         cx="300"
         cy="752.36218"
         r="18" />
    </g>
    <g
       inkscape:groupmode="layer"
       id="layer4"
       inkscape:label="Foul Lines"
       style="display:inline">
      <path
         id="path52"
         style="display:inline;fill:none;fill-opacity:0.75;fill-rule:evenodd;stroke:#85881b;stroke-width:4.86096;stroke-linecap:butt;stroke-linejoin:miter;stroke-miterlimit:4;stroke-dasharray:none;stroke-opacity:1"
         inkscape:label="foulline3rdbase"
         d="M 209.30326,319.28591 150.93367,260.91237" />
      <path
         id="rect60"
         style="display:inline;fill:#85881b;fill-opacity:1;stroke:none;stroke-width:1.02661;stroke-opacity:1"
         d="m 151.55487,258.08741 -2.34003,2.11169 v 2.41223 l 4.05356,-2.80843 z"
         inkscape:label="foulline3rdbasecorner" />
      <path
         id="path50"
         style="display:inline;fill:none;fill-opacity:0.75;fill-rule:evenodd;stroke:#85881b;stroke-width:4.86159;stroke-linecap:butt;stroke-linejoin:miter;stroke-miterlimit:4;stroke-dasharray:none;stroke-opacity:1"
         inkscape:label="foulline1stbase"
         d="m 447.61669,319.38306 58.48374,-58.19469" />
      <path
         id="path60"
         style="display:inline;fill:#85881b;fill-opacity:1;stroke:none;stroke-width:1.03282;stroke-opacity:1"
         d="m 505.46083,258.38612 2.35362,1.78185 5.5e-4,2.76941 -4.07806,-2.8254 z"
         inkscape:label="foulline1stbasecorner"
         sodipodi:nodetypes="ccccc" />
    </g>
    <g
       inkscape:groupmode="layer"
       id="layer3"
       inkscape:label="Bases"
       style="display:inline">
      <rect
         style="opacity:1;fill:#ffffff;fill-opacity:1;stroke:none;stroke-width:3;stroke-linecap:butt;stroke-linejoin:miter;stroke-miterlimit:4;stroke-dasharray:none;stroke-opacity:1"
         id="pitchersmound"
         width="14"
         height="4"
         x="321.5"
         y="317.4827"
         inkscape:label="pitchersrubber" />
      <path
         class="st44"
         d="m 234.8103,338.39918 c -0.17091,0.17035 -0.32806,0.29863 -0.4436,0.38702 -0.0813,0.06 -0.12252,0.0898 -0.12252,0.0898 -0.0841,0.0578 -0.12698,0.0863 -0.12698,0.0863 -0.0871,0.0555 -0.13139,0.0827 -0.13139,0.0827 -0.09,0.0528 -0.1357,0.0787 -0.1357,0.0787 -0.0926,0.0498 -0.1397,0.0744 -0.1397,0.0744 -0.0953,0.047 -0.14357,0.0697 -0.14357,0.0697 -0.0979,0.0437 -0.14737,0.0649 -0.14737,0.0649 -0.10012,0.0404 -0.15075,0.0596 -0.15075,0.0596 -0.10215,0.0368 -0.15389,0.0542 -0.15389,0.0542 -0.1044,0.0332 -0.15678,0.0488 -0.15678,0.0488 -0.10609,0.0292 -0.15944,0.0429 -0.15944,0.0429 -0.10755,0.0253 -0.16182,0.0371 -0.16182,0.0371 -0.10879,0.0213 -0.16371,0.0309 -0.16371,0.0309 -0.11003,0.0171 -0.16533,0.0247 -0.16533,0.0247 -0.11092,0.0125 -0.16648,0.0183 -0.16648,0.0183 -0.11149,0.008 -0.16734,0.0125 -0.16734,0.0125 -0.11182,0.005 -0.16787,0.006 -0.16787,0.006 -0.11216,0 -0.16809,-0.001 -0.16809,-0.001 -0.11182,-0.005 -0.16773,-0.007 -0.16773,-0.007 -0.11161,-0.008 -0.16721,-0.0141 -0.16721,-0.0141 -0.11092,-0.0125 -0.16609,-0.0205 -0.16609,-0.0205 -0.11003,-0.0171 -0.16485,-0.0267 -0.16485,-0.0267 -0.10879,-0.0213 -0.16309,-0.0331 -0.16309,-0.0331 -0.10755,-0.0253 -0.16106,-0.0391 -0.16106,-0.0391 -0.10597,-0.0293 -0.15868,-0.045 -0.15868,-0.045 -0.1044,-0.0332 -0.1559,-0.0509 -0.1559,-0.0509 -0.10215,-0.0368 -0.15277,-0.0562 -0.15277,-0.0562 -0.10011,-0.0405 -0.1496,-0.0614 -0.1496,-0.0614 -0.0979,-0.0436 -0.14611,-0.0663 -0.14611,-0.0663 -0.0953,-0.047 -0.14233,-0.0712 -0.14233,-0.0712 -0.0927,-0.0498 -0.13832,-0.0758 -0.13832,-0.0758 -0.09,-0.0526 -0.13432,-0.0799 -0.13432,-0.0799 -0.0871,-0.0555 -0.13001,-0.0838 -0.13001,-0.0838 -0.0843,-0.0578 -0.12559,-0.0874 -0.12559,-0.0874 -0.18872,-0.13693 -0.35532,-0.28316 -0.45602,-0.37985 -0.24291,-0.24492 -39.80619,-39.79823 -39.95217,-39.95428 -0.0658,-0.0718 -0.0982,-0.10856 -0.0982,-0.10856 -0.064,-0.0752 -0.0957,-0.11327 -0.0957,-0.11327 -0.0624,-0.0781 -0.0928,-0.11797 -0.0928,-0.11797 -0.06,-0.0813 -0.0896,-0.12253 -0.0896,-0.12253 -0.0578,-0.0842 -0.0863,-0.12697 -0.0863,-0.12697 -0.0552,-0.0871 -0.0827,-0.13139 -0.0827,-0.13139 -0.0526,-0.09 -0.0788,-0.13569 -0.0788,-0.13569 -0.0498,-0.0927 -0.0744,-0.13969 -0.0744,-0.13969 -0.047,-0.0953 -0.0696,-0.14358 -0.0696,-0.14358 -0.0437,-0.0979 -0.0649,-0.14736 -0.0649,-0.14736 -0.0404,-0.10013 -0.0597,-0.15076 -0.0597,-0.15076 -0.0368,-0.10215 -0.0542,-0.1539 -0.0542,-0.1539 -0.0331,-0.10429 -0.0488,-0.15678 -0.0488,-0.15678 -0.0293,-0.10609 -0.0429,-0.15944 -0.0429,-0.15944 -0.0253,-0.10755 -0.0371,-0.16183 -0.0371,-0.16183 -0.0213,-0.10879 -0.031,-0.16368 -0.031,-0.16368 -0.0171,-0.11003 -0.0249,-0.16533 -0.0249,-0.16533 -0.0125,-0.11093 -0.0183,-0.1665 -0.0183,-0.1665 -0.008,-0.11149 -0.0125,-0.16735 -0.0125,-0.16735 -0.004,-0.11182 -0.006,-0.16784 -0.006,-0.16784 0,-0.11216 8.1e-4,-0.16811 8.1e-4,-0.16811 0.005,-0.11182 0.007,-0.16775 0.007,-0.16775 0.008,-0.11149 0.0141,-0.16721 0.0141,-0.16721 0.0125,-0.11092 0.0205,-0.16609 0.0205,-0.16609 0.0171,-0.11003 0.0267,-0.16483 0.0267,-0.16483 0.0213,-0.10879 0.0331,-0.16308 0.0331,-0.16308 0.0253,-0.10755 0.0392,-0.16106 0.0392,-0.16106 0.0292,-0.10609 0.045,-0.15867 0.045,-0.15867 0.0332,-0.1044 0.0508,-0.15594 0.0508,-0.15594 0.0368,-0.10215 0.0563,-0.15275 0.0563,-0.15275 0.0404,-0.10013 0.0614,-0.14961 0.0614,-0.14961 0.0437,-0.0979 0.0663,-0.14612 0.0663,-0.14612 0.0469,-0.0953 0.0712,-0.14231 0.0712,-0.14231 0.0498,-0.0927 0.0758,-0.13832 0.0758,-0.13832 0.0528,-0.09 0.0799,-0.13431 0.0799,-0.13431 0.0552,-0.0871 0.0838,-0.13002 0.0838,-0.13002 0.0579,-0.0843 0.0874,-0.12558 0.0874,-0.12558 0.13696,-0.18871 0.28316,-0.35531 0.37996,-0.45615 0.24492,-0.24293 39.79759,-39.80573 39.95362,-39.95172 0.0718,-0.0657 0.10856,-0.0982 0.10856,-0.0982 0.075,-0.0642 0.11326,-0.0957 0.11326,-0.0957 0.0781,-0.0622 0.11797,-0.0928 0.11797,-0.0928 0.0813,-0.06 0.12252,-0.0896 0.12252,-0.0896 0.0841,-0.0578 0.12698,-0.0863 0.12698,-0.0863 0.0871,-0.0553 0.13139,-0.0827 0.13139,-0.0827 0.09,-0.0526 0.1357,-0.0788 0.1357,-0.0788 0.0926,-0.0498 0.13969,-0.0744 0.13969,-0.0744 0.0953,-0.0469 0.14359,-0.0697 0.14359,-0.0697 0.0979,-0.0437 0.14735,-0.0649 0.14735,-0.0649 0.10012,-0.0404 0.15074,-0.0597 0.15074,-0.0597 0.10215,-0.0368 0.1539,-0.0542 0.1539,-0.0542 0.1044,-0.0332 0.15679,-0.0488 0.15679,-0.0488 0.10598,-0.0293 0.15942,-0.0429 0.15942,-0.0429 0.10755,-0.0253 0.16183,-0.0371 0.16183,-0.0371 0.10879,-0.0213 0.16371,-0.0309 0.16371,-0.0309 0.10992,-0.0172 0.16533,-0.0248 0.16533,-0.0248 0.11092,-0.0125 0.16647,-0.0183 0.16647,-0.0183 0.1116,-0.008 0.16736,-0.0125 0.16736,-0.0125 0.11182,-0.005 0.16784,-0.006 0.16784,-0.006 0.11216,0 0.16812,8.1e-4 0.16812,8.1e-4 0.11182,0.005 0.16773,0.007 0.16773,0.007 0.1116,0.008 0.16722,0.0141 0.16722,0.0141 0.11091,0.0125 0.16608,0.0205 0.16608,0.0205 0.11003,0.0172 0.16485,0.0267 0.16485,0.0267 0.10879,0.0213 0.16307,0.0331 0.16307,0.0331 0.10755,0.0253 0.16107,0.0391 0.16107,0.0391 0.10586,0.0293 0.15867,0.045 0.15867,0.045 0.10429,0.0331 0.15593,0.0508 0.15593,0.0508 0.10215,0.0368 0.15275,0.0563 0.15275,0.0563 0.10011,0.0404 0.14961,0.0614 0.14961,0.0614 0.0979,0.0436 0.14611,0.0663 0.14611,0.0663 0.0953,0.047 0.14234,0.0712 0.14234,0.0712 0.0927,0.0498 0.13832,0.0758 0.13832,0.0758 0.09,0.0528 0.13431,0.0799 0.13431,0.0799 0.0871,0.0554 0.13002,0.0838 0.13002,0.0838 0.0843,0.0579 0.12558,0.0874 0.12558,0.0874 0.18872,0.13696 0.35533,0.28316 0.45616,0.37996 0.24291,0.24495 39.80619,39.79825 39.95215,39.95429 0.0657,0.0718 0.0982,0.10857 0.0982,0.10857 0.064,0.0752 0.0957,0.11325 0.0957,0.11325 0.0622,0.0781 0.0928,0.11797 0.0928,0.11797 0.06,0.0813 0.0898,0.12254 0.0898,0.12254 0.0578,0.0844 0.0863,0.12697 0.0863,0.12697 0.0553,0.0871 0.0827,0.13139 0.0827,0.13139 0.0528,0.09 0.0788,0.13568 0.0788,0.13568 0.0498,0.0927 0.0744,0.1397 0.0744,0.1397 0.047,0.0953 0.0697,0.14359 0.0697,0.14359 0.0437,0.0979 0.0648,0.14736 0.0648,0.14736 0.0404,0.10013 0.0597,0.15076 0.0597,0.15076 0.0368,0.10215 0.0542,0.1539 0.0542,0.1539 0.0332,0.1044 0.0488,0.15678 0.0488,0.15678 0.0292,0.10597 0.0429,0.15942 0.0429,0.15942 0.0253,0.10755 0.0371,0.16183 0.0371,0.16183 0.0213,0.10879 0.031,0.16369 0.031,0.16369 0.0172,0.11003 0.0247,0.16535 0.0247,0.16535 0.0125,0.11092 0.0184,0.16648 0.0184,0.16648 0.008,0.1116 0.0125,0.16736 0.0125,0.16736 0.005,0.11183 0.006,0.16783 0.006,0.16783 0,0.11216 -10e-4,0.16811 -10e-4,0.16811 -0.004,0.11183 -0.007,0.16773 -0.007,0.16773 -0.008,0.11149 -0.0141,0.16723 -0.0141,0.16723 -0.0124,0.11093 -0.0205,0.16611 -0.0205,0.16611 -0.0172,0.11002 -0.0267,0.1648 -0.0267,0.1648 -0.0213,0.10879 -0.0331,0.16309 -0.0331,0.16309 -0.0253,0.10756 -0.0393,0.16106 -0.0393,0.16106 -0.0292,0.10609 -0.045,0.15868 -0.045,0.15868 -0.0332,0.1044 -0.0509,0.15592 -0.0509,0.15592 -0.0368,0.10215 -0.0562,0.15275 -0.0562,0.15275 -0.0404,0.10013 -0.0614,0.14963 -0.0614,0.14963 -0.0437,0.0979 -0.0663,0.14611 -0.0663,0.14611 -0.047,0.0953 -0.0712,0.14233 -0.0712,0.14233 -0.0498,0.0927 -0.0758,0.13832 -0.0758,0.13832 -0.0526,0.09 -0.0799,0.1343 -0.0799,0.1343 -0.0552,0.0871 -0.0838,0.13002 -0.0838,0.13002 -0.0579,0.0843 -0.0874,0.12558 -0.0874,0.12558 -0.14185,0.19514 -0.27939,0.35055 -0.37984,0.45604 -0.0673,0.0687 -39.85003,39.85141 -39.85003,39.85141 z"
         id="3rdbase"
         style="fill:#ffffff;fill-opacity:1;stroke:#000000;stroke-width:1.77813;stroke-linecap:round;stroke-linejoin:round;stroke-miterlimit:10;stroke-dasharray:none;stroke-opacity:1" />
      <path
         class="st44"
         d="m 331.56213,248.02355 c -0.1709,0.17035 -0.32804,0.29862 -0.44358,0.38701 -0.0813,0.0601 -0.12254,0.0897 -0.12254,0.0897 -0.0842,0.0579 -0.12697,0.0863 -0.12697,0.0863 -0.0871,0.0555 -0.1314,0.0827 -0.1314,0.0827 -0.09,0.0528 -0.13568,0.0786 -0.13568,0.0786 -0.0926,0.0498 -0.1397,0.0743 -0.1397,0.0743 -0.0953,0.0471 -0.14358,0.0697 -0.14358,0.0697 -0.0979,0.0437 -0.14737,0.0648 -0.14737,0.0648 -0.1001,0.0404 -0.15075,0.0597 -0.15075,0.0597 -0.10219,0.0368 -0.1539,0.0543 -0.1539,0.0543 -0.1044,0.0332 -0.15678,0.0489 -0.15678,0.0489 -0.10606,0.0294 -0.15944,0.0429 -0.15944,0.0429 -0.10758,0.0253 -0.16182,0.0371 -0.16182,0.0371 -0.10883,0.0213 -0.1637,0.0309 -0.1637,0.0309 -0.11007,0.0172 -0.16534,0.0248 -0.16534,0.0248 -0.11091,0.0125 -0.16647,0.0183 -0.16647,0.0183 -0.11146,0.008 -0.16735,0.0125 -0.16735,0.0125 -0.11187,0.004 -0.16787,0.006 -0.16787,0.006 -0.11215,0 -0.16809,-0.001 -0.16809,-0.001 -0.11188,-0.004 -0.16773,-0.007 -0.16773,-0.007 -0.1116,-0.008 -0.16722,-0.0141 -0.16722,-0.0141 -0.11091,-0.0125 -0.1661,-0.0205 -0.1661,-0.0205 -0.11007,-0.0172 -0.16483,-0.0267 -0.16483,-0.0267 -0.10883,-0.0213 -0.16309,-0.0331 -0.16309,-0.0331 -0.10759,-0.0253 -0.16106,-0.0392 -0.16106,-0.0392 -0.10592,-0.0294 -0.15868,-0.045 -0.15868,-0.045 -0.1044,-0.0332 -0.1559,-0.0508 -0.1559,-0.0508 -0.10219,-0.0368 -0.15277,-0.0562 -0.15277,-0.0562 -0.1001,-0.0406 -0.14962,-0.0613 -0.14962,-0.0613 -0.0979,-0.0437 -0.1461,-0.0663 -0.1461,-0.0663 -0.0953,-0.0471 -0.14234,-0.0712 -0.14234,-0.0712 -0.0926,-0.0498 -0.13832,-0.0757 -0.13832,-0.0757 -0.09,-0.0528 -0.1343,-0.0799 -0.1343,-0.0799 -0.0871,-0.0555 -0.13002,-0.0838 -0.13002,-0.0838 -0.0842,-0.0579 -0.12558,-0.0874 -0.12558,-0.0874 -0.18874,-0.13694 -0.35533,-0.28316 -0.45604,-0.37985 -0.24291,-0.24493 -39.80636,-39.7986 -39.95234,-39.95463 -0.0658,-0.0717 -0.0982,-0.10856 -0.0982,-0.10856 -0.064,-0.075 -0.0957,-0.11326 -0.0957,-0.11326 -0.0623,-0.0781 -0.0928,-0.11797 -0.0928,-0.11797 -0.0601,-0.0813 -0.0896,-0.12254 -0.0896,-0.12254 -0.0579,-0.0842 -0.0863,-0.12697 -0.0863,-0.12697 -0.0554,-0.0871 -0.0827,-0.13139 -0.0827,-0.13139 -0.0528,-0.09 -0.0786,-0.1357 -0.0786,-0.1357 -0.0498,-0.0926 -0.0743,-0.13969 -0.0743,-0.13969 -0.0471,-0.0953 -0.0697,-0.14357 -0.0697,-0.14357 -0.0437,-0.0979 -0.0648,-0.14735 -0.0648,-0.14735 -0.0404,-0.10011 -0.0597,-0.15076 -0.0597,-0.15076 -0.0368,-0.10218 -0.0543,-0.15391 -0.0543,-0.15391 -0.0331,-0.10426 -0.0489,-0.15678 -0.0489,-0.15678 -0.0294,-0.10606 -0.0429,-0.15944 -0.0429,-0.15944 -0.0253,-0.10758 -0.0371,-0.16183 -0.0371,-0.16183 -0.0213,-0.10883 -0.031,-0.16371 -0.031,-0.16371 -0.0172,-0.11007 -0.0248,-0.16532 -0.0248,-0.16532 -0.0125,-0.11091 -0.0184,-0.16648 -0.0184,-0.16648 -0.008,-0.11146 -0.0125,-0.16735 -0.0125,-0.16735 -0.004,-0.11187 -0.006,-0.16785 -0.006,-0.16785 0,-0.11216 8e-4,-0.16811 8e-4,-0.16811 0.004,-0.11188 0.007,-0.16773 0.007,-0.16773 0.008,-0.11146 0.0141,-0.16722 0.0141,-0.16722 0.0125,-0.11091 0.0205,-0.1661 0.0205,-0.1661 0.0172,-0.11008 0.0267,-0.16484 0.0267,-0.16484 0.0213,-0.10883 0.0331,-0.16308 0.0331,-0.16308 0.0253,-0.10758 0.0392,-0.16106 0.0392,-0.16106 0.0294,-0.10606 0.045,-0.15867 0.045,-0.15867 0.0332,-0.1044 0.0508,-0.15592 0.0508,-0.15592 0.0368,-0.10219 0.0562,-0.15277 0.0562,-0.15277 0.0404,-0.1001 0.0613,-0.14962 0.0613,-0.14962 0.0438,-0.0979 0.0663,-0.1461 0.0663,-0.1461 0.0469,-0.0953 0.0712,-0.14233 0.0712,-0.14233 0.0498,-0.0926 0.0757,-0.13832 0.0757,-0.13832 0.0528,-0.09 0.0799,-0.13431 0.0799,-0.13431 0.0554,-0.0871 0.0838,-0.13001 0.0838,-0.13001 0.0579,-0.0842 0.0874,-0.12559 0.0874,-0.12559 0.13693,-0.18872 0.28315,-0.35532 0.37996,-0.45614 0.24492,-0.24293 39.79777,-39.80611 39.9538,-39.95209 0.0717,-0.0658 0.10855,-0.0982 0.10855,-0.0982 0.075,-0.0641 0.11326,-0.0957 0.11326,-0.0957 0.0781,-0.0623 0.11797,-0.0928 0.11797,-0.0928 0.0813,-0.0601 0.12254,-0.0896 0.12254,-0.0896 0.0842,-0.0579 0.12697,-0.0863 0.12697,-0.0863 0.0871,-0.0554 0.1314,-0.0827 0.1314,-0.0827 0.09,-0.0528 0.13568,-0.0786 0.13568,-0.0786 0.0926,-0.0498 0.1397,-0.0744 0.1397,-0.0744 0.0953,-0.0469 0.14358,-0.0696 0.14358,-0.0696 0.0979,-0.0438 0.14735,-0.0648 0.14735,-0.0648 0.10011,-0.0404 0.15076,-0.0597 0.15076,-0.0597 0.10218,-0.0368 0.1539,-0.0543 0.1539,-0.0543 0.1044,-0.0332 0.15679,-0.0489 0.15679,-0.0489 0.10592,-0.0293 0.15942,-0.0429 0.15942,-0.0429 0.10759,-0.0253 0.16182,-0.0371 0.16182,-0.0371 0.10883,-0.0213 0.16372,-0.0309 0.16372,-0.0309 0.10993,-0.0172 0.16533,-0.0248 0.16533,-0.0248 0.1109,-0.0125 0.16647,-0.0183 0.16647,-0.0183 0.1116,-0.008 0.16736,-0.0125 0.16736,-0.0125 0.11187,-0.004 0.16784,-0.006 0.16784,-0.006 0.11215,0 0.16812,8e-4 0.16812,8e-4 0.11188,0.004 0.16772,0.007 0.16772,0.007 0.1116,0.008 0.16723,0.0141 0.16723,0.0141 0.11091,0.0125 0.1661,0.0205 0.1661,0.0205 0.11007,0.0172 0.16483,0.0267 0.16483,0.0267 0.10883,0.0213 0.16306,0.0331 0.16306,0.0331 0.10759,0.0253 0.16107,0.0392 0.16107,0.0392 0.10593,0.0293 0.15868,0.045 0.15868,0.045 0.10426,0.0331 0.15592,0.0508 0.15592,0.0508 0.10219,0.0368 0.15277,0.0562 0.15277,0.0562 0.1001,0.0404 0.14962,0.0613 0.14962,0.0613 0.0979,0.0437 0.1461,0.0663 0.1461,0.0663 0.0953,0.0471 0.14234,0.0712 0.14234,0.0712 0.0926,0.0498 0.13832,0.0757 0.13832,0.0757 0.09,0.0528 0.1343,0.0799 0.1343,0.0799 0.0871,0.0554 0.13002,0.0838 0.13002,0.0838 0.0843,0.0579 0.12558,0.0874 0.12558,0.0874 0.18874,0.13693 0.35533,0.28315 0.45617,0.37996 0.24292,0.24494 39.80637,39.7986 39.95234,39.95463 0.0658,0.0717 0.0982,0.10856 0.0982,0.10856 0.064,0.075 0.0957,0.11326 0.0957,0.11326 0.0622,0.0781 0.0928,0.11797 0.0928,0.11797 0.0601,0.0813 0.0897,0.12254 0.0897,0.12254 0.0579,0.0843 0.0863,0.12696 0.0863,0.12696 0.0554,0.0871 0.0827,0.1314 0.0827,0.1314 0.0528,0.09 0.0786,0.1357 0.0786,0.1357 0.0498,0.0926 0.0744,0.13969 0.0744,0.13969 0.0471,0.0953 0.0696,0.14358 0.0696,0.14358 0.0438,0.0979 0.0648,0.14737 0.0648,0.14737 0.0404,0.10011 0.0597,0.15075 0.0597,0.15075 0.0368,0.10219 0.0543,0.1539 0.0543,0.1539 0.0332,0.1044 0.0489,0.1568 0.0489,0.1568 0.0294,0.10592 0.0429,0.15942 0.0429,0.15942 0.0253,0.10759 0.0371,0.16182 0.0371,0.16182 0.0213,0.10883 0.031,0.1637 0.031,0.1637 0.0172,0.11008 0.0248,0.16535 0.0248,0.16535 0.0125,0.11091 0.0184,0.16648 0.0184,0.16648 0.008,0.1116 0.0125,0.16735 0.0125,0.16735 0.004,0.11188 0.006,0.16785 0.006,0.16785 0,0.11215 -10e-4,0.1681 -10e-4,0.1681 -0.004,0.11188 -0.007,0.16772 -0.007,0.16772 -0.008,0.11146 -0.0141,0.16723 -0.0141,0.16723 -0.0125,0.11091 -0.0205,0.1661 -0.0205,0.1661 -0.0172,0.11008 -0.0267,0.16484 -0.0267,0.16484 -0.0213,0.10883 -0.0331,0.16308 -0.0331,0.16308 -0.0253,0.10758 -0.0392,0.16106 -0.0392,0.16106 -0.0294,0.10606 -0.045,0.15869 -0.045,0.15869 -0.0332,0.1044 -0.0508,0.15589 -0.0508,0.15589 -0.0368,0.10219 -0.0562,0.15278 -0.0562,0.15278 -0.0404,0.10011 -0.0613,0.14961 -0.0613,0.14961 -0.0438,0.0979 -0.0663,0.14612 -0.0663,0.14612 -0.0471,0.0953 -0.0712,0.14232 -0.0712,0.14232 -0.0498,0.0926 -0.0757,0.13832 -0.0757,0.13832 -0.0528,0.09 -0.0799,0.13431 -0.0799,0.13431 -0.0554,0.0871 -0.0838,0.13002 -0.0838,0.13002 -0.0579,0.0843 -0.0874,0.12558 -0.0874,0.12558 -0.14184,0.19515 -0.27939,0.35054 -0.37985,0.45604 -0.0673,0.0687 -39.8502,39.85177 -39.8502,39.85177 z"
         id="2ndbase"
         style="fill:#ffffff;fill-opacity:1;stroke:#000000;stroke-width:1.77815;stroke-linecap:round;stroke-linejoin:round;stroke-miterlimit:10;stroke-dasharray:none;stroke-opacity:1" />
      <path
         class="st44"
         d="m 427.56103,339.32633 c -0.1709,0.17035 -0.32804,0.29862 -0.44359,0.38702 -0.0813,0.0601 -0.12254,0.0897 -0.12254,0.0897 -0.0842,0.0579 -0.12697,0.0863 -0.12697,0.0863 -0.0871,0.0555 -0.1314,0.0827 -0.1314,0.0827 -0.09,0.0528 -0.13569,0.0786 -0.13569,0.0786 -0.0926,0.0498 -0.13968,0.0743 -0.13968,0.0743 -0.0953,0.0471 -0.14359,0.0697 -0.14359,0.0697 -0.0979,0.0437 -0.14736,0.0648 -0.14736,0.0648 -0.10011,0.0404 -0.15076,0.0597 -0.15076,0.0597 -0.10218,0.0368 -0.1539,0.0543 -0.1539,0.0543 -0.1044,0.0332 -0.15678,0.0489 -0.15678,0.0489 -0.10606,0.0294 -0.15943,0.0429 -0.15943,0.0429 -0.10759,0.0253 -0.16182,0.0371 -0.16182,0.0371 -0.10884,0.0213 -0.16371,0.0309 -0.16371,0.0309 -0.11006,0.0172 -0.16534,0.0248 -0.16534,0.0248 -0.11091,0.0125 -0.16647,0.0183 -0.16647,0.0183 -0.11146,0.008 -0.16734,0.0125 -0.16734,0.0125 -0.11188,0.004 -0.16787,0.006 -0.16787,0.006 -0.11216,0 -0.1681,-0.001 -0.1681,-0.001 -0.11187,-0.004 -0.16773,-0.007 -0.16773,-0.007 -0.1116,-0.008 -0.16722,-0.0141 -0.16722,-0.0141 -0.11091,-0.0125 -0.1661,-0.0205 -0.1661,-0.0205 -0.11006,-0.0172 -0.16482,-0.0267 -0.16482,-0.0267 -0.10883,-0.0213 -0.1631,-0.0331 -0.1631,-0.0331 -0.10758,-0.0253 -0.16106,-0.0392 -0.16106,-0.0392 -0.10592,-0.0294 -0.15867,-0.045 -0.15867,-0.045 -0.1044,-0.0332 -0.15591,-0.0508 -0.15591,-0.0508 -0.10218,-0.0368 -0.15276,-0.0562 -0.15276,-0.0562 -0.10011,-0.0406 -0.14963,-0.0613 -0.14963,-0.0613 -0.0979,-0.0438 -0.1461,-0.0663 -0.1461,-0.0663 -0.0953,-0.0471 -0.14234,-0.0712 -0.14234,-0.0712 -0.0926,-0.0498 -0.13831,-0.0757 -0.13831,-0.0757 -0.09,-0.0528 -0.13431,-0.0799 -0.13431,-0.0799 -0.0871,-0.0555 -0.13001,-0.0838 -0.13001,-0.0838 -0.0842,-0.0579 -0.12559,-0.0874 -0.12559,-0.0874 -0.18873,-0.13693 -0.35533,-0.28316 -0.45603,-0.37985 -0.24292,-0.24492 -39.80637,-39.79861 -39.95235,-39.95465 -0.0658,-0.0717 -0.0982,-0.10855 -0.0982,-0.10855 -0.064,-0.0751 -0.0957,-0.11326 -0.0957,-0.11326 -0.0623,-0.0781 -0.0928,-0.11797 -0.0928,-0.11797 -0.0601,-0.0813 -0.0896,-0.12254 -0.0896,-0.12254 -0.0579,-0.0842 -0.0863,-0.12697 -0.0863,-0.12697 -0.0554,-0.0871 -0.0827,-0.1314 -0.0827,-0.1314 -0.0528,-0.09 -0.0787,-0.13569 -0.0787,-0.13569 -0.0498,-0.0926 -0.0743,-0.13969 -0.0743,-0.13969 -0.0471,-0.0953 -0.0697,-0.14357 -0.0697,-0.14357 -0.0437,-0.0979 -0.0648,-0.14737 -0.0648,-0.14737 -0.0404,-0.1001 -0.0597,-0.15075 -0.0597,-0.15075 -0.0368,-0.10219 -0.0543,-0.1539 -0.0543,-0.1539 -0.0331,-0.10426 -0.0489,-0.1568 -0.0489,-0.1568 -0.0294,-0.10606 -0.0429,-0.15943 -0.0429,-0.15943 -0.0253,-0.10759 -0.0371,-0.16182 -0.0371,-0.16182 -0.0213,-0.10884 -0.031,-0.16371 -0.031,-0.16371 -0.0172,-0.11007 -0.0248,-0.16533 -0.0248,-0.16533 -0.0125,-0.11091 -0.0184,-0.16649 -0.0184,-0.16649 -0.008,-0.11146 -0.0125,-0.16734 -0.0125,-0.16734 -0.004,-0.11188 -0.006,-0.16786 -0.006,-0.16786 0,-0.11215 8e-4,-0.16811 8e-4,-0.16811 0.004,-0.11187 0.007,-0.16773 0.007,-0.16773 0.008,-0.11146 0.0141,-0.16722 0.0141,-0.16722 0.0125,-0.11091 0.0205,-0.1661 0.0205,-0.1661 0.0172,-0.11007 0.0267,-0.16483 0.0267,-0.16483 0.0213,-0.10883 0.0331,-0.16308 0.0331,-0.16308 0.0253,-0.10759 0.0392,-0.16106 0.0392,-0.16106 0.0294,-0.10606 0.045,-0.15868 0.045,-0.15868 0.0332,-0.1044 0.0508,-0.15592 0.0508,-0.15592 0.0368,-0.10218 0.0562,-0.15276 0.0562,-0.15276 0.0404,-0.10011 0.0613,-0.14963 0.0613,-0.14963 0.0437,-0.0979 0.0663,-0.1461 0.0663,-0.1461 0.0469,-0.0953 0.0712,-0.14232 0.0712,-0.14232 0.0498,-0.0926 0.0757,-0.13833 0.0757,-0.13833 0.0528,-0.09 0.0799,-0.1343 0.0799,-0.1343 0.0554,-0.0871 0.0838,-0.13002 0.0838,-0.13002 0.0579,-0.0842 0.0874,-0.12558 0.0874,-0.12558 0.13693,-0.18873 0.28315,-0.35532 0.37996,-0.45615 0.24493,-0.24293 39.79777,-39.80612 39.9538,-39.9521 0.0717,-0.0658 0.10856,-0.0982 0.10856,-0.0982 0.075,-0.0641 0.11326,-0.0957 0.11326,-0.0957 0.0781,-0.0623 0.11797,-0.0928 0.11797,-0.0928 0.0813,-0.0601 0.12253,-0.0896 0.12253,-0.0896 0.0842,-0.0579 0.12697,-0.0863 0.12697,-0.0863 0.0871,-0.0554 0.1314,-0.0827 0.1314,-0.0827 0.09,-0.0528 0.1357,-0.0786 0.1357,-0.0786 0.0926,-0.0498 0.13968,-0.0744 0.13968,-0.0744 0.0953,-0.0469 0.14358,-0.0696 0.14358,-0.0696 0.0979,-0.0437 0.14735,-0.0648 0.14735,-0.0648 0.10011,-0.0404 0.15076,-0.0597 0.15076,-0.0597 0.10218,-0.0368 0.1539,-0.0543 0.1539,-0.0543 0.1044,-0.0332 0.15679,-0.0489 0.15679,-0.0489 0.10593,-0.0293 0.15943,-0.0429 0.15943,-0.0429 0.10758,-0.0253 0.16182,-0.0371 0.16182,-0.0371 0.10883,-0.0213 0.16371,-0.0309 0.16371,-0.0309 0.10993,-0.0172 0.16533,-0.0248 0.16533,-0.0248 0.11091,-0.0125 0.16647,-0.0183 0.16647,-0.0183 0.1116,-0.008 0.16736,-0.0125 0.16736,-0.0125 0.11188,-0.004 0.16784,-0.006 0.16784,-0.006 0.11216,0 0.16812,8e-4 0.16812,8e-4 0.11188,0.004 0.16772,0.007 0.16772,0.007 0.1116,0.008 0.16723,0.0141 0.16723,0.0141 0.11091,0.0125 0.1661,0.0205 0.1661,0.0205 0.11007,0.0172 0.16483,0.0267 0.16483,0.0267 0.10883,0.0213 0.16307,0.0331 0.16307,0.0331 0.10758,0.0253 0.16107,0.0392 0.16107,0.0392 0.10592,0.0294 0.15868,0.045 0.15868,0.045 0.10426,0.0331 0.15592,0.0508 0.15592,0.0508 0.10218,0.0368 0.15276,0.0562 0.15276,0.0562 0.10011,0.0404 0.14962,0.0613 0.14962,0.0613 0.0979,0.0438 0.14611,0.0663 0.14611,0.0663 0.0953,0.0471 0.14233,0.0712 0.14233,0.0712 0.0926,0.0498 0.13832,0.0757 0.13832,0.0757 0.09,0.0528 0.13431,0.0799 0.13431,0.0799 0.0871,0.0554 0.13001,0.0838 0.13001,0.0838 0.0843,0.0579 0.12558,0.0874 0.12558,0.0874 0.18874,0.13693 0.35534,0.28315 0.45618,0.37996 0.24292,0.24494 39.80637,39.79861 39.95233,39.95465 0.0658,0.0717 0.0982,0.10855 0.0982,0.10855 0.064,0.0751 0.0957,0.11326 0.0957,0.11326 0.0622,0.0781 0.0928,0.11797 0.0928,0.11797 0.0601,0.0813 0.0897,0.12254 0.0897,0.12254 0.0579,0.0843 0.0863,0.12697 0.0863,0.12697 0.0554,0.0871 0.0827,0.1314 0.0827,0.1314 0.0528,0.09 0.0786,0.13569 0.0786,0.13569 0.0498,0.0926 0.0743,0.13969 0.0743,0.13969 0.0471,0.0953 0.0697,0.14359 0.0697,0.14359 0.0437,0.0979 0.0648,0.14736 0.0648,0.14736 0.0404,0.10011 0.0597,0.15076 0.0597,0.15076 0.0368,0.10218 0.0543,0.1539 0.0543,0.1539 0.0332,0.1044 0.0489,0.15679 0.0489,0.15679 0.0294,0.10592 0.0429,0.15943 0.0429,0.15943 0.0253,0.10758 0.0371,0.16182 0.0371,0.16182 0.0213,0.10883 0.031,0.1637 0.031,0.1637 0.0172,0.11007 0.0248,0.16535 0.0248,0.16535 0.0125,0.11091 0.0184,0.16647 0.0184,0.16647 0.008,0.1116 0.0125,0.16736 0.0125,0.16736 0.004,0.11188 0.006,0.16784 0.006,0.16784 0,0.11215 -0.001,0.16811 -0.001,0.16811 -0.004,0.11187 -0.007,0.16773 -0.007,0.16773 -0.008,0.11146 -0.0141,0.16723 -0.0141,0.16723 -0.0125,0.11091 -0.0205,0.1661 -0.0205,0.1661 -0.0172,0.11008 -0.0267,0.16482 -0.0267,0.16482 -0.0213,0.10884 -0.0331,0.16308 -0.0331,0.16308 -0.0253,0.10759 -0.0392,0.16106 -0.0392,0.16106 -0.0294,0.10606 -0.045,0.15869 -0.045,0.15869 -0.0332,0.1044 -0.0508,0.15591 -0.0508,0.15591 -0.0368,0.10219 -0.0562,0.15276 -0.0562,0.15276 -0.0404,0.10011 -0.0613,0.14963 -0.0613,0.14963 -0.0437,0.0979 -0.0663,0.14611 -0.0663,0.14611 -0.0471,0.0953 -0.0712,0.14233 -0.0712,0.14233 -0.0498,0.0926 -0.0757,0.13832 -0.0757,0.13832 -0.0528,0.09 -0.0799,0.13431 -0.0799,0.13431 -0.0554,0.0871 -0.0838,0.13001 -0.0838,0.13001 -0.0579,0.0843 -0.0874,0.12559 -0.0874,0.12559 -0.14184,0.19515 -0.27938,0.35054 -0.37984,0.45603 -0.0673,0.0687 -39.8502,39.85179 -39.8502,39.85179 z"
         id="1stbase"
         style="fill:#ffffff;fill-opacity:1;stroke:#000000;stroke-width:1.77815;stroke-linecap:round;stroke-linejoin:round;stroke-miterlimit:10;stroke-dasharray:none;stroke-opacity:1" />
      <polygon
         class="st42"
         points="454.946,313.306 265.202,503.05 75.458,313.306 75.458,123.562 454.946,123.562 "
         id="homeplate"
         style="fill:#ffffff;fill-opacity:1;stroke:#000000;stroke-width:10;stroke-linecap:round;stroke-linejoin:round;stroke-miterlimit:10;stroke-dasharray:none;stroke-opacity:1"
         transform="matrix(0.16688576,0,0,0.16688576,283.99149,385.63374)" />
    </g>
  </g>
  <g
     inkscape:groupmode="layer"
     id="layer2"
     inkscape:label="Text"
     style="display:inline"
     transform="translate(-149.215,-129.48352)">
    <text
       xml:space="preserve"
       style="font-style:normal;font-variant:normal;font-weight:normal;font-stretch:normal;font-size:16px;line-height:125%;font-family:Arial;-inkscape-font-specification:'Arial, Normal';font-variant-ligatures:normal;font-variant-caps:normal;font-variant-numeric:normal;font-variant-east-asian:normal;text-align:start;writing-mode:lr-tb;text-anchor:start;fill:#000000;fill-opacity:1;stroke:none;stroke-width:1px;stroke-linecap:butt;stroke-linejoin:miter;stroke-opacity:1"
       x="200.61194"
       y="240.12025"
       id="text3rdbase"
       inkscape:label="text3rdbase"><tspan
         sodipodi:role="line"
         id="tspan2826"
         x="200.61194"
         y="240.12025"
         style="font-style:normal;font-variant:normal;font-weight:normal;font-stretch:normal;font-size:16px;font-family:Arial;-inkscape-font-specification:'Arial, Normal';font-variant-ligatures:normal;font-variant-caps:normal;font-variant-numeric:normal;font-variant-east-asian:normal;stroke-width:1px">3rd base</tspan></text>
    <text
       xml:space="preserve"
       style="font-style:normal;font-variant:normal;font-weight:normal;font-stretch:normal;font-size:16px;line-height:125%;font-family:Arial;-inkscape-font-specification:'Arial, Normal';font-variant-ligatures:normal;font-variant-caps:normal;font-variant-numeric:normal;font-variant-east-asian:normal;text-align:start;writing-mode:lr-tb;text-anchor:start;fill:#000000;fill-opacity:1;stroke:none;stroke-width:1px;stroke-linecap:butt;stroke-linejoin:miter;stroke-opacity:1"
       x="295.67288"
       y="152.62024"
       id="text2ndbase"
       inkscape:label="text2ndbase"><tspan
         sodipodi:role="line"
         id="tspan2834"
         x="295.67288"
         y="152.62024">2nd base</tspan></text>
    <text
       xml:space="preserve"
       style="font-style:normal;font-variant:normal;font-weight:normal;font-stretch:normal;font-size:16px;line-height:125%;font-family:Arial;-inkscape-font-specification:'Arial, Normal';font-variant-ligatures:normal;font-variant-caps:normal;font-variant-numeric:normal;font-variant-east-asian:normal;text-align:start;writing-mode:lr-tb;text-anchor:start;fill:#000000;fill-opacity:1;stroke:none;stroke-width:1px;stroke-linecap:butt;stroke-linejoin:miter;stroke-opacity:1"
       x="393.71793"
       y="240.12025"
       id="text1stbase"><tspan
         sodipodi:role="line"
         id="tspan2830"
         x="393.71793"
         y="240.12025"
         style="font-style:normal;font-variant:normal;font-weight:normal;font-stretch:normal;font-size:16px;font-family:Arial;-inkscape-font-specification:'Arial, Normal';font-variant-ligatures:normal;font-variant-caps:normal;font-variant-numeric:normal;font-variant-east-asian:normal;stroke-width:1px">1st base</tspan></text>
  </g>
</svg>
