<?xml version="1.0" encoding="UTF-8" standalone="no"?>
<svg
   width="113"
   height="160"
   viewBox="0 0 113 160"
   version="1.1"
   id="svg1"
   sodipodi:docname="cricketB.svg"
   inkscape:version="1.3.2 (091e20e, 2023-11-25, custom)"
   xmlns:inkscape="http://www.inkscape.org/namespaces/inkscape"
   xmlns:sodipodi="http://sodipodi.sourceforge.net/DTD/sodipodi-0.dtd"
   xmlns="http://www.w3.org/2000/svg"
   xmlns:svg="http://www.w3.org/2000/svg">
  <defs
     id="defs1" />
  <sodipodi:namedview
     id="namedview1"
     pagecolor="#ffffff"
     bordercolor="#000000"
     borderopacity="0.25"
     inkscape:showpageshadow="2"
     inkscape:pageopacity="0.0"
     inkscape:pagecheckerboard="0"
     inkscape:deskcolor="#d1d1d1"
     inkscape:zoom="4.0093992"
     inkscape:cx="44.7698"
     inkscape:cy="103.63149"
     inkscape:window-width="2256"
     inkscape:window-height="1410"
     inkscape:window-x="-11"
     inkscape:window-y="-11"
     inkscape:window-maximized="1"
     inkscape:current-layer="svg1" />
  <path
     d="m 6.7673148,147.34423 v -28.58784 c 0.004,-2.59143 0.0402,-5.18271 0.11016,-7.77319 0.1509,-5.85947 0.45803,-12.780931 0.92139,-20.764363 0.2247,-3.849341 0.46773,-7.69758 0.72909,-11.544585 1.25523,-18.031793 1.9666302,-31.268431 2.1342102,-39.709915 0.006,-0.320559 0.012,-0.641131 0.017,-0.961714 -0.0507,-4.721383 0.15858,-11.253188 0.62795,-19.595415 0.13786,-2.441521 0.28708,-4.882382 0.44766,-7.322502 0.1058,-0.791325 0.26813,-1.5739825 0.48573,-2.3419141 0.5762,-1.9871389 1.49024,-3.3676739 2.74212,-4.1416052 5.10272,-1.5576032 10.33362,-2.654779 15.63049,-3.2784772 4.84213,-0.5783789 9.71469,-0.86157697 14.59092,-0.84803811 8.77426,0.0437381 17.39367,2.32555661 25.04963,6.63139671 2.78555,1.5299905 5.46139,3.2533919 8.00803,5.1576419 3.92597,2.8489 7.4315,6.240709 10.41264,10.074854 5.18339,6.691051 7.9593,14.947485 7.87583,23.425168 0.0818,6.512297 -1.05566,12.982022 -3.35303,19.072308 -3.11469,8.003548 -8.39829,14.819374 -15.85082,20.447477 -0.11851,0.08965 -0.23735,0.178849 -0.35654,0.26759 3.0788,1.307332 6.09043,2.768838 9.02356,4.379016 2.86698,1.587431 5.42749,3.231866 7.68154,4.933307 1.87374,1.399245 3.63024,2.95028 5.2519,4.637553 1.792785,1.853267 3.333155,3.937007 4.580865,6.196817 1.77356,3.21455 2.7044,6.82923 2.70507,10.50441 -0.0444,4.23208 -1.21118,8.37577 -3.38008,12.00431 -2.13387,3.72279 -5.277925,7.38387 -9.432165,10.98325 -3.35772,2.99123 -7.00155,5.64178 -10.87835,7.91302 -2.50137,1.45618 -5.10948,2.71898 -7.80171,3.77744 -6.31175,2.42943 -12.8308,4.27599 -19.47626,5.51678 -6.56854,1.27088 -13.68456,2.15446 -21.34807,2.65075 -5.13096,0.32524 -10.271,0.4846 -15.41216,0.47783 -1.71059,-0.0128 -3.38472,-0.49797 -4.83926,-1.40233 -1.06828,-0.6398 -2.11218,-1.49857 -3.13171,-2.57631 -2.0123602,-2.12596 -3.2181702,-4.30423 -3.6174402,-6.53482 -0.0987,-0.55043 -0.14829,-1.10861 -0.14822,-1.6679 z M 30.239575,21.203822 30.044285,38.39596 28.088355,76.414829 c 8.9915,0.763201 13.92457,1.125017 14.79922,1.085448 0.0224,-0.0011 0.0448,-0.0027 0.0671,-0.005 3.87334,-0.281837 7.70083,-1.015778 11.40514,-2.186993 4.67603,-1.47175 9.01178,-3.868037 12.75216,-7.04787 6.04408,-5.074405 9.67894,-12.472658 10.01203,-20.378065 0.0411,-0.705437 0.0615,-1.411941 0.0611,-2.118587 -0.0296,-3.499667 -1.09883,-6.91075 -3.07062,-9.796199 -1.16641,-1.781919 -2.665,-3.519576 -4.49575,-5.212969 -0.86735,-0.799171 -1.76888,-1.560073 -2.70206,-2.280549 -2.95853,-2.331334 -6.22961,-4.231897 -9.7166,-5.64554 -3.81635,-1.528489 -7.88747,-2.31337 -11.99601,-2.312741 -6.98917,0 -11.92893,0.22165 -14.81927,0.664951 -0.0484,0.0076 -0.0968,0.01527 -0.14522,0.02314 z m 25.91794,78.002409 -10.36658,-1.669921 c -0.23938,3.09e-4 -0.47876,0.0033 -0.71807,0.0091 -0.79119,0.01811 -1.82441,0.06338 -3.09966,0.135807 l -0.0461,0.002 c -0.40618,0.02318 -0.81247,0.04464 -1.21883,0.06438 -1.14305,0.05567 -2.05709,0.0835 -2.74212,0.0835 -2.29395,-0.0045 -4.58636,-0.11968 -6.86931,-0.345049 -1.46347,-0.142769 -2.92313,-0.322561 -4.37759,-0.539204 -0.17607,3.672376 -0.31662,7.346376 -0.42163,11.021486 -0.0961,3.4505 -0.15056,6.7102 -0.16325,9.7791 -0.002,0.43458 -0.002,0.86917 -0.002,1.30375 v 20.33479 c 17.083,-0.58883 31.00358,-3.01188 41.76175,-7.26917 3.21071,-1.26141 6.24728,-2.93084 9.03556,-4.96751 1.41265,-1.02299 2.77121,-2.11932 4.07012,-3.28452 0.74499,-0.6348 1.47106,-1.29165 2.17727,-1.9697 2.52579,-2.43849 3.78869,-4.33609 3.78869,-5.69282 -0.0418,-0.99523 -0.39823,-1.9512 -1.01753,-2.72921 -1.42147,-1.97172 -4.32984,-4.0836 -8.72511,-6.33564 -0.91643,-0.46804 -1.84201,-0.9178 -2.77617,-1.34902 -3.75268,-1.77805 -7.60803,-3.32869 -11.54534,-4.64358 -2.22095,-0.73773 -4.47086,-1.384445 -6.74413,-1.938533 z"
     vector-effect="non-scaling-stroke"
     id="path1"
     style="fill:#000000;stroke:#000000;stroke-width:0.250934mm"
     sodipodi:nodetypes="cccccsccccccccccccsccccccccccccccccsccccsccccccccccssccccccsccccccccccccccccsc" />
</svg>
