<?xml version="1.0" encoding="UTF-8" standalone="no"?>
<svg
   width="113"
   height="160"
   viewBox="0 0 113 160"
   version="1.1"
   id="svg1"
   sodipodi:docname="cricket4.svg"
   inkscape:version="1.3.2 (091e20e, 2023-11-25, custom)"
   xmlns:inkscape="http://www.inkscape.org/namespaces/inkscape"
   xmlns:sodipodi="http://sodipodi.sourceforge.net/DTD/sodipodi-0.dtd"
   xmlns="http://www.w3.org/2000/svg"
   xmlns:svg="http://www.w3.org/2000/svg">
  <defs
     id="defs1" />
  <sodipodi:namedview
     id="namedview1"
     pagecolor="#ffffff"
     bordercolor="#000000"
     borderopacity="0.25"
     inkscape:showpageshadow="2"
     inkscape:pageopacity="0.0"
     inkscape:pagecheckerboard="0"
     inkscape:deskcolor="#d1d1d1"
     inkscape:zoom="2.8350734"
     inkscape:cx="55.906843"
     inkscape:cy="133.15352"
     inkscape:window-width="2256"
     inkscape:window-height="1410"
     inkscape:window-x="-11"
     inkscape:window-y="-11"
     inkscape:window-maximized="1"
     inkscape:current-layer="svg1" />
  <path
     d="m 90.288895,112.41823 v 36.34794 c 0,4.80857 -1.84878,7.71919 -5.54634,8.73188 -1.09488,0.28364 -2.22242,0.41997 -3.35304,0.4054 -1.6932,0.0441 -3.37214,-0.32129 -4.89535,-1.06532 -3.64815,-1.88655 -5.47223,-6.27998 -5.47223,-13.1803 3e-4,-0.32531 0.004,-0.6506 0.012,-0.97581 0.0167,-0.73436 0.0507,-1.5995 0.10215,-2.59542 0.025,-0.47963 0.052,-0.95915 0.0811,-1.43854 0.0284,-0.4687 0.0555,-0.93749 0.0811,-1.40635 0.0768,-1.4077 0.11517,-2.41267 0.11517,-3.01492 l -0.0981,-22.30048 -43.13078,-1.08043 c -8.62363,0 -14.69508,-0.27463 -18.2143701,-0.82388 -0.12299,-0.0193 -0.24585,-0.0394 -0.36856,-0.0604 -1.10016,-0.17447 -2.18605,-0.43001 -3.24888,-0.76455 -2.55116,-0.82423 -4.23869,-2.03944 -5.0626,-3.64565 -0.39939001,-0.7945 -0.60144001,-1.67429 -0.58889001,-2.56424 0.0181,-1.0479 0.20443,-2.086 0.55183001,-3.074268 0.78118,-2.345266 2.39026,-5.05369 4.82725,-8.125271 L 14.491995,81.767088 62.611285,11.231037 c 1.42951,-2.0399636 3.16069,-3.8487568 5.13372,-5.3638661 3.3084,-2.5025693 7.35106,-3.8296012 11.49226,-3.7724117 1.40208,-0.016078 2.80145,0.1276904 4.17126,0.4285459 4.5869,1.0676764 6.88035,4.1338927 6.88035,9.1986489 v 81.637002 c 0.44772,-0.02582 0.89576,-0.0456 1.34401,-0.05935 0.7992,-0.02549 1.68787,-0.03823 2.666,-0.03823 7.377745,0 12.487095,1.22595 15.328035,3.67785 1.7634,1.500002 2.74635,3.728184 2.668,6.047934 0.0219,1.27735 -0.20049,2.54704 -0.65498,3.74022 -0.72509,1.81679 -2.05275,3.21175 -3.98298,4.18486 -0.89187,0.44 -1.82925,0.78006 -2.7952,1.01403 -0.4909,0.12459 -0.98891,0.21899 -1.49125,0.28268 -2.29478,0.31118 -5.958615,0.40205 -10.991505,0.27262 -0.6968,-0.0179 -1.39352,-0.0391 -2.09013,-0.0634 z M 71.315375,92.966665 V 29.306462 c -4.08719,6.554053 -8.20107,13.091279 -12.34153,19.611512 -7.99335,12.5794 -14.9725,23.295732 -20.93746,32.148996 -2.46428,3.664801 -4.96617,7.303947 -7.50527,10.916856 z"
     vector-effect="non-scaling-stroke"
     id="path1"
     style="fill:#000000;stroke:#000000;stroke-width:0.250934mm"
     sodipodi:nodetypes="csccccccsccccscccccccccccsccsccccccssccccccc" />
</svg>
