<?xml version="1.0" encoding="UTF-8" standalone="no"?>
<svg
   width="113"
   height="160"
   viewBox="0 0 113 160"
   version="1.1"
   id="svg1"
   sodipodi:docname="cricket3strike.svg"
   inkscape:version="1.3.2 (091e20e, 2023-11-25, custom)"
   xmlns:inkscape="http://www.inkscape.org/namespaces/inkscape"
   xmlns:sodipodi="http://sodipodi.sourceforge.net/DTD/sodipodi-0.dtd"
   xmlns="http://www.w3.org/2000/svg"
   xmlns:svg="http://www.w3.org/2000/svg">
  <defs
     id="defs1" />
  <sodipodi:namedview
     id="namedview1"
     pagecolor="#ffffff"
     bordercolor="#000000"
     borderopacity="0.25"
     inkscape:showpageshadow="2"
     inkscape:pageopacity="0.0"
     inkscape:pagecheckerboard="0"
     inkscape:deskcolor="#d1d1d1"
     inkscape:zoom="1.0023498"
     inkscape:cx="299.79554"
     inkscape:cy="70.334727"
     inkscape:window-width="2256"
     inkscape:window-height="1410"
     inkscape:window-x="-11"
     inkscape:window-y="-11"
     inkscape:window-maximized="1"
     inkscape:current-layer="svg1" />
  <path
     d="m 27.302897,124.53512 4.49877,6.77827 c 2.12711,2.88822 4.9536,5.18265 8.21133,6.6656 0.4202,0.19672 0.84566,0.38189 1.27591,0.5553 3.97731,1.60487 8.73713,2.4073 14.27946,2.4073 6.82377,0.10116 13.4554,-2.27055 18.68007,-6.68069 2.13197,-1.73304 3.96639,-3.80572 5.43015,-6.13545 2.05594,-3.35073 3.12347,-7.21852 3.07863,-11.15426 0.0451,-3.86802 -0.59728,-7.71309 -1.89686,-11.35446 -1.80976,-4.85239 -4.90839,-9.114043 -8.95945,-12.322212 -3.53082,-2.77568 -7.50286,-4.93263 -11.74865,-6.379903 -4.08614,-1.437875 -8.64599,-2.422056 -13.67955,-2.952541 -7.23755,-0.720279 -10.85632,-3.667455 -10.85632,-8.841527 0,-3.864291 2.83626,-6.811466 8.50879,-8.841527 l 23.37511,-5.796436 c 1.58529,-0.567492 3.12172,-1.264274 4.59391,-2.083378 2.29211,-1.292344 4.15123,-2.80835 5.57738,-4.548019 1.93512,-2.374063 3.12169,-5.27371 3.40811,-8.328479 0.0659,-0.610897 0.10367,-1.224526 0.11317,-1.838925 0.003,-0.159255 0.005,-0.318545 0.005,-0.477839 0,-5.542931 -2.21866,-10.03361 -6.65599,-13.472037 -4.75982,-3.66779 -11.44286,-5.501685 -20.04912,-5.501685 -4.35273,0.01359 -8.64122,1.055689 -12.51881,3.042072 -0.13098,0.06584 -0.26151,0.132569 -0.39159,0.20019 l -11.05161,6.974435 c -2.1519,1.375505 -3.87983,2.063258 -5.18378,2.063258 -2.4275,0.02463 -4.75696,-0.960691 -6.43567,-2.722173 -0.0896,-0.08973 -0.17779,-0.180948 -0.2644,-0.273626 -0.85825,-0.904176 -1.5509,-1.953406 -2.04607,-3.099413 -0.49621,-1.179718 -0.74836,-2.448486 -0.74112,-3.729154 0.0458,-1.993633 0.72287,-3.920743 1.93291,-5.501686 2.29678,-3.223819 6.64064,-6.36716 13.03158,-9.430023 2.39116,-1.183339 4.83284,-2.2607692 7.318,-3.229185 4.88199,-1.8825173 9.15808,-2.9230322 12.82826,-3.1215449 0.42358,-0.023184 0.84771,-0.034925 1.27192,-0.035209 10.56854,0 19.48827,1.7681716 26.75919,5.3045149 2.32278,1.123561 4.5306,2.472626 6.59191,4.027929 7.56402,5.664018 12.29883,14.354794 12.97048,23.807439 0.15761,1.588522 0.2355,3.184009 0.23335,4.7804 0.0428,3.861629 -0.42464,7.711894 -1.39008,11.450024 -2.42231,8.958555 -8.01337,15.236854 -16.7732,18.834897 -0.13953,0.05753 -0.27941,0.1142 -0.41963,0.17001 -0.5702,0.234836 -1.14555,0.456876 -1.7256,0.665956 -0.57085,0.206561 -1.17543,0.413457 -1.81372,0.620688 -0.0914,0.02971 -0.18288,0.05922 -0.27441,0.08853 3.38758,1.227374 6.62468,2.838975 9.6485,4.803537 3.87465,2.50758 7.21124,5.76776 9.81373,9.588969 2.61534,3.943869 4.442273,8.360924 5.379083,13.005263 0.71708,3.37405 1.07562,7.01266 1.07562,10.91585 0.21634,12.16478 -4.542353,23.88665 -13.165773,32.43067 -0.14207,0.14434 -0.28495,0.28786 -0.42865,0.43056 -8.66625,8.80104 -20.52676,13.67793 -32.84935,13.50724 -0.10182,6.1e-4 -0.20364,9.4e-4 -0.30546,0.001 -9.84545,0 -18.68039,-2.06326 -26.50482,-6.18977 -3.8752,-2.05683 -7.39272,-4.73121 -10.41565,-7.91904 -3.27978,-3.51387 -5.79489,-7.67546 -7.38509,-12.2196 -0.23719,-0.70597 -0.4059,-1.43332 -0.50376,-2.1719 -0.0544,-0.41996 -0.0819,-0.84301 -0.0821,-1.26652 -0.0456,-2.3271 0.89082,-4.56501 2.57787,-6.1606 0.13152,-0.12769 0.26644,-0.25181 0.40461,-0.37221 1.98899,-1.73565 4.28744,-2.60347 6.89536,-2.60347 2.0141,-0.002 3.95125,0.77698 5.40813,2.17391 0.48671,0.44823 0.93496,0.93685 1.34,1.46068 z"
     vector-effect="non-scaling-stroke"
     id="path1"
     style="fill:#000000;stroke:#000000;stroke-width:0.250934mm"
     sodipodi:nodetypes="ccccccccccccsccccccccccccccccccccccccccccccsccccccccccccccccccsc" />
  <path
     d="m 88.547252,144.37083 a 4181.1895,1891.1484 59.854528 0 1 -18.92305,-26.6791 Q 28.134352,58.953559 10.822212,32.026991 A 50.372714,22.783536 59.854527 0 1 10.044182,30.78586 Q -1.1411384,12.673644 4.2358316,5.121138 a 31.92299,14.438739 59.854526 0 1 1.87418,-1.8686123 Q 10.940842,0.09925099 19.269482,9.3686595 a 42.197528,19.085906 59.854527 0 1 5.75001,7.2908175 708.09512,320.27081 59.854526 0 1 6.71026,9.513319 q 12.06289,17.226392 31.33817,45.515065 25.17829,36.948629 38.049218,55.027219 a 37.709361,17.055915 59.854525 0 1 4.87533,7.62901 q 5.30081,9.52462 4.36045,15.79918 a 29.589731,13.383411 59.854528 0 1 -1.83526,4.62121 33.118862,14.979631 59.854528 0 1 -2.05862,2.01983 q -4.69565,2.92593 -12.372898,-5.4494 a 37.463759,16.944825 59.854528 0 1 -5.53889,-6.96408 z"
     vector-effect="non-scaling-stroke"
     id="path1-8"
     style="fill:#ff0000;stroke:#000000;stroke-width:4.99991;stroke-dasharray:none"
     inkscape:label="path2" />
</svg>
